{"glyphs":{"0":{"ha":806,"x_min":0,"x_max":0,"o":""},"1":{"ha":600,"x_min":0,"x_max":0,"o":"m 540 871 l 460 871 l 560 979 l 556 983 l 456 876 l 456 1061 l 447 1061 l 447 871 l 310 871 l 410 979 l 406 983 l 308 881 l 308 1061 l 303 1061 l 303 874 l 300 871 l 196 871 l 196 864 l 294 864 l 57 610 l -17 682 l -22 676 l 51 606 l -119 421 l -115 417 l 57 600 l 131 529 l 31 421 l 35 417 l 136 524 l 221 442 l 225 447 l 140 529 l 303 703 l 303 3 l 197 3 l 197 -3 l 303 -3 l 303 -210 l 308 -210 l 308 -3 l 447 -3 l 447 -210 l 456 -210 l 456 -3 l 564 -3 l 564 3 l 456 3 l 456 864 l 540 864 z m 308 851 l 332 864 l 350 864 l 308 840 z m 303 847 l 303 836 l 249 806 l 269 828 z m 308 858 l 308 864 l 319 864 z m 303 854 l 283 843 l 303 864 z m 308 833 l 363 864 l 381 864 l 308 824 z m 303 829 l 303 819 l 214 768 l 233 790 z m 308 817 l 393 864 l 410 864 l 308 806 z m 303 813 l 303 803 l 178 731 l 199 753 z m 308 799 l 422 864 l 440 864 l 308 789 z m 303 794 l 303 785 l 143 693 l 164 714 z m 308 782 l 433 854 l 413 832 l 308 771 z m 303 778 l 303 768 l 107 654 l 128 676 z m 447 851 l 433 843 l 447 858 z m 308 764 l 399 817 l 378 794 l 308 754 z m 447 844 l 447 835 l 399 806 l 419 828 z m 303 760 l 303 750 l 72 617 l 93 639 z m 308 747 l 364 778 l 343 756 l 308 736 z m 447 828 l 447 817 l 364 768 l 383 790 z m 303 743 l 303 733 l 69 599 l 63 604 z m 308 729 l 328 740 l 308 719 z m 447 810 l 447 800 l 328 731 l 349 753 z m 303 725 l 303 715 l 81 588 l 74 593 z m 447 793 l 447 782 l 308 701 l 308 710 l 314 715 z m 85 582 l 293 703 l 272 681 l 92 576 z m 97 572 l 257 665 l 238 643 l 103 565 z m 447 775 l 447 765 l 308 685 l 308 694 z m 108 561 l 222 626 l 201 606 l 114 554 z m 447 758 l 447 747 l 308 667 l 308 678 z m 119 550 l 188 589 b 167 567 181 582 174 574 l 125 543 z m 447 740 l 447 731 l 308 650 l 308 660 z m 131 539 l 151 551 l 135 535 z m 447 724 l 447 713 l 308 632 l 308 643 z m 447 706 l 447 696 l 308 615 l 308 625 z m 447 689 l 447 678 l 308 597 l 308 608 z m 447 671 l 447 661 l 308 581 l 308 590 z m 447 654 l 447 643 l 308 563 l 308 574 z m 447 636 l 447 626 l 308 546 l 308 556 z m 447 619 l 447 608 l 308 528 l 308 539 z m 447 601 l 447 592 l 308 511 l 308 521 z m 447 585 l 447 574 l 308 493 l 308 504 z m 447 567 l 447 557 l 308 476 l 308 486 z m 447 550 l 447 539 l 308 458 l 308 469 z m 447 532 l 447 522 l 308 442 l 308 451 z m 447 515 l 447 504 l 308 424 l 308 435 z m 447 497 l 447 488 l 308 407 l 308 417 z m 447 481 l 447 469 l 308 389 l 308 400 z m 447 463 l 447 453 l 308 372 l 308 382 z m 447 446 l 447 435 l 308 354 l 308 365 z m 447 428 l 447 418 l 308 338 l 308 347 z m 447 411 l 447 400 l 308 319 l 308 331 z m 447 393 l 447 383 l 308 303 l 308 313 z m 447 376 l 447 365 l 308 285 l 308 296 z m 447 358 l 447 349 l 308 268 l 308 278 z m 447 342 l 447 331 l 308 250 l 308 261 z m 447 324 l 447 314 l 308 233 l 308 243 z m 447 307 l 447 296 l 308 215 l 308 226 z m 447 289 l 447 279 l 308 199 l 308 208 z m 447 272 l 447 261 l 308 181 l 308 192 z m 447 254 l 447 244 l 308 164 l 308 174 z m 447 238 l 447 226 l 308 146 l 308 157 z m 447 219 l 447 210 l 308 129 l 308 139 z m 447 203 l 447 192 l 308 111 l 308 122 z m 447 185 l 447 175 l 308 94 l 308 104 z m 447 168 l 447 157 l 308 76 l 308 88 z m 447 150 l 447 140 l 308 60 l 308 69 z m 447 133 l 447 122 l 308 42 l 308 53 z m 447 115 l 447 106 l 308 25 l 308 35 z m 447 99 l 447 88 l 308 7 l 308 18 z m 447 81 l 447 71 l 332 3 l 314 3 z m 447 64 l 447 53 l 363 3 l 344 3 z m 447 46 l 447 36 l 392 3 l 375 3 z m 447 29 l 447 18 l 422 3 l 404 3 z m 447 11 l 447 3 l 435 3 z "},"2":{"ha":806,"x_min":0,"x_max":0,"o":"m 369 122 l 331 122 l 335 126 l 342 135 b 369 122 350 129 360 125 z m 401 122 b 347 140 382 124 364 131 l 513 333 b 544 250 532 311 544 282 b 428 122 544 183 493 129 z m 475 511 b 415 496 457 501 436 496 b 357 510 394 496 375 501 b 417 517 376 514 396 517 b 475 511 436 517 457 515 z m 356 364 l 361 364 l 290 282 b 356 364 300 318 324 347 z m 544 290 b 518 339 539 308 531 325 l 544 369 z m 544 208 l 544 122 l 460 122 b 544 208 500 136 532 168 z m 669 688 b 665 706 668 693 667 700 l 669 711 z m 669 554 l 669 526 l 651 504 b 669 554 660 521 665 536 z m 288 390 b 346 367 306 381 325 372 b 288 296 319 351 299 325 z m 229 435 b 281 394 244 419 261 406 l 281 271 l 182 157 b 161 260 168 189 161 224 b 229 435 161 326 186 389 z m 669 306 l 669 215 b 633 122 664 181 651 150 l 551 122 l 551 378 l 597 432 l 603 438 b 669 306 636 401 661 356 z m 288 482 b 347 507 306 493 326 501 b 415 489 367 496 390 489 b 485 508 440 489 464 496 l 374 379 b 356 372 367 378 361 375 b 288 399 332 378 308 386 z m 281 478 l 281 403 b 233 439 264 414 247 425 b 281 478 247 453 264 467 z m 288 489 l 288 578 b 339 513 297 550 315 528 b 288 489 321 507 304 499 z m 281 486 b 229 444 261 475 244 460 b 158 621 185 490 158 553 l 158 625 l 279 625 b 281 606 279 618 279 611 z m 156 297 l 156 571 b 224 439 165 521 190 475 b 156 297 188 400 163 351 z m 669 335 b 608 442 657 375 636 413 b 629 468 617 450 622 458 l 669 515 z m 669 185 l 669 122 l 642 122 b 669 185 654 142 663 163 z m 156 224 b 178 151 160 199 168 174 l 156 126 z m 544 864 l 544 851 b 517 864 536 857 526 860 z m 551 864 l 669 864 l 669 722 l 663 713 b 551 847 642 768 601 817 z m 288 864 l 314 864 b 288 851 306 860 296 856 z m 156 864 l 281 864 l 281 849 b 156 672 217 811 169 747 z m 288 878 l 357 878 b 332 872 349 876 340 875 l 288 872 z m 150 3 l 60 3 l 150 108 z m 156 -3 l 214 -3 l 156 -69 z m 288 625 l 544 625 b 539 592 544 614 542 603 b 536 583 538 589 538 586 l 538 583 b 532 569 536 579 533 574 l 531 569 b 525 558 529 567 528 563 l 514 543 l 514 542 l 513 540 b 483 515 504 531 494 522 b 417 524 463 521 439 524 b 349 515 393 524 371 521 b 288 607 317 535 293 568 z m 288 631 l 288 643 l 288 647 l 289 647 b 290 656 289 650 290 653 b 293 668 292 660 292 664 l 294 668 b 297 678 296 671 296 675 b 415 754 318 722 363 754 b 543 631 485 754 540 699 z m 678 -147 l 678 -3 l 792 -3 l 792 3 l 678 3 l 678 4 l 678 6 l 678 13 l 678 22 l 678 29 l 678 39 l 678 40 l 678 47 l 678 57 l 678 74 l 678 75 l 678 82 l 678 92 l 678 108 l 679 110 l 679 114 l 736 114 l 736 122 l 678 122 l 678 215 b 681 260 681 231 681 244 b 678 306 681 275 681 290 l 678 524 l 782 644 l 776 649 l 678 533 l 678 593 b 679 621 679 603 679 611 l 679 625 l 747 625 l 747 631 l 678 631 l 678 650 l 678 719 l 782 842 l 776 846 l 678 731 l 678 864 l 750 864 l 750 872 l 678 872 l 678 1013 l 669 1013 l 669 872 l 551 872 l 551 1063 l 544 1063 l 544 872 l 499 872 b 472 878 490 875 481 876 l 528 878 l 528 886 l 288 886 l 288 1067 l 281 1067 l 281 872 l 156 872 l 156 1014 l 150 1014 l 150 872 l 56 872 l 56 864 l 150 864 l 150 631 l 53 631 l 53 625 l 150 625 l 150 122 l 42 122 l 42 114 l 146 114 l 50 3 l 21 3 l 21 -3 l 44 -3 l -19 -78 l -14 -82 l 53 -3 l 150 -3 l 150 -78 l 93 -144 l 97 -149 l 150 -89 l 150 -146 l 156 -146 l 156 -81 l 222 -3 l 281 -3 l 281 -201 l 288 -201 l 288 -3 l 417 -3 l 544 -3 l 544 -206 l 551 -206 l 551 -3 l 669 -3 l 669 -147 z m 288 838 l 333 864 l 351 864 l 288 828 z m 244 814 l 281 835 l 281 824 l 221 790 b 244 814 228 799 236 807 z m 375 872 l 383 876 b 403 878 390 878 396 878 l 393 872 z m 288 821 l 364 864 l 381 864 l 288 811 z m 210 776 l 281 817 l 281 807 l 199 760 b 210 776 203 765 206 771 z m 363 872 l 358 872 b 365 874 361 872 363 874 z m 406 872 l 417 878 l 433 878 l 422 872 z m 288 803 l 393 864 l 411 864 l 288 793 z m 192 749 l 281 800 l 281 789 l 185 733 b 192 749 188 739 189 744 z m 435 872 l 443 876 b 457 875 447 876 453 876 l 453 872 z m 288 786 l 424 864 l 440 864 l 288 776 z m 179 724 l 281 782 l 281 772 l 174 710 b 179 724 175 714 178 719 z m 288 768 l 453 864 l 471 864 l 288 758 z m 171 701 l 281 765 l 281 754 l 168 689 b 171 701 169 693 169 697 z m 288 751 l 483 864 l 497 864 l 499 864 l 288 742 z m 165 681 l 281 747 l 281 738 l 163 669 b 165 681 164 674 164 676 z m 288 733 l 507 861 b 517 857 510 860 514 858 l 288 724 z m 161 661 l 281 731 l 281 719 l 160 650 b 161 661 160 654 161 657 z m 288 717 l 524 854 b 533 849 526 853 531 850 l 364 750 b 332 732 353 746 342 739 l 288 707 z m 160 642 l 281 713 l 281 703 l 158 632 b 160 642 158 636 160 638 z m 389 758 l 540 846 b 544 843 542 844 543 844 l 544 838 l 411 761 b 389 758 404 761 396 760 z m 288 699 l 313 714 b 300 696 308 708 304 701 l 288 689 z m 171 631 l 281 696 l 281 685 l 188 631 z m 288 682 l 293 685 b 288 672 290 681 289 676 z m 200 631 l 281 678 l 281 668 l 218 631 z m 554 836 b 563 831 557 835 560 832 l 551 825 l 551 835 z m 424 760 l 544 831 l 544 821 l 438 758 b 424 760 433 760 429 760 z m 231 631 l 281 661 l 281 650 l 247 631 z m 568 828 b 576 821 571 826 574 822 l 551 807 l 551 817 z m 447 757 l 544 814 l 544 803 l 458 753 b 447 757 454 754 451 756 z m 260 631 l 281 643 b 279 632 281 639 279 636 l 278 631 z m 581 817 b 588 811 583 815 585 813 l 551 790 l 551 800 z m 467 750 l 544 796 l 544 786 l 476 746 b 467 750 474 747 469 749 z m 593 807 b 599 800 596 804 596 803 l 551 772 l 551 782 z m 482 743 l 544 779 l 544 768 l 490 738 b 482 743 488 739 485 742 z m 604 796 b 610 789 606 793 608 792 l 551 756 l 551 765 z m 496 733 l 544 761 l 544 751 l 504 728 b 496 733 501 729 499 732 z m 614 783 b 619 776 615 781 618 779 l 551 738 l 551 747 z m 508 724 l 544 744 l 544 733 l 515 717 b 508 724 514 719 511 722 z m 622 772 b 628 765 624 769 626 768 l 551 721 l 551 731 z m 519 713 l 544 726 l 544 717 l 525 706 b 519 713 524 708 521 710 z m 632 760 l 636 751 l 551 703 l 551 713 z m 528 700 l 544 710 l 544 699 l 533 692 b 528 700 532 694 529 697 z m 639 747 l 643 739 l 551 686 l 551 696 z m 536 686 l 544 692 l 544 682 l 539 679 b 536 686 538 682 538 683 z m 646 733 l 650 725 l 551 668 l 551 678 z m 542 674 l 544 675 l 544 665 b 542 674 543 668 543 671 z m 653 719 b 656 711 654 717 654 714 l 551 651 l 551 661 z m 653 703 l 636 682 l 551 633 l 551 643 z m 560 631 l 624 668 l 606 647 l 578 631 z m 663 690 b 664 682 664 688 663 685 l 624 658 l 642 679 z m 660 697 l 654 693 l 660 700 z m 551 608 l 578 625 l 586 625 l 576 613 l 551 599 z m 590 631 l 593 633 l 592 631 z m 665 675 b 668 667 665 672 668 669 l 607 631 l 601 631 l 611 644 z m 551 617 l 551 625 l 565 625 z m 551 592 l 564 599 l 551 585 z m 608 625 l 625 625 l 564 589 l 582 610 z m 669 660 l 669 650 l 638 631 l 619 631 z m 596 625 l 594 624 l 594 625 z m 638 625 l 656 625 l 551 564 l 551 574 l 551 575 z m 669 643 l 669 633 l 667 631 l 650 631 z m 542 576 b 544 583 543 579 543 581 l 544 578 z m 668 625 l 669 625 l 669 615 l 551 547 l 551 557 z m 544 553 l 544 543 l 504 519 l 522 540 z m 544 560 l 535 554 l 544 565 z m 551 539 l 669 608 l 669 599 l 551 529 z m 544 536 l 544 525 l 511 507 b 501 510 507 508 506 508 z m 493 506 b 504 501 497 504 500 503 l 475 485 l 492 506 z m 551 522 l 669 590 b 668 579 669 586 668 583 l 551 513 z m 544 518 l 544 508 l 529 499 b 519 503 526 500 522 501 z m 511 499 b 522 494 514 497 519 496 l 444 450 l 463 471 z m 551 504 l 667 572 b 664 560 665 568 665 564 l 551 494 z m 544 501 l 544 492 l 536 496 z m 528 492 b 538 488 531 490 535 489 l 415 415 l 432 436 z m 551 488 l 663 551 l 658 539 l 560 482 b 551 488 557 483 554 486 z m 544 483 l 544 474 l 388 383 l 403 401 z m 551 478 l 551 479 l 553 478 z m 565 478 l 656 531 b 650 517 654 526 651 521 l 574 472 b 565 478 571 474 568 476 z m 551 469 l 558 475 b 567 469 561 474 564 471 l 551 460 z m 404 385 l 544 467 l 544 456 l 422 385 b 415 386 419 385 418 386 b 404 385 411 386 408 385 z m 389 376 b 411 378 396 378 404 378 l 389 365 b 375 368 385 365 379 367 z m 379 360 l 356 346 l 368 361 b 379 360 372 361 375 360 z m 579 468 l 644 507 b 638 492 642 501 640 496 l 586 463 b 579 468 583 464 582 467 z m 551 453 l 572 465 b 579 458 575 464 576 460 l 551 443 z m 433 385 l 544 449 l 544 439 l 446 382 b 433 385 442 383 438 385 z m 422 378 b 438 376 428 378 433 378 l 417 365 l 415 364 b 400 365 410 364 406 365 z m 389 358 l 406 358 l 325 311 l 343 332 z m 592 458 l 629 481 l 625 472 l 615 463 l 597 453 b 592 458 594 456 594 457 z m 551 435 l 585 454 b 592 449 588 453 589 451 l 551 425 z m 454 379 l 544 432 l 544 421 l 465 375 b 454 379 461 376 458 378 z m 446 375 l 458 371 l 451 367 b 431 365 444 365 438 365 z m 417 358 l 436 358 l 296 276 l 313 297 z m 551 418 l 596 444 l 599 442 l 593 436 b 579 424 589 432 583 428 l 551 408 z m 472 372 l 544 414 l 544 404 l 504 381 b 475 372 494 376 485 375 z m 451 360 b 474 364 458 361 467 363 l 475 364 l 288 256 l 288 265 z m 279 250 l 265 242 l 279 258 z m 503 372 b 544 392 517 378 532 385 l 544 386 l 496 358 b 488 364 493 360 490 363 z m 279 243 b 281 233 279 240 281 236 l 235 207 l 253 228 z m 288 247 l 482 360 b 489 354 485 358 486 356 l 288 238 z m 551 390 l 551 396 b 567 406 557 399 563 403 l 556 393 z m 501 354 l 543 378 l 525 358 l 508 349 b 501 354 506 351 504 353 z m 222 193 l 281 226 l 281 217 l 206 172 z m 288 231 l 494 350 b 501 344 497 349 499 347 l 289 221 b 288 231 289 224 288 228 z m 193 158 l 281 210 l 281 199 l 188 146 b 186 150 186 147 188 149 z m 290 215 l 507 340 l 508 339 l 496 324 l 293 207 b 290 215 292 210 292 213 z m 182 142 b 175 138 179 140 178 139 l 181 144 b 182 142 181 143 182 143 z m 190 140 l 281 192 l 281 182 l 194 132 z m 288 196 l 290 197 b 293 189 292 194 292 192 l 288 186 z m 296 200 l 483 310 l 465 289 l 300 193 b 296 200 299 196 297 197 z m 185 136 b 189 129 186 133 188 132 b 176 122 185 126 181 125 l 161 122 l 163 124 z m 165 114 l 156 110 l 156 114 z m 178 114 l 194 114 l 156 92 l 156 103 z m 199 126 l 281 175 l 281 164 l 207 122 l 201 122 b 199 126 200 124 200 125 z m 288 178 l 296 183 b 301 176 297 181 300 179 l 288 168 z m 303 188 l 453 275 l 436 254 l 307 179 z m 192 124 l 193 122 l 189 122 z m 200 111 b 206 103 201 108 204 106 l 156 75 l 156 85 z m 219 122 l 281 157 l 281 147 l 238 122 z m 288 161 l 304 171 b 310 164 306 168 308 167 l 288 151 z m 311 175 l 424 240 l 406 219 l 315 167 z m 207 114 l 225 114 l 211 107 b 207 114 210 110 208 111 z m 210 99 b 215 92 211 96 214 94 l 156 57 l 156 68 z m 249 122 l 281 140 l 281 129 l 267 122 z m 288 143 l 314 158 b 321 153 315 156 318 156 l 288 133 z m 319 163 l 393 206 l 376 185 l 326 156 b 319 163 324 157 321 160 z m 215 101 l 238 114 l 254 114 l 221 94 b 215 101 219 97 217 99 z m 219 86 b 225 81 221 83 224 83 l 156 40 l 156 50 z m 288 126 l 325 149 b 332 142 328 147 329 143 l 297 122 l 288 122 z m 332 151 l 364 171 l 346 150 l 339 146 b 332 151 336 147 335 150 z m 225 90 l 267 114 l 281 114 l 281 113 l 231 83 b 225 90 229 86 226 88 z m 229 75 b 236 69 232 72 233 72 l 156 22 l 156 33 z m 310 122 l 333 136 l 321 122 z m 236 79 l 281 106 l 281 94 l 242 72 b 236 79 239 74 239 76 z m 288 108 l 297 114 l 315 114 l 288 99 z m 240 64 b 247 58 243 63 244 60 l 156 6 l 156 15 z m 328 114 l 344 114 l 304 92 l 322 111 z m 247 68 l 281 88 l 281 78 l 254 63 b 247 68 251 64 250 67 z m 288 92 l 304 101 l 288 82 z m 165 3 l 253 54 b 260 50 254 53 257 51 l 256 46 l 183 3 z m 357 114 l 375 114 l 288 64 l 288 72 l 292 76 z m 260 58 l 274 67 l 264 54 z m 281 60 l 275 57 l 281 64 z m 265 44 b 274 39 268 43 271 40 l 244 22 l 263 42 z m 196 3 l 244 32 l 226 11 l 213 3 z m 388 114 l 401 114 l 404 114 l 288 47 l 288 57 z m 281 53 l 281 43 b 272 49 278 44 275 47 z m 281 35 l 281 25 l 243 3 l 229 3 l 232 7 z m 415 114 l 429 114 l 435 114 l 296 35 l 288 39 z m 289 31 l 288 29 l 288 31 z m 281 18 l 281 8 l 272 3 l 256 3 z m 294 26 b 304 22 297 25 301 24 l 288 13 l 288 22 z m 447 114 l 465 114 l 313 26 b 303 31 310 28 306 29 z m 311 18 b 322 14 314 17 319 15 l 303 3 l 288 3 l 288 4 z m 478 114 l 494 114 l 329 19 b 319 24 325 21 322 22 z m 315 3 l 329 11 b 340 8 333 10 336 10 l 333 3 z m 507 114 l 525 114 l 349 13 b 338 17 344 14 342 15 z m 346 3 l 349 6 b 357 3 351 4 354 3 z m 538 114 l 544 114 l 544 108 l 371 8 b 357 11 367 10 361 10 z m 554 114 l 551 113 l 551 114 z m 544 101 l 544 92 l 394 4 b 381 6 389 4 385 4 z m 567 114 l 585 114 l 551 96 l 551 106 z m 544 85 l 544 74 l 422 4 b 417 3 421 4 418 3 b 406 4 413 3 410 4 z m 597 114 l 614 114 l 551 78 l 551 88 z m 436 4 l 544 67 l 544 57 l 458 7 b 436 4 451 6 443 4 z m 626 114 l 629 114 b 617 99 625 108 621 104 l 551 61 l 551 71 z m 644 114 l 632 107 b 638 114 633 110 636 111 z m 657 114 l 669 114 l 669 113 l 603 74 b 622 94 610 81 617 88 z m 478 11 l 544 50 l 544 39 l 518 24 b 478 11 506 18 492 14 z m 604 83 b 571 56 594 72 582 64 l 551 43 l 551 53 z m 486 6 l 482 3 l 478 3 b 486 6 481 3 483 4 z m 669 104 l 669 94 l 551 26 l 551 33 b 579 53 561 39 571 46 z m 517 15 b 544 29 526 19 535 24 l 544 22 l 513 3 l 494 3 z m 669 88 l 669 78 l 551 8 l 551 18 z m 544 15 l 544 4 l 543 3 l 525 3 z m 556 3 l 669 69 l 669 60 l 572 3 z m 585 3 l 669 53 l 669 43 l 603 3 z m 615 3 l 669 35 l 669 25 l 632 3 z m 644 3 l 669 18 l 669 8 l 663 3 z "},"3":{"ha":806,"x_min":0,"x_max":0,"o":""},"4":{"ha":771,"x_min":0,"x_max":0,"o":"m 442 864 l 435 860 l 435 864 z m 415 832 l 422 847 l 428 850 l 428 839 z m 471 864 l 435 843 l 435 854 l 453 864 z m 403 807 l 410 822 l 428 832 l 428 822 z m 501 864 l 435 825 l 435 836 l 482 864 z m 389 782 l 397 797 l 428 815 l 428 804 z m 532 864 l 435 808 l 435 819 l 513 864 z m 376 758 l 385 774 l 428 797 l 428 788 z m 561 864 l 435 790 l 435 801 l 543 864 z m 364 733 l 372 749 l 428 781 l 428 769 z m 435 774 l 435 785 l 558 857 l 551 842 z m 351 708 l 360 724 l 428 763 l 428 753 z m 435 756 l 435 767 l 546 832 l 539 817 z m 339 683 l 347 699 l 428 746 l 428 735 z m 435 739 l 435 750 l 533 807 l 526 792 z m 326 658 l 335 675 l 428 728 l 428 718 z m 435 721 l 435 732 l 521 783 l 513 767 z m 314 635 l 322 650 l 428 711 l 428 700 z m 435 704 l 435 715 l 508 758 l 500 743 z m 301 610 l 310 625 l 428 693 l 428 683 z m 435 686 l 435 697 l 496 733 l 488 718 z m 289 585 l 297 600 l 428 676 l 428 665 z m 435 669 l 435 681 l 483 708 l 475 693 z m 276 560 l 283 576 l 428 658 l 428 649 z m 435 651 l 435 663 l 471 685 l 463 668 z m 264 536 l 271 551 l 428 642 l 428 631 z m 435 635 l 435 646 l 458 660 l 450 644 z m 251 511 l 258 526 l 428 624 l 428 614 z m 435 617 l 435 628 l 446 635 l 438 619 z m 238 486 l 246 501 l 428 607 l 428 599 l 425 594 z m 225 461 l 233 478 l 421 585 l 413 569 z m 213 438 l 221 453 l 407 561 l 400 546 z m 207 417 l 203 417 l 208 428 l 394 536 l 388 521 z m 236 417 l 218 417 l 382 511 l 375 496 z m 225 408 l 188 388 l 196 403 l 206 408 z m 267 417 l 247 417 l 369 486 l 363 471 z m 254 408 l 175 363 l 183 379 l 236 408 z m 297 417 l 278 417 l 357 463 l 349 446 z m 285 408 l 163 339 l 171 354 l 265 408 z m 326 417 l 307 417 l 344 438 l 336 422 z m 314 408 l 150 314 l 158 329 l 296 408 z m 324 397 l 138 289 l 146 304 l 325 408 l 331 408 z m 311 372 l 147 278 l 131 278 l 132 281 l 319 388 z m 135 269 l 125 264 l 128 269 z m 299 347 l 176 278 l 158 278 l 307 364 z m 165 269 l 113 240 l 119 256 l 146 269 z m 342 417 l 428 585 l 428 417 z m 286 324 l 207 278 l 188 278 l 294 339 z m 194 269 l 100 215 l 107 231 l 176 269 z m 274 299 l 236 278 l 218 278 l 282 314 z m 225 269 l 88 190 l 94 206 l 206 269 z m 269 289 l 263 278 l 247 278 z m 464 408 l 435 392 l 435 403 l 446 408 z m 254 269 l 74 165 l 82 181 l 236 269 z m 494 408 l 435 375 l 435 385 l 475 408 z m 285 269 l 260 256 l 267 269 z m 249 249 l 76 150 l 65 150 l 69 157 l 256 265 z m 524 408 l 435 357 l 435 368 l 506 408 z m 314 269 l 247 231 l 254 246 l 296 269 z m 236 225 l 106 150 l 88 150 l 243 240 z m 554 408 l 435 340 l 435 350 l 535 408 z m 567 857 l 567 417 l 435 417 l 435 597 z m 344 269 l 235 207 l 242 222 l 325 269 z m 224 200 l 136 150 l 117 150 l 231 215 z m 567 399 l 435 322 l 435 333 l 565 408 l 567 408 z m 375 269 l 222 182 l 229 197 l 356 269 z m 211 175 l 165 150 l 147 150 l 218 190 z m 567 382 l 435 306 l 435 315 l 567 393 z m 404 269 l 208 157 l 217 172 l 386 269 z m 197 150 l 196 150 l 176 150 l 206 167 z m 567 364 l 435 288 l 435 299 l 567 375 z m 446 278 l 435 278 l 435 281 l 567 358 l 567 347 z m 226 150 l 207 150 l 415 269 l 428 269 l 428 267 z m 476 278 l 457 278 l 567 340 l 567 329 z m 464 269 l 435 253 l 435 264 l 446 269 z m 256 150 l 238 150 l 428 260 l 428 249 z m 507 278 l 488 278 l 567 324 l 567 313 z m 494 269 l 435 236 l 435 246 l 475 269 z m 286 150 l 267 150 l 428 243 l 428 232 z m 536 278 l 518 278 l 567 306 l 567 294 z m 524 269 l 435 218 l 435 229 l 506 269 z m 315 150 l 297 150 l 428 225 l 428 214 z m 567 278 l 547 278 l 567 289 l 567 278 z m 554 269 l 435 201 l 435 211 l 535 269 z m 346 150 l 326 150 l 428 208 l 428 197 z m 567 260 l 435 183 l 435 194 l 565 269 l 567 269 z m 585 269 l 574 264 l 574 269 z m 375 150 l 357 150 l 428 190 l 428 179 z m 417 150 l 428 156 l 428 150 z m 567 243 l 435 167 l 435 176 l 567 254 z m 614 269 l 574 247 l 574 257 l 596 269 z m 406 150 l 386 150 l 428 172 l 428 163 z m 436 150 l 435 150 l 435 160 l 567 236 l 567 225 z m 644 269 l 574 229 l 574 240 l 625 269 z m 465 150 l 447 150 l 567 219 l 567 208 z m 454 142 l 435 132 l 435 142 l 435 142 z m 674 269 l 574 213 l 574 222 l 656 269 z m 574 408 l 692 408 l 692 278 l 574 278 z m 496 150 l 476 150 l 567 201 l 567 190 z m 483 142 l 435 114 l 435 125 l 465 142 z m 692 263 l 574 194 l 574 206 l 685 269 l 692 269 z m 525 150 l 507 150 l 567 185 l 567 174 z m 514 142 l 435 97 l 435 107 l 494 142 z m 692 246 l 574 178 l 574 188 l 692 257 z m 556 150 l 536 150 l 567 167 l 567 156 z m 543 142 l 435 79 l 435 90 l 525 142 z m 692 228 l 574 160 l 574 171 l 692 239 z m 567 139 l 435 63 l 435 72 l 554 142 l 567 142 z m 692 211 l 586 150 l 574 150 l 574 153 l 692 222 z m 692 193 l 615 150 l 596 150 l 692 204 z m 567 121 l 435 44 l 435 56 l 567 132 z m 692 176 l 646 150 l 626 150 l 692 188 z m 567 104 l 435 28 l 435 38 l 567 115 z m 692 153 l 692 150 l 686 150 z m 692 158 l 675 150 l 657 150 l 692 169 z m 567 86 l 435 10 l 435 21 l 567 97 z m 428 142 l 428 3 l 131 3 l 201 142 z m 454 3 l 435 3 l 567 81 l 567 69 z m 483 3 l 465 3 l 567 63 l 567 51 z m 514 3 l 494 3 l 567 46 l 567 35 z m 554 3 l 567 11 l 567 3 z m 543 3 l 525 3 l 567 28 l 567 17 z m 428 408 l 428 278 l 271 278 l 338 408 z m 699 269 l 729 269 l 729 278 l 699 278 l 699 408 l 729 408 l 729 417 l 699 417 l 699 442 l 692 442 l 692 417 l 574 417 l 574 864 l 761 864 l 761 872 l 575 872 l 638 996 l 632 1000 l 574 885 l 574 1050 l 567 1050 l 567 872 l 567 872 l 435 872 l 511 1019 l 504 1022 l 435 885 l 433 1047 l 428 1047 l 428 872 l 258 872 l 258 864 l 424 864 l 194 417 l -36 417 l -36 408 l 190 408 l 124 278 l -36 278 l -36 269 l 119 269 l 58 150 l -49 150 l -49 142 l 54 142 l -54 -71 l -49 -74 l 63 142 l 193 142 l 122 3 l 53 3 l 53 -3 l 119 -3 l 24 -190 l 31 -193 l 126 -3 l 428 -3 l 428 -210 l 435 -210 l 435 -3 l 567 -3 l 567 -210 l 574 -210 l 574 -3 l 732 -3 l 732 3 l 699 3 l 699 142 l 731 142 l 731 150 l 699 150 z m 574 142 l 692 142 l 692 3 l 574 3 z "},"5":{"ha":806,"x_min":0,"x_max":0,"o":"m 239 232 b 281 160 246 204 261 179 l 239 119 z m 239 322 l 239 332 l 242 332 b 239 322 240 329 240 325 z m 114 342 l 114 363 l 119 361 b 114 342 118 354 115 349 z m 169 108 l 228 108 l 196 76 b 169 108 186 86 178 97 z m 114 114 l 114 213 b 157 114 122 176 138 143 z m 114 -3 l 117 -3 l 114 -6 z m 114 3 l 114 108 l 161 108 b 192 71 171 96 181 82 l 124 3 z m 567 3 l 514 3 b 567 31 532 10 550 19 z m 233 3 l 133 3 l 196 67 b 233 36 207 56 221 46 z m 239 3 l 239 31 b 292 3 256 19 274 10 z m 692 114 l 649 114 b 692 213 668 143 683 176 z m 233 114 l 165 114 b 114 278 133 160 114 218 b 126 360 114 307 118 333 l 233 335 z m 692 108 l 692 3 l 572 3 l 572 36 b 644 108 600 56 625 81 z m 567 567 l 567 524 b 464 567 536 544 501 558 z m 692 442 l 692 342 b 649 442 683 378 668 411 z m 692 447 l 643 447 b 572 518 624 475 600 499 l 572 567 l 692 567 z m 567 719 l 567 572 l 239 572 l 239 575 l 239 585 l 239 592 l 239 719 z m 692 719 l 692 572 l 572 572 l 572 719 z m 364 244 l 285 165 b 240 278 257 194 240 235 b 249 331 240 296 243 314 l 319 313 l 322 319 l 251 336 b 258 353 254 342 256 347 b 265 364 260 357 263 360 l 278 381 b 285 389 281 383 282 386 b 403 440 314 421 356 440 b 567 292 488 440 558 375 l 567 263 b 418 114 560 185 496 121 l 389 114 b 324 135 365 117 343 124 l 322 136 b 313 142 319 138 315 140 b 307 144 311 143 308 143 b 290 160 301 149 296 154 l 369 239 z m 836 872 l 697 872 l 697 1060 l 692 1060 l 692 872 l 572 872 l 572 1063 l 567 1063 l 567 872 l 239 872 l 239 1060 l 233 1060 l 233 872 l 114 872 l 114 1060 l 108 1060 l 108 872 l 29 872 l 29 864 l 108 864 l 108 725 l 29 725 l 29 719 l 108 719 l 108 572 l 56 572 l 56 567 l 108 567 l 108 447 l 56 447 l 56 442 l 108 442 l 108 371 l 44 386 l 43 379 l 108 364 l 108 278 l 108 276 l 108 114 l 56 114 l 56 108 l 108 108 l 108 3 l 21 3 l 21 -3 l 108 -3 l 108 -12 l 33 -87 l 38 -92 l 108 -22 l 108 -154 l 114 -154 l 114 -15 l 126 -3 l 233 -3 l 233 -210 l 239 -210 l 239 -3 l 311 -3 b 336 -11 319 -6 328 -10 l 285 -11 l 285 -17 l 382 -17 b 403 -18 389 -17 396 -18 b 424 -17 410 -18 417 -17 l 528 -17 l 528 -11 l 469 -11 b 494 -3 478 -10 486 -6 l 567 -3 l 567 -215 l 572 -215 l 572 -3 l 692 -3 l 692 -154 l 697 -154 l 697 -3 l 792 -3 l 792 3 l 697 3 l 697 108 l 758 108 l 758 114 l 697 114 l 697 278 l 697 442 l 750 442 l 750 447 l 697 447 l 697 567 l 750 567 l 750 572 l 697 572 l 697 719 l 836 719 l 836 725 l 697 725 l 697 864 l 836 864 z m 124 864 l 140 864 l 114 850 l 114 860 z m 153 864 l 171 864 l 114 832 l 114 842 z m 183 864 l 201 864 l 114 815 l 114 825 z m 214 864 l 231 864 l 114 797 l 114 807 z m 243 864 l 261 864 l 239 853 l 239 863 z m 233 858 l 233 849 l 114 781 l 114 790 z m 274 864 l 290 864 l 239 835 l 239 844 z m 233 842 l 233 831 l 114 763 l 114 772 z m 303 864 l 321 864 l 239 818 l 239 828 z m 233 824 l 233 814 l 114 746 l 114 756 z m 333 864 l 351 864 l 239 800 l 239 810 z m 233 807 l 233 796 l 114 728 l 114 738 z m 364 864 l 381 864 l 239 783 l 239 793 z m 233 789 l 233 779 l 140 725 l 124 725 z m 393 864 l 411 864 l 239 765 l 239 775 z m 142 719 l 158 719 l 114 693 l 114 703 b 142 719 122 708 133 714 z m 233 772 l 233 761 l 171 725 l 153 725 z m 129 719 l 114 711 l 114 719 z m 424 864 l 440 864 l 239 749 l 239 758 z m 171 719 l 189 719 l 114 676 l 114 686 z m 233 754 l 233 744 l 201 725 l 183 725 z m 453 864 l 471 864 l 239 731 l 239 740 z m 201 719 l 219 719 l 114 658 l 114 668 z m 233 738 l 233 726 l 231 725 l 214 725 z m 483 864 l 500 864 l 261 725 l 243 725 z m 232 719 l 233 719 l 233 710 l 114 642 l 114 651 z m 513 864 l 531 864 l 290 725 l 274 725 z m 233 703 l 233 692 l 114 624 l 114 633 z m 543 864 l 561 864 l 321 725 l 303 725 z m 233 685 l 233 675 l 114 607 l 114 617 z m 574 864 l 590 864 l 572 854 l 572 864 z m 567 861 l 567 850 l 351 725 l 333 725 z m 233 668 l 233 657 l 114 589 l 114 599 z m 603 864 l 621 864 l 572 838 l 572 847 z m 567 843 l 567 833 l 381 725 l 364 725 z m 233 650 l 233 640 l 117 572 l 114 572 l 114 582 z m 633 864 l 650 864 l 572 819 l 572 829 z m 567 826 l 567 815 l 411 725 l 393 725 z m 118 567 l 135 567 l 114 554 l 114 564 z m 233 633 l 233 622 l 147 572 l 129 572 z m 663 864 l 681 864 l 572 803 l 572 813 z m 567 808 l 567 799 l 440 725 l 424 725 z m 147 567 l 165 567 l 114 538 l 114 547 z m 233 615 l 233 606 l 176 572 l 160 572 z m 692 864 l 692 853 l 572 785 l 572 794 z m 567 792 l 567 781 l 471 725 l 453 725 z m 178 567 l 194 567 l 114 519 l 114 529 z m 233 599 l 233 588 l 207 572 l 189 572 z m 692 846 l 692 836 l 572 768 l 572 778 z m 567 774 l 567 764 l 500 725 l 483 725 z m 207 567 l 225 567 l 114 503 l 114 513 z m 233 581 l 233 572 l 219 572 z m 692 829 l 692 818 l 572 750 l 572 760 z m 567 757 l 567 746 l 531 725 l 513 725 z m 114 494 l 233 564 l 233 553 l 114 485 z m 692 811 l 692 801 l 572 733 l 572 743 z m 567 739 l 567 729 l 561 725 l 543 725 z m 114 478 l 233 546 l 233 536 l 114 468 z m 239 550 l 239 557 l 239 567 l 342 567 b 239 524 304 558 269 544 l 239 532 l 239 540 z m 692 794 l 692 783 l 590 725 l 574 725 z m 114 460 l 233 529 l 233 518 l 114 450 z m 692 776 l 692 767 l 621 725 l 603 725 z m 271 533 b 325 554 288 542 306 549 l 239 506 l 239 514 b 246 519 242 515 243 518 z m 124 447 l 203 493 b 181 471 194 486 188 479 l 140 447 z m 692 760 l 692 749 l 650 725 l 633 725 z m 346 560 l 371 564 l 239 488 l 239 497 z m 153 447 l 168 457 b 163 447 165 454 165 450 z m 233 494 l 233 483 l 171 447 b 186 467 175 454 181 461 z m 114 425 l 142 442 l 157 442 l 157 439 l 114 415 z m 233 501 l 201 483 b 233 510 211 493 222 501 z m 114 433 l 114 442 l 129 442 z m 692 742 l 692 732 l 681 725 l 663 725 z m 385 565 l 403 565 l 404 565 l 239 471 l 239 481 z m 171 442 l 189 442 l 153 419 b 163 436 156 425 160 431 z m 233 476 l 233 467 l 201 447 l 183 447 z m 114 408 l 149 428 b 140 413 146 422 143 418 l 114 399 z m 415 565 b 431 564 421 565 425 564 l 239 453 l 239 463 z m 201 442 l 219 442 l 140 396 b 147 410 143 400 144 406 z m 233 460 l 233 449 l 231 447 l 214 447 z m 114 390 l 136 403 b 129 389 133 399 131 393 l 114 381 z m 442 563 b 456 561 446 563 451 563 l 261 447 l 243 447 z m 232 442 l 233 442 l 233 432 l 131 372 b 136 386 132 376 135 382 z m 114 374 l 126 381 l 122 368 l 114 369 z m 464 558 b 476 556 468 557 472 557 l 290 447 l 274 447 z m 131 365 l 233 425 l 233 414 l 143 363 z m 239 428 l 261 442 l 279 442 l 239 418 z m 239 436 l 239 442 l 249 442 z m 485 553 b 496 550 489 551 492 551 l 321 447 l 303 447 z m 153 361 l 233 407 l 233 397 l 165 357 z m 239 411 l 292 442 l 308 442 l 239 401 z m 504 547 b 514 543 508 546 511 544 l 351 447 l 333 447 z m 174 356 l 233 390 l 233 379 l 186 353 b 174 356 182 354 178 354 z m 239 393 l 321 442 l 339 442 l 239 383 z m 522 540 b 531 535 525 539 528 536 l 381 447 l 364 447 z m 194 350 l 233 372 l 233 363 l 207 347 z m 239 376 l 296 410 b 272 385 288 403 279 393 l 239 367 z m 343 436 l 351 442 l 358 442 b 343 436 353 440 349 438 z m 215 346 l 233 356 l 233 344 l 228 342 z m 239 358 l 263 372 b 253 357 260 367 256 363 l 239 349 z m 538 532 b 547 526 540 531 544 528 l 411 447 l 393 447 z m 553 524 b 561 518 556 522 558 519 l 440 447 l 424 447 z m 239 342 l 249 347 l 244 339 l 239 339 z m 567 514 l 567 503 l 471 447 l 453 447 z m 575 508 l 572 507 l 572 510 z m 458 442 l 456 439 b 449 442 454 439 450 442 z m 567 496 l 567 486 l 500 447 l 483 447 z m 581 504 b 588 499 583 503 585 500 l 572 490 l 572 500 z m 471 442 l 489 442 l 474 432 b 464 436 471 433 467 435 z m 567 479 l 567 468 l 531 447 l 513 447 z m 593 494 b 600 488 596 493 597 490 l 572 472 l 572 482 z m 501 442 l 518 442 l 489 424 b 481 429 486 425 483 428 z m 567 461 l 567 451 l 561 447 l 543 447 z m 604 483 l 611 476 l 572 456 l 572 465 z m 531 442 l 549 442 l 503 415 b 496 421 500 417 499 419 z m 574 447 l 615 472 b 621 465 617 469 619 468 l 590 447 z m 561 442 l 567 442 l 567 433 l 515 404 b 508 411 513 406 511 410 z m 572 438 l 572 442 l 579 442 z m 603 447 l 625 461 b 631 454 626 458 629 457 l 621 447 z m 521 400 l 567 426 l 567 417 l 528 394 b 521 400 526 397 524 397 z m 572 431 l 592 442 l 608 442 l 572 421 z m 633 447 l 635 449 l 635 447 z m 532 389 l 567 410 l 567 399 l 538 382 b 532 389 536 385 533 386 z m 572 413 l 621 442 l 639 442 l 572 403 z m 542 378 l 567 392 l 567 382 l 546 369 z m 572 396 l 643 436 b 647 429 644 433 646 432 l 572 386 z m 550 365 l 567 375 l 567 364 l 554 357 z m 572 378 l 651 424 b 656 417 653 421 654 419 l 572 368 z m 557 351 l 567 357 l 567 347 l 560 343 b 557 351 558 346 558 349 z m 572 361 l 658 411 l 663 403 l 572 351 z m 563 338 l 567 340 l 567 329 l 565 329 b 563 338 564 332 564 335 z m 572 343 l 665 397 b 668 389 667 394 667 392 l 572 333 z m 572 326 l 671 383 b 674 375 672 381 672 378 l 572 317 z m 293 147 b 301 142 296 146 299 143 l 254 114 l 244 114 l 254 125 z m 289 151 l 272 142 l 285 156 z m 572 308 l 676 368 b 679 360 678 365 678 363 l 572 299 z m 239 99 l 256 108 l 272 108 l 239 89 z m 233 94 l 233 85 l 204 68 l 201 71 l 213 83 z m 307 138 b 315 132 310 136 313 133 l 285 114 l 267 114 z m 239 106 l 239 108 l 243 108 z m 233 101 l 231 100 l 233 103 z m 574 292 l 681 354 b 683 344 682 351 682 347 l 574 282 z m 239 81 l 285 108 l 303 108 l 239 71 z m 233 78 l 233 67 l 217 57 b 210 64 214 58 213 63 z m 321 128 b 331 124 324 126 328 125 l 315 114 l 297 114 z m 574 275 l 685 339 b 686 329 685 336 686 332 l 574 264 z m 239 64 l 315 108 l 333 108 l 239 54 z m 233 60 l 233 50 l 229 47 b 221 53 226 49 224 51 z m 338 121 b 347 117 340 119 343 118 l 344 114 l 328 114 z m 572 257 l 688 324 b 689 314 688 321 689 317 l 572 247 z m 239 46 l 346 108 l 363 108 l 242 38 b 239 40 240 38 240 40 z m 572 239 l 689 307 b 690 297 689 304 690 300 l 572 229 z m 249 33 l 375 108 l 388 108 b 392 107 389 108 390 107 l 257 29 z m 567 225 l 565 225 l 567 226 z m 572 222 l 690 290 l 690 281 l 572 213 z m 567 218 l 567 208 l 557 203 b 563 217 560 207 561 213 z m 263 25 l 404 107 b 419 108 410 107 414 108 l 422 108 l 272 21 b 263 25 269 22 265 24 z m 572 204 l 690 274 l 690 263 l 572 194 z m 567 201 l 567 190 b 540 175 558 185 549 181 b 551 192 544 181 549 186 z m 279 17 l 435 108 l 453 108 l 289 13 b 279 17 286 14 282 15 z m 572 188 l 690 256 b 689 244 690 251 689 249 l 572 178 z m 567 183 l 567 174 l 465 114 l 454 114 b 528 161 483 122 508 139 z m 572 169 l 688 238 b 686 225 688 233 686 229 l 572 160 z m 296 10 l 465 108 l 482 108 l 306 6 b 296 10 301 7 300 8 z m 567 167 l 567 156 l 494 114 l 478 114 z m 572 153 l 685 218 b 682 206 683 214 683 210 l 572 143 z m 315 3 l 494 108 l 513 108 l 333 3 z m 567 149 l 567 139 l 525 114 l 507 114 z m 572 135 l 679 197 b 676 185 678 193 678 189 l 572 125 z m 346 3 l 525 108 l 543 108 l 363 3 z m 567 132 l 567 121 l 554 114 l 538 114 z m 351 -3 l 347 -6 b 336 -3 344 -6 339 -4 z m 572 118 l 672 176 b 667 163 671 172 668 167 l 585 114 l 572 114 z m 375 3 l 556 108 l 567 108 l 567 104 l 393 3 z m 364 -3 l 381 -3 l 371 -10 b 357 -7 367 -10 361 -8 z m 597 114 l 663 153 b 656 139 660 147 658 143 l 614 114 z m 406 3 l 567 97 l 567 86 l 422 3 z m 572 100 l 585 108 l 603 108 l 572 90 z m 393 -3 l 411 -3 l 399 -11 l 382 -11 l 382 -10 z m 626 114 l 649 128 b 640 114 646 124 643 118 z m 435 3 l 567 79 l 567 69 l 453 3 z m 572 83 l 615 108 l 632 108 l 572 74 z m 424 -3 l 440 -3 l 429 -10 b 424 -11 426 -10 426 -11 l 411 -11 z m 465 3 l 567 63 l 567 51 l 482 3 z m 572 65 l 629 99 b 611 78 624 92 618 85 l 572 56 z m 446 -8 l 453 -3 l 469 -3 b 446 -8 461 -4 454 -7 z m 497 4 l 567 44 l 567 39 b 497 4 546 25 522 13 z m 572 49 l 592 60 b 572 44 586 54 579 49 z "},"6":{"ha":806,"x_min":0,"x_max":0,"o":"m 618 107 l 614 107 l 619 110 b 618 107 619 108 618 108 z m 601 107 l 585 107 l 632 135 b 625 121 629 131 628 125 z m 571 107 l 554 107 l 640 157 l 636 144 z m 532 107 l 532 111 l 647 178 b 643 167 646 174 644 171 l 542 107 z m 494 107 l 525 125 l 525 115 l 511 107 z m 464 107 l 525 142 l 525 132 l 482 107 z m 344 107 l 349 110 b 356 107 351 108 354 108 z m 313 107 l 332 118 b 342 113 335 117 339 114 l 332 107 z m 285 107 l 318 126 b 326 121 321 125 324 122 l 303 107 z m 261 107 l 254 107 l 261 111 z m 242 107 l 225 107 l 261 128 l 261 118 z m 211 107 l 194 107 l 261 146 l 261 136 z m 178 107 b 175 113 178 108 176 110 l 261 163 l 261 153 l 182 107 z m 656 107 l 625 107 b 656 189 640 132 650 160 z m 169 107 l 142 107 l 142 174 b 169 107 149 150 157 128 z m 515 101 l 525 101 l 525 97 l 351 -3 l 333 -3 z m 485 101 l 501 101 l 321 -3 l 315 -3 b 308 -1 313 -1 311 -3 z m 454 101 l 472 101 l 300 3 b 290 7 297 4 293 6 z m 425 101 l 442 101 l 283 10 l 275 14 z m 364 101 l 382 101 l 268 36 l 268 46 z m 335 101 l 353 101 l 268 53 l 268 63 z m 304 101 l 322 101 l 268 71 l 268 81 z m 275 101 l 292 101 l 268 88 l 268 97 z m 656 101 l 656 -3 l 532 -3 l 532 13 b 622 101 569 35 600 65 z m 338 350 b 397 365 356 360 376 365 b 456 351 418 365 438 360 b 394 344 436 347 415 344 b 338 350 375 344 356 346 z m 525 218 b 397 107 517 156 463 107 b 268 236 326 107 268 165 b 329 346 268 282 293 324 b 394 338 350 340 372 338 b 464 346 418 338 442 340 b 525 254 496 326 519 293 z m 457 497 b 397 503 438 501 418 503 b 339 497 376 503 358 501 b 268 611 297 518 268 561 b 385 739 268 678 319 732 l 411 739 b 525 631 469 733 517 689 l 525 593 b 457 497 519 551 493 515 z m 525 658 b 443 739 511 696 482 725 l 525 739 z m 268 469 l 268 571 b 329 494 278 539 300 511 b 268 469 308 489 288 481 z m 525 471 b 467 494 507 481 488 489 b 525 565 493 510 514 536 z m 583 426 b 532 467 568 442 551 456 l 532 593 b 533 611 533 599 533 604 b 532 631 533 618 533 625 l 532 739 l 611 739 b 651 601 638 699 651 653 b 583 426 651 535 626 472 z m 532 818 b 607 747 561 800 588 776 l 532 747 z m 142 676 l 142 739 l 171 739 b 142 676 158 719 149 699 z m 268 832 l 268 858 l 335 858 b 268 832 311 853 289 843 z m 261 828 b 175 747 226 807 197 781 l 142 747 l 142 858 l 261 858 z m 268 -3 l 268 10 b 296 -3 276 4 286 1 z m 261 -3 l 142 -3 l 142 101 l 174 101 b 261 14 194 65 225 35 z m 525 -3 l 499 -3 b 525 10 507 1 517 6 z m 525 -17 l 456 -17 b 481 -11 464 -15 472 -14 l 525 -11 z m 656 365 l 656 290 b 629 365 650 317 642 342 z m 136 1008 l 136 864 l 65 864 l 21 864 l 21 858 l 65 858 l 136 858 l 136 747 l 76 747 l 76 739 l 136 739 l 136 646 b 132 601 133 631 132 617 l 132 582 l 132 575 l 133 575 l 133 565 l 132 564 l 132 557 l 135 558 b 136 556 135 557 136 557 l 136 549 l 132 547 l 132 540 l 136 542 l 136 532 l 132 529 l 132 522 l 136 525 l 136 514 l 132 513 l 132 506 l 136 507 l 136 497 l 132 496 l 132 488 l 136 490 l 136 479 l 133 478 l 133 471 l 136 472 l 136 463 l 133 461 l 133 453 l 136 456 l 136 444 l 133 443 l 133 436 l 136 438 l 136 428 l 133 426 l 133 419 l 136 421 l 136 410 l 133 408 l 133 401 l 136 403 l 136 393 l 133 392 l 133 385 l 136 386 l 136 375 l 133 374 l 133 372 l 65 372 l 65 365 l 136 365 l 136 358 l 133 357 l 133 350 l 136 351 l 136 340 l 133 339 l 133 332 l 136 333 l 136 324 l 133 322 l 133 315 l 136 317 l 136 306 l 133 306 l 133 297 l 136 299 l 136 289 l 133 288 l 133 281 l 136 282 l 136 271 l 135 271 l 135 253 l 135 251 b 133 240 135 247 133 244 b 136 211 133 231 135 221 l 136 107 l -7 107 l -7 101 l 136 101 l 136 -3 l 63 -3 l 63 -11 l 136 -11 l 136 -151 l 142 -151 l 142 -11 l 261 -11 l 261 -201 l 268 -201 l 268 -11 l 314 -11 b 340 -17 322 -14 332 -15 l 285 -17 l 285 -25 l 525 -25 l 525 -206 l 532 -206 l 532 -11 l 656 -11 l 656 -153 l 664 -153 l 664 -11 l 757 -11 l 757 -3 l 664 -3 l 664 101 l 764 101 l 764 107 l 664 107 l 664 365 l 760 365 l 760 372 l 664 372 l 664 431 l 656 431 l 656 372 l 625 372 b 589 422 615 390 603 407 b 658 601 632 469 658 532 b 619 739 658 653 644 699 l 771 739 l 771 747 l 615 747 b 532 826 594 779 565 806 l 532 858 l 760 858 l 792 858 l 792 864 l 760 864 l 532 864 l 532 1063 l 525 1063 l 525 864 l 394 864 l 268 864 l 268 1067 l 261 1067 l 261 864 l 142 864 l 142 1008 z m 204 772 l 261 806 l 261 796 l 189 753 b 204 772 194 760 199 767 z m 268 810 l 342 851 b 365 856 350 853 357 854 l 268 800 z m 221 789 b 261 819 233 800 247 811 l 261 813 z m 268 817 l 268 824 b 319 846 283 833 301 840 z m 189 747 l 261 788 l 261 778 l 207 747 z m 268 792 l 381 857 b 394 858 386 857 389 858 l 396 858 b 399 857 397 858 397 857 l 268 782 z m 207 739 l 225 739 l 158 701 b 165 715 160 706 163 711 z m 219 747 l 261 771 l 261 761 l 236 747 z m 268 775 l 410 857 b 425 856 415 857 419 856 l 268 765 z m 194 739 l 171 725 b 179 739 174 729 176 735 z m 238 739 l 254 739 l 150 679 b 156 692 151 683 154 688 z m 249 747 l 261 753 l 261 747 z m 268 757 l 436 854 b 449 851 440 853 444 853 l 268 747 z m 471 858 l 489 858 l 478 851 b 467 854 474 853 471 853 z m 261 736 l 261 726 l 144 658 l 149 671 z m 279 747 l 458 850 b 469 847 463 849 465 849 l 297 747 z m 501 858 l 518 858 l 496 844 b 486 849 493 846 490 847 z m 261 718 l 261 708 l 142 640 l 142 646 b 143 650 142 647 143 649 z m 310 747 l 478 844 b 489 840 482 843 485 842 l 326 747 z m 297 739 l 315 739 b 268 713 300 731 283 721 l 268 722 z m 285 739 l 268 731 l 268 739 z m 525 854 l 525 844 l 513 838 b 503 842 510 839 506 840 z m 261 701 l 261 692 l 142 622 l 142 632 z m 339 747 l 496 838 b 506 833 499 836 503 835 l 357 747 z m 328 739 l 344 739 l 268 696 l 268 706 z m 525 836 l 525 831 b 519 833 524 832 521 832 z m 261 683 l 261 674 l 142 606 l 142 615 z m 369 747 l 513 829 l 521 825 l 388 747 l 383 747 z m 301 707 b 285 688 296 701 289 694 l 268 678 l 268 688 z m 400 747 l 525 819 l 525 810 l 417 747 l 411 747 z m 261 667 l 261 657 l 142 588 l 142 597 z m 278 676 b 272 663 275 672 274 667 l 268 661 l 268 671 z m 429 747 l 525 801 l 525 792 l 447 747 z m 261 649 l 261 639 l 142 571 l 142 581 z m 460 747 l 525 785 l 525 775 l 476 747 z m 261 632 l 261 622 l 143 553 b 142 556 143 554 142 554 l 142 563 z m 489 747 l 525 767 l 525 757 l 507 747 z m 144 547 l 261 614 l 261 604 l 146 538 b 144 547 144 540 144 544 z m 519 747 l 525 750 l 525 747 z m 149 532 l 261 597 l 261 588 l 150 524 b 149 532 149 526 150 529 z m 146 514 l 150 506 l 142 501 l 142 511 z m 153 517 l 261 579 l 261 569 l 156 508 b 153 517 154 511 154 514 z m 144 519 l 142 518 l 142 526 b 144 519 142 524 143 522 z m 151 499 b 156 492 153 496 154 494 l 142 483 l 142 493 z m 158 503 l 261 563 l 261 553 l 161 494 b 158 503 160 497 160 500 z m 158 486 l 163 478 l 142 467 l 142 476 z m 164 489 l 261 544 l 261 535 l 168 481 z m 165 472 l 169 464 l 142 449 l 142 458 z m 171 475 l 261 528 l 261 518 l 175 468 b 171 475 174 471 172 472 z m 172 460 b 178 451 174 457 176 454 l 142 432 l 142 442 z m 179 463 l 261 510 l 261 500 l 183 456 b 179 463 182 458 181 460 z m 182 447 b 186 440 183 444 185 443 l 142 414 l 142 424 z m 188 450 l 261 493 l 261 483 l 193 443 b 188 450 192 446 189 447 z m 190 435 b 196 428 192 432 194 431 l 142 397 l 142 407 z m 197 439 l 261 475 l 261 465 l 203 432 b 197 439 201 435 199 436 z m 200 424 l 204 419 b 197 411 201 417 200 414 l 142 379 l 142 389 z m 207 426 l 219 433 l 210 424 z m 329 488 l 268 453 l 268 461 b 329 488 288 472 308 482 z m 261 449 l 218 424 b 261 457 231 436 246 447 z m 211 413 b 218 406 214 410 215 407 l 189 389 b 203 407 193 396 197 401 z m 143 372 l 186 397 b 175 381 182 392 179 386 l 161 372 z m 342 488 b 353 483 344 486 349 485 l 268 435 l 268 444 z m 261 440 l 261 431 l 225 410 b 218 415 222 411 221 413 z m 350 492 b 372 496 357 493 364 494 l 360 488 b 350 492 356 489 354 490 z m 142 363 l 142 365 l 149 365 z m 224 401 b 231 396 226 400 228 397 l 192 372 l 178 372 b 181 376 179 374 179 375 z m 142 354 b 161 365 149 358 154 361 l 165 365 b 160 356 164 361 161 360 l 142 344 z m 360 481 b 372 478 364 479 368 479 l 268 418 l 268 428 z m 261 424 l 261 414 l 236 399 b 229 406 233 400 232 404 z m 386 496 b 397 497 390 496 393 497 b 404 496 400 497 401 496 l 382 483 b 369 486 378 483 374 485 z m 179 365 l 171 361 b 174 365 172 363 172 364 z m 236 392 b 243 386 239 390 240 388 l 221 372 l 204 372 z m 192 365 l 208 365 l 160 338 b 167 351 161 342 164 347 z m 142 338 l 156 346 b 150 332 154 342 151 336 l 142 328 z m 382 476 b 396 475 388 476 392 475 l 268 400 l 268 410 z m 261 406 l 261 396 l 250 389 b 242 394 247 390 244 393 z m 417 496 b 431 494 422 496 425 494 l 413 483 l 397 483 l 393 483 z m 249 382 b 257 376 251 381 254 378 l 251 372 l 233 372 z m 221 365 l 239 365 l 153 315 l 157 328 z m 142 319 l 147 322 b 143 311 146 318 144 315 l 142 310 z m 413 476 b 440 483 422 478 431 481 l 268 383 l 268 393 z m 261 389 l 261 382 b 256 386 260 383 257 385 z m 440 493 b 446 492 442 493 444 492 b 431 488 440 490 436 489 z m 251 365 l 261 365 l 261 361 l 147 294 b 150 307 149 299 149 303 z m 463 488 b 475 485 467 486 471 486 l 281 372 l 278 372 b 271 376 275 374 274 375 z m 146 288 l 261 354 l 261 344 l 143 276 b 146 288 143 281 146 283 z m 268 358 l 279 364 b 289 360 282 363 286 361 l 268 349 z m 482 482 b 493 478 486 481 489 479 l 311 372 l 293 372 z m 296 364 b 292 365 294 364 293 365 l 299 365 z m 142 268 l 261 336 l 261 326 l 142 258 z m 268 340 l 296 357 b 307 353 300 356 303 354 l 268 331 z m 500 475 b 510 471 503 474 507 472 l 340 372 l 324 372 z m 303 361 l 311 365 l 329 365 l 314 357 b 303 361 310 358 307 360 z m 142 250 l 261 319 l 261 310 l 142 240 z m 268 324 l 314 350 b 321 349 317 350 318 349 b 303 333 314 344 308 339 l 268 314 z m 517 467 l 525 463 l 371 372 l 353 372 z m 322 354 l 342 365 l 357 365 b 328 353 347 363 336 358 b 322 354 326 353 324 354 z m 525 454 l 525 444 l 401 372 l 383 372 z m 142 233 l 261 301 l 261 292 l 142 224 z m 268 306 l 289 318 b 279 301 285 313 282 307 l 268 296 z m 142 215 l 261 285 l 261 275 l 143 206 b 142 211 143 207 142 210 z m 268 289 l 274 292 b 268 279 272 288 269 283 z m 546 450 b 553 443 549 449 550 444 l 532 432 l 532 442 z m 525 438 l 525 428 l 431 372 l 414 372 z m 540 453 l 532 449 l 532 458 b 540 453 535 457 538 454 z m 144 200 l 261 267 l 261 257 l 146 190 b 144 200 146 193 144 197 z m 558 440 b 565 433 561 439 563 435 l 532 414 l 532 424 z m 525 419 l 525 410 l 461 372 l 443 372 z m 147 183 l 261 250 l 261 240 l 149 175 b 147 183 147 178 147 181 z m 571 429 b 578 422 574 428 575 425 l 532 397 l 532 407 z m 525 403 l 525 393 l 490 372 l 474 372 z m 461 365 l 479 365 l 461 356 b 453 361 458 357 456 360 z m 449 365 l 444 364 b 439 365 442 365 442 364 z m 151 168 l 261 232 l 261 222 l 154 160 b 151 168 153 163 153 165 z m 565 408 b 532 383 556 399 543 390 l 532 389 z m 525 385 l 525 379 b 513 372 521 376 517 375 l 503 372 z m 492 365 l 499 365 b 478 358 492 363 485 361 z m 521 365 l 525 365 l 525 358 l 489 338 b 482 343 486 340 485 342 z m 533 372 l 592 407 b 599 400 593 404 597 403 l 551 372 z m 490 356 l 476 347 b 474 349 475 349 475 347 b 490 356 479 350 485 353 z m 588 411 l 561 396 b 583 417 569 403 576 410 b 588 411 585 415 586 413 z m 156 154 l 261 215 l 261 206 l 158 146 b 156 154 157 149 157 151 z m 493 332 l 525 350 l 525 340 l 500 326 b 493 332 499 329 496 329 z m 532 354 l 551 365 l 568 365 l 532 344 z m 564 372 l 601 396 b 607 388 603 393 606 390 l 581 372 z m 532 363 l 532 365 l 539 365 z m 161 140 l 261 197 l 261 188 l 165 132 z m 504 321 l 525 333 l 525 324 l 508 314 b 504 321 507 317 506 318 z m 532 338 l 581 365 l 599 365 l 532 328 z m 593 372 l 611 383 l 615 375 l 611 372 z m 269 192 l 268 192 l 268 196 b 269 192 268 194 269 193 z m 167 126 l 261 181 l 261 171 l 171 118 z m 271 186 l 275 178 l 268 175 l 268 185 z m 513 308 l 525 315 l 525 306 l 517 301 b 513 308 515 304 514 306 z m 532 319 l 611 365 l 621 365 b 624 363 621 364 624 364 l 532 310 z m 278 172 b 282 165 279 169 281 168 l 268 157 l 268 167 z m 519 296 l 525 299 l 525 289 l 524 288 z m 532 303 l 626 357 b 629 349 628 354 628 351 l 532 293 z m 182 100 l 185 101 l 201 101 l 188 93 b 182 100 186 96 183 97 z m 285 160 b 290 153 286 157 289 156 l 268 140 l 268 150 z m 532 285 l 632 343 l 636 335 l 532 275 z m 190 88 l 215 101 l 232 101 l 196 81 b 190 88 194 83 192 85 z m 294 147 b 300 142 296 144 297 144 l 268 122 l 268 132 z m 532 268 l 638 329 l 642 321 l 532 258 z m 200 76 l 244 101 l 261 101 l 206 69 b 200 76 204 72 201 74 z m 306 136 b 313 131 308 133 310 132 l 271 107 l 268 107 l 268 115 z m 532 251 l 643 315 b 646 306 644 313 644 308 l 533 242 b 532 251 533 244 532 249 z m 210 64 l 261 93 l 261 83 l 217 58 b 210 64 214 61 211 61 z m 533 233 l 647 300 b 649 290 649 297 649 293 l 533 224 z m 221 53 l 261 76 l 261 67 l 228 47 b 221 53 225 49 224 50 z m 532 215 l 650 285 b 651 275 650 282 651 278 l 532 206 z m 233 43 l 261 58 l 261 49 l 240 38 b 233 43 238 39 236 42 z m 532 199 l 653 268 b 654 258 653 265 654 261 l 532 189 z m 246 33 l 261 42 l 261 32 l 254 28 b 246 33 251 29 249 32 z m 532 181 l 654 251 l 654 242 l 532 171 z m 525 176 l 525 167 l 507 157 b 518 172 511 163 515 167 z m 525 185 l 522 183 b 525 190 524 186 524 188 z m 260 24 l 261 24 l 261 22 z m 393 100 l 397 100 b 411 101 401 100 407 101 l 268 18 l 268 28 z m 532 164 l 654 235 l 654 224 l 532 154 z m 525 160 l 525 150 l 451 107 l 440 107 b 496 143 461 114 481 128 z m 532 146 l 653 217 b 651 206 653 213 651 210 l 532 136 z m 532 129 l 651 197 b 649 186 651 193 650 190 l 532 119 z m 532 94 l 544 101 l 561 101 l 532 85 z m 351 -11 l 368 -11 l 363 -14 b 349 -12 358 -14 353 -14 z m 525 90 l 525 81 l 381 -3 l 364 -3 z m 532 76 l 575 101 l 592 101 l 532 67 z m 381 -11 l 399 -11 l 388 -17 b 372 -15 382 -17 378 -15 z m 525 72 l 525 63 l 411 -3 l 393 -3 z m 532 60 l 606 101 l 614 101 b 608 93 613 99 611 96 l 532 50 z m 411 -11 l 429 -11 l 419 -15 b 400 -17 413 -15 407 -17 z m 525 56 l 525 46 l 440 -3 l 424 -3 z m 532 42 l 599 81 b 581 60 593 74 588 67 l 532 32 z m 442 -11 l 454 -11 b 435 -14 447 -12 442 -12 z m 525 38 l 525 28 l 471 -3 l 453 -3 z m 532 25 l 560 40 b 532 21 551 33 542 26 z m 489 0 l 525 21 l 525 17 b 489 0 514 10 501 4 z "},"7":{"ha":729,"x_min":0,"x_max":0,"o":"m 40 3 l 40 722 l 443 722 l 125 3 z m 167 3 l 340 104 l 333 89 l 186 3 z m 156 3 l 138 3 l 351 128 l 344 113 z m 197 3 l 331 81 l 324 65 l 217 3 z m 226 3 l 319 57 l 314 43 l 246 3 z m 257 3 l 310 33 l 303 19 l 276 3 z m 288 3 l 299 11 l 296 3 z m 481 722 l 499 722 l 435 686 l 442 700 z m 492 731 l 661 828 l 654 813 l 511 731 z m 469 722 l 444 710 l 451 722 z m 481 731 l 463 731 l 671 851 l 665 836 z m 510 722 l 529 722 l 425 663 l 431 678 z m 522 731 l 651 804 l 644 790 l 540 731 z m 540 722 l 558 722 l 414 639 l 421 654 z m 551 731 l 640 781 l 633 767 l 571 731 z m 569 722 l 589 722 l 404 615 l 410 631 z m 582 731 l 631 758 l 624 743 l 601 731 z m 600 722 l 615 722 l 613 719 l 393 592 l 400 607 z m 613 731 l 619 735 l 618 731 z m 610 711 l 603 696 l 383 569 l 389 583 z m 599 688 l 593 674 l 372 546 l 379 560 z m 589 664 l 582 650 l 363 522 l 369 538 z m 578 640 l 572 626 l 351 499 l 358 514 z m 568 618 l 561 603 l 342 475 l 349 490 z m 557 594 l 551 579 l 332 453 l 338 467 z m 547 571 l 540 556 l 321 429 l 328 443 z m 538 547 l 531 533 l 311 406 l 317 421 z m 526 524 l 519 510 l 300 382 l 307 397 z m 517 501 l 510 486 l 290 358 l 296 374 z m 506 478 l 500 463 l 279 336 l 286 350 z m 496 454 l 489 439 l 269 313 l 276 326 z m 485 431 l 479 417 l 258 289 l 265 304 z m 475 407 l 468 393 l 249 265 l 256 281 z m 464 385 l 458 369 l 239 242 l 244 257 z m 454 361 l 447 346 l 228 218 l 235 233 z m 444 338 l 438 322 l 218 196 l 224 210 z m 433 314 l 426 300 l 207 172 l 214 186 z m 424 290 l 417 276 l 197 149 l 203 164 z m 413 267 l 407 253 l 186 125 l 193 140 z m 403 244 l 396 229 l 176 101 l 183 117 z m 392 221 l 386 206 l 165 79 l 172 93 z m 382 197 l 375 182 l 156 56 l 163 69 z m 371 174 l 365 160 l 146 32 l 151 47 z m 361 150 l 354 136 l 135 8 l 142 24 z m 43 731 l 275 864 l 294 864 l 61 731 z m 72 731 l 306 864 l 324 864 l 92 731 z m 103 731 l 335 864 l 354 864 l 121 731 z m 132 731 l 365 864 l 383 864 l 151 731 z m 163 731 l 394 864 l 414 864 l 181 731 z m 192 731 l 425 864 l 443 864 l 211 731 z m 222 731 l 454 864 l 474 864 l 242 731 z m 253 731 l 485 864 l 504 864 l 271 731 z m 282 731 l 503 858 l 497 843 l 301 731 z m 515 864 l 533 864 l 507 849 l 514 864 z m 313 731 l 493 835 l 486 819 l 331 731 z m 544 864 l 564 864 l 497 826 l 503 840 z m 342 731 l 483 811 l 476 797 l 361 731 z m 575 864 l 593 864 l 486 803 l 493 817 z m 372 731 l 472 788 l 465 774 l 392 731 z m 604 864 l 624 864 l 476 779 l 483 794 z m 401 731 l 463 765 l 456 750 l 421 731 z m 635 864 l 654 864 l 465 756 l 472 771 z m 432 731 l 451 742 l 447 731 z m 665 864 l 678 864 l 675 860 l 456 732 l 463 747 z m 35 864 l 40 864 l 51 864 l 40 858 l 40 864 l 51 864 l 54 864 l 40 840 l 40 851 z m 65 864 l 85 864 l 40 824 l 40 833 z m 96 864 l 114 864 l 40 806 l 40 817 z m 125 864 l 144 864 l 40 789 l 40 799 z m 156 864 l 174 864 l 40 771 l 40 782 z m 185 864 l 204 864 l 40 754 l 40 764 z m 215 864 l 233 864 l 40 736 l 40 747 z m 106 774 l 244 864 l 264 864 z m 33 731 l 32 731 l -3 731 l -3 722 l 33 722 l 33 3 l -56 3 l -56 -3 l 33 -3 l 33 -71 l 40 -71 l 40 -3 l 122 -3 l 50 -165 l 57 -168 l 129 -3 l 293 -3 l 219 -171 l 225 -174 l 300 -3 l 614 -3 l 614 3 l 304 3 l 622 722 l 729 722 l 729 731 l 625 731 l 685 864 l 728 864 l 728 872 l 688 872 l 746 1003 l 739 1006 l 681 872 l 517 872 l 576 1007 l 571 1010 l 510 872 l 40 872 l 40 963 l 33 963 l 33 872 l 11 872 l 11 864 l 33 864 z "},"8":{"ha":792,"x_min":0,"x_max":0,"o":"m 524 36 l 563 58 b 524 29 551 47 538 38 z m 517 50 l 517 39 l 454 3 l 438 3 z m 417 -8 l 425 -3 l 443 -3 l 440 -6 b 417 -8 432 -7 425 -7 z m 524 53 l 594 94 b 578 75 589 88 583 81 l 524 43 z m 517 67 l 517 57 l 425 3 l 407 3 z m 396 -3 l 413 -3 l 401 -10 b 388 -11 397 -10 392 -11 b 383 -10 386 -11 385 -10 z m 524 71 l 588 108 l 604 108 l 603 106 l 524 61 z m 517 85 l 517 74 l 394 3 l 378 3 z m 365 -3 l 383 -3 l 372 -10 b 357 -8 367 -10 363 -8 z m 524 88 l 560 108 l 576 108 l 524 78 z m 517 101 l 517 92 l 365 3 l 347 3 z m 335 -3 l 353 -3 l 346 -7 b 333 -4 342 -6 338 -6 z m 524 106 l 528 108 l 546 108 l 524 96 z m 524 140 l 642 208 b 639 197 642 204 640 201 l 524 131 z m 524 157 l 642 226 l 642 218 l 642 217 l 524 147 z m 517 171 l 517 161 l 457 126 b 493 157 471 135 483 144 z m 524 175 l 642 243 l 642 233 l 524 165 z m 517 189 l 517 178 l 501 169 b 510 185 504 174 507 179 z m 524 192 l 642 261 l 642 251 l 524 182 z m 517 196 l 514 194 b 517 201 515 197 515 199 z m 253 36 l 253 28 b 246 32 250 29 249 31 z m 376 107 l 388 107 l 394 107 l 260 29 l 260 39 z m 642 278 l 642 275 l 642 268 l 524 200 l 524 210 z m 253 53 l 253 43 l 240 36 b 233 42 238 38 236 40 z m 639 294 b 642 285 639 292 642 288 l 524 217 l 524 226 z m 253 71 l 253 60 l 228 46 b 221 51 225 47 224 50 z m 636 310 b 638 300 638 307 638 303 l 524 235 l 524 244 z m 253 88 l 253 78 l 215 56 b 208 63 213 57 211 60 z m 632 325 b 635 315 633 322 633 318 l 524 251 l 524 261 z m 253 106 l 253 94 l 204 67 b 197 74 201 69 199 71 z m 626 339 b 629 331 628 336 628 333 l 524 269 l 524 279 z m 293 146 b 300 139 296 143 297 140 l 260 117 l 260 126 z m 514 292 l 517 293 l 517 283 b 514 292 515 286 515 289 z m 621 353 l 625 344 l 524 286 l 524 296 z m 282 157 b 288 150 283 154 286 153 l 260 133 l 260 143 z m 508 304 l 517 310 l 517 300 l 511 297 b 508 304 510 300 510 301 z m 614 367 l 618 358 l 524 304 l 524 314 z m 274 169 l 278 161 l 260 151 l 260 161 z m 500 318 l 517 328 l 517 317 l 506 310 b 500 318 504 313 501 315 z m 593 372 l 611 372 l 524 321 l 524 331 z m 253 175 l 253 164 l 167 114 l 163 122 z m 265 182 l 269 174 l 260 168 l 260 178 z m 492 329 l 517 344 l 517 335 l 497 322 b 492 329 496 325 493 326 z m 575 379 l 599 392 b 603 385 600 389 601 388 l 593 379 z m 564 372 l 581 372 l 524 339 l 524 349 z m 253 192 l 253 182 l 160 128 l 156 136 z m 260 196 b 263 188 261 193 261 190 l 260 186 z m 481 342 l 517 363 l 517 351 l 488 335 b 481 342 486 338 483 340 z m 546 379 l 589 404 b 594 397 590 401 593 400 l 563 379 z m 533 372 l 551 372 l 524 356 l 524 365 z m 253 210 l 253 199 l 153 142 b 150 149 151 144 151 146 z m 468 351 l 504 372 l 517 372 l 517 369 b 476 346 503 361 490 354 b 468 351 474 347 471 350 z m 524 383 l 579 415 b 586 410 581 413 585 413 l 533 379 l 524 379 z m 253 226 l 253 224 l 253 217 l 147 156 b 144 164 146 158 146 161 z m 454 361 b 474 372 461 365 467 368 l 492 372 l 463 356 b 454 361 460 357 457 360 z m 558 421 l 569 428 b 575 421 572 425 574 424 l 524 390 l 524 396 b 558 421 536 403 547 411 z m 449 364 b 450 365 449 364 450 365 z m 251 243 l 251 233 l 142 169 b 140 178 140 172 142 175 z m 442 371 l 443 372 l 447 372 b 442 371 446 372 443 371 z m 524 418 l 558 438 l 563 433 b 551 424 558 431 556 426 l 524 408 z m 456 379 l 517 414 l 517 404 l 476 381 b 471 379 475 381 472 379 z m 564 442 l 578 450 b 568 439 575 446 572 443 b 564 442 567 440 565 440 z m 431 372 l 431 371 l 429 372 z m 253 261 b 251 250 253 257 251 254 l 138 185 b 136 193 136 188 136 190 z m 524 435 l 546 449 b 553 442 549 447 550 443 l 524 425 z m 425 379 l 517 432 l 517 421 l 443 379 z m 553 451 l 601 481 b 590 464 597 475 594 469 l 560 446 b 553 451 557 447 556 450 z m 253 279 l 253 268 l 135 200 b 133 210 135 203 133 207 z m 524 453 l 532 458 b 540 453 535 457 538 454 l 524 443 z m 396 379 l 517 449 l 517 439 l 413 379 z m 597 496 l 617 507 b 611 496 615 503 614 500 z m 539 461 l 585 489 l 603 489 l 547 456 b 539 461 544 457 542 460 z m 524 460 l 524 464 b 526 461 525 464 525 461 z m 260 300 l 265 303 b 260 290 263 299 261 294 z m 253 296 l 253 286 l 132 217 l 132 225 z m 365 379 l 517 467 l 517 456 l 383 379 z m 567 496 l 628 531 b 622 517 626 526 624 521 l 585 496 z m 525 471 l 556 489 l 572 489 l 533 465 b 525 471 531 467 528 469 z m 260 317 l 285 332 b 272 314 281 326 276 321 l 260 307 z m 253 314 l 253 303 l 131 232 l 131 243 z m 342 372 l 338 369 b 328 372 335 369 331 371 z m 317 367 b 328 364 321 365 324 365 b 306 350 319 360 313 356 l 260 325 l 260 335 z m 253 331 l 253 321 l 131 250 l 131 260 z m 336 379 l 503 475 b 513 471 506 474 510 472 l 353 379 z m 538 496 l 635 551 l 631 539 l 554 496 z m 510 479 l 517 483 l 517 476 b 510 479 514 478 513 478 z m 524 488 l 525 489 l 543 489 l 524 478 z m 293 372 l 303 372 b 308 369 304 372 307 369 l 260 342 l 260 351 z m 253 349 l 253 338 l 132 268 l 132 278 z m 306 379 l 486 483 b 496 479 489 482 493 481 l 324 379 z m 517 501 l 517 496 l 507 496 z m 639 572 b 636 560 638 568 638 564 l 525 496 l 524 496 l 524 504 z m 496 489 l 513 489 b 503 483 510 488 506 485 b 493 488 500 485 496 486 z m 264 372 l 281 372 l 260 360 l 260 369 z m 276 379 l 279 381 b 285 379 281 379 283 379 z m 253 365 l 253 356 l 133 286 b 136 297 133 290 135 293 z m 286 385 l 465 489 l 472 489 b 479 486 474 488 478 488 l 297 381 b 286 385 293 382 289 383 z m 517 518 l 517 508 l 494 496 l 478 496 z m 642 590 b 640 579 642 586 640 583 l 524 513 l 524 522 z m 260 386 l 263 389 b 272 383 265 388 269 385 l 264 379 l 260 379 z m 246 379 l 253 383 l 253 379 z m 233 372 l 251 372 l 138 306 b 140 318 139 310 139 314 z m 271 393 l 435 489 l 453 489 l 279 388 b 271 393 276 389 274 392 z m 517 536 l 517 525 l 468 497 b 457 500 464 499 461 499 z m 642 608 l 642 599 l 524 529 l 524 539 z m 439 497 l 435 496 l 428 496 b 436 499 431 497 433 497 b 439 497 438 499 438 497 z m 517 553 l 517 543 l 464 513 b 492 539 475 519 483 529 z m 642 625 l 642 615 l 524 547 l 524 557 z m 215 379 l 249 397 b 253 394 250 396 251 396 l 253 390 l 233 379 z m 204 372 l 221 372 l 143 326 b 149 339 144 331 147 335 z m 260 404 l 406 489 l 422 489 l 264 396 b 260 399 263 397 261 397 z m 517 571 l 517 560 l 501 551 b 510 567 504 556 507 561 z m 642 643 l 642 633 l 524 564 l 524 574 z m 517 578 l 514 576 b 517 583 515 579 515 581 z m 186 379 l 235 407 b 242 401 238 406 239 403 l 203 379 z m 174 372 l 192 372 l 151 349 b 158 363 153 353 156 358 z m 260 421 l 375 489 l 393 489 l 260 411 z m 240 411 l 253 418 l 253 407 l 249 406 b 240 411 246 407 243 410 z m 642 660 l 642 650 l 524 582 l 524 592 z m 174 389 l 221 417 b 229 411 224 415 226 413 l 174 379 l 167 379 b 174 389 169 383 171 386 z m 260 439 l 346 489 l 363 489 l 260 429 z m 228 421 l 253 435 l 253 425 l 235 414 b 228 421 232 415 231 419 z m 638 675 b 640 667 638 672 640 669 l 524 599 l 524 608 z m 260 464 l 260 469 b 301 489 274 478 286 483 l 303 489 z m 218 439 b 253 465 229 449 240 458 l 253 460 z m 200 421 l 210 426 b 217 421 213 424 214 422 l 183 401 b 200 421 189 408 194 414 z m 344 496 b 338 499 344 496 335 499 z m 260 456 l 315 489 l 333 489 l 260 446 z m 215 431 l 253 453 l 253 442 l 222 425 b 215 431 219 426 218 429 z m 635 690 b 636 682 636 688 635 685 l 524 617 l 524 626 z m 260 481 l 260 489 l 272 489 z m 204 442 l 222 451 b 207 439 217 447 213 443 z m 297 496 l 318 507 b 328 503 321 506 325 504 b 300 496 318 500 308 499 z m 629 706 b 632 697 631 703 631 700 l 524 633 l 524 643 z m 193 453 l 253 488 l 253 476 l 200 446 b 193 453 199 449 194 450 z m 267 496 l 304 517 b 313 511 307 515 310 513 l 285 496 z m 625 719 b 628 711 626 717 626 714 l 524 651 l 524 661 z m 225 489 l 243 489 l 190 457 b 185 464 189 460 186 461 z m 253 504 l 253 496 l 238 496 z m 293 528 b 300 521 296 525 297 522 l 260 499 l 260 508 z m 514 674 l 517 675 l 517 665 b 514 674 515 668 515 671 z m 618 733 l 622 725 l 524 668 l 524 678 z m 183 489 l 172 482 b 168 489 171 485 169 486 z m 196 489 l 213 489 l 181 469 b 175 476 179 472 176 474 z m 253 522 l 253 511 l 225 496 l 207 496 z m 282 539 b 288 532 283 536 286 535 l 260 515 l 260 525 z m 508 686 l 517 692 l 517 682 l 511 679 b 508 686 510 682 510 683 z m 611 747 l 615 739 l 524 686 l 524 696 z m 253 539 l 253 529 l 194 496 l 178 496 z m 274 551 l 278 543 l 260 533 l 260 543 z m 500 700 l 517 710 l 517 699 l 506 692 b 500 700 504 694 501 697 z m 253 557 l 253 546 l 165 496 l 164 496 b 160 503 163 499 161 500 z m 265 564 l 269 556 l 260 550 l 260 560 z m 492 713 l 517 726 l 517 717 l 497 706 b 492 713 496 708 493 710 z m 253 574 l 253 564 l 157 508 b 153 515 156 511 154 513 z m 260 578 b 263 569 261 575 261 572 l 260 568 z m 481 724 l 517 744 l 517 733 l 488 717 b 481 724 486 719 483 722 z m 253 592 l 253 581 l 150 522 b 147 531 149 525 149 528 z m 468 733 l 506 754 l 517 754 l 517 751 l 476 728 b 468 733 474 729 471 732 z m 576 796 b 582 789 578 793 581 792 l 532 760 l 524 760 l 524 765 z m 253 608 l 253 606 l 253 599 l 144 536 b 142 544 143 539 143 542 z m 454 743 l 474 754 l 493 754 l 463 738 b 454 743 460 739 457 742 z m 565 807 b 571 800 568 804 568 803 l 524 772 l 524 782 z m 251 625 l 251 615 l 140 550 b 138 560 139 553 139 557 z m 439 750 l 446 754 l 463 754 l 449 746 b 439 750 446 747 442 749 z m 553 817 b 560 811 556 815 557 813 l 524 790 l 524 800 z m 253 643 b 251 632 253 639 251 636 l 136 565 b 135 575 136 568 135 572 z m 540 828 b 549 821 543 826 546 822 l 524 807 l 524 817 z m 253 661 l 253 650 l 133 582 b 132 590 133 585 132 588 z m 526 836 b 535 831 529 835 532 832 l 524 825 l 524 835 z m 260 682 l 265 685 b 260 672 263 681 261 676 z m 253 678 l 253 668 l 132 597 b 131 607 132 600 131 604 z m 260 699 l 285 714 b 272 696 281 708 276 701 l 260 689 z m 253 696 l 253 685 l 131 614 l 131 621 l 131 625 z m 260 717 l 325 754 l 343 754 l 336 750 b 304 732 325 746 314 739 l 260 707 z m 253 713 l 253 703 l 131 632 b 132 642 131 636 132 638 z m 260 733 l 296 754 l 313 754 l 260 724 z m 253 731 l 253 719 l 132 650 b 133 661 132 654 133 657 z m 260 751 l 265 754 l 282 754 l 260 742 z m 253 747 l 253 738 l 135 669 b 138 681 136 674 136 676 z m 260 786 l 396 864 l 413 864 l 260 776 z m 407 872 l 415 876 b 429 875 419 876 425 876 l 425 872 z m 260 803 l 365 864 l 383 864 l 260 793 z m 378 872 l 389 878 l 406 878 l 394 872 z m 335 872 l 331 872 b 338 874 333 872 335 874 z m 260 821 l 336 864 l 353 864 l 260 811 z m 347 872 l 356 876 b 375 878 363 878 368 878 l 365 872 z m 253 817 l 253 807 l 171 760 l 171 760 b 182 776 175 765 178 771 z m 260 838 l 306 864 l 324 864 l 260 828 z m 253 835 l 253 824 l 193 790 b 217 814 200 799 208 807 z m 650 -154 l 650 -3 l 764 -3 l 764 3 l 650 3 l 650 108 l 764 108 l 764 114 l 650 114 l 650 218 b 651 246 651 228 651 236 b 650 275 651 256 651 265 l 650 372 l 719 372 l 719 379 l 650 379 l 650 489 l 719 489 l 719 496 l 650 496 l 650 593 b 651 621 651 603 651 611 b 650 650 651 631 651 640 l 650 754 l 764 754 l 764 760 l 650 760 l 650 864 l 722 864 l 722 872 l 650 872 l 650 1006 l 642 1006 l 642 872 l 524 872 l 524 1056 l 517 1056 l 517 872 l 471 872 b 444 878 463 875 453 876 l 500 878 l 500 886 l 260 886 l 260 1061 l 253 1061 l 253 872 l 128 872 l 128 1007 l 122 1007 l 122 872 l 28 872 l 28 864 l 122 864 l 122 760 l -7 760 l -7 754 l 122 754 l 122 496 l 25 496 l 25 489 l 122 489 l 122 379 l 25 379 l 25 372 l 122 372 l 122 114 l -7 114 l -7 108 l 122 108 l 122 3 l -7 3 l -7 -3 l 122 -3 l 122 -153 l 128 -153 l 128 -3 l 253 -3 l 253 -208 l 260 -208 l 260 -17 l 388 -17 l 500 -17 l 500 -11 l 447 -11 b 472 -3 456 -10 464 -6 l 517 -3 l 517 -214 l 524 -214 l 524 -3 l 642 -3 l 642 -154 z m 642 489 l 642 379 l 615 379 b 572 433 604 400 589 417 b 615 489 589 450 604 469 z m 642 496 l 619 496 b 642 554 629 514 636 533 z m 253 3 l 128 3 l 128 108 l 161 108 b 253 19 185 72 215 42 z m 260 3 l 260 15 l 285 3 z m 524 3 l 524 21 b 611 108 560 43 590 72 l 642 108 l 642 3 z m 517 3 l 490 3 b 517 17 500 7 508 13 z m 260 -3 l 303 -3 b 326 -11 311 -6 318 -10 l 260 -11 z m 128 496 l 128 571 b 156 496 133 544 143 519 z m 128 489 l 160 489 b 201 433 171 469 185 450 b 160 379 185 417 171 400 l 128 379 z m 260 878 l 329 878 b 304 872 321 876 313 875 l 260 872 z m 260 864 l 286 864 b 260 851 278 860 268 856 z m 524 864 l 642 864 l 642 760 l 611 760 b 524 847 589 796 560 826 z m 517 864 l 517 851 b 489 864 508 857 499 860 z m 642 313 b 619 372 636 333 629 354 l 642 372 z m 128 297 l 128 372 l 156 372 b 128 297 143 349 133 324 z m 471 3 l 467 3 l 517 32 l 517 25 b 471 3 503 17 488 8 z m 517 392 l 517 386 l 503 379 l 490 379 b 517 392 500 383 508 388 z m 353 367 b 388 372 364 369 375 372 b 422 367 400 372 411 369 b 388 364 411 365 399 364 b 353 367 376 364 364 365 z m 339 363 b 388 358 354 360 371 358 b 436 363 404 358 421 360 b 517 243 483 343 517 297 b 388 114 517 172 458 114 b 260 224 322 114 268 161 l 260 261 b 339 363 267 307 297 346 z m 260 643 b 388 754 268 706 322 754 b 517 625 458 754 517 696 b 436 506 517 571 483 525 b 388 510 421 508 404 510 b 339 506 371 510 354 508 b 260 607 297 522 267 561 z m 422 500 b 388 496 411 497 400 496 b 353 500 375 496 364 497 b 388 503 364 501 376 503 b 422 500 399 503 411 501 z m 172 108 l 186 108 l 175 101 z m 199 108 l 215 108 l 183 90 b 179 97 182 93 181 94 z m 229 108 l 246 108 l 193 78 b 188 85 192 81 189 82 z m 260 108 l 276 108 l 260 99 z m 289 108 l 306 108 l 260 82 l 260 92 z m 318 108 l 336 108 l 260 64 l 260 74 z m 350 108 l 367 108 l 260 47 l 260 57 z m 426 108 l 269 18 l 261 22 l 410 108 z m 438 108 l 457 108 l 286 10 b 276 14 283 11 279 13 z m 469 108 l 486 108 l 306 3 l 304 3 b 294 7 301 4 297 6 z m 497 108 l 517 108 l 335 3 l 318 3 z m 642 114 l 615 114 b 642 179 626 135 635 156 z m 158 114 l 128 114 l 128 196 b 158 114 133 167 143 139 z m 178 114 l 253 157 l 253 147 l 196 114 z m 208 114 l 253 140 l 253 129 l 225 114 z m 239 114 l 253 122 l 253 114 z m 269 114 l 304 135 b 313 129 307 133 310 131 l 286 114 z m 299 114 l 318 125 b 328 121 321 124 325 122 l 315 114 z m 328 114 l 335 118 b 346 114 339 117 342 115 z m 436 114 l 431 114 b 453 124 438 117 446 119 z m 447 114 l 517 154 l 517 143 l 467 114 z m 478 114 l 517 136 l 517 126 l 496 114 z m 524 114 l 524 122 l 638 189 b 635 176 636 185 636 181 l 526 114 z m 507 114 l 517 119 l 517 114 z m 556 114 l 538 114 l 632 168 l 628 156 z m 586 114 l 569 114 l 624 146 b 617 132 622 142 619 136 z m 607 114 l 597 114 l 611 122 z m 614 754 l 642 754 l 642 688 b 614 754 635 711 626 733 z m 128 754 l 158 754 b 128 672 144 729 133 701 z m 174 754 l 193 754 l 157 733 b 164 749 160 739 161 744 z m 206 754 l 222 754 l 146 710 b 151 724 147 714 150 719 z m 235 754 l 253 754 l 253 754 l 140 689 b 143 701 142 693 142 697 z m 426 754 l 433 754 l 431 753 b 426 754 429 753 428 754 z m 536 754 l 553 754 l 524 738 l 524 747 z m 564 754 l 582 754 l 524 721 l 524 731 z m 596 754 l 607 754 l 608 751 l 524 703 l 524 713 z m 128 760 l 128 864 l 253 864 l 253 849 b 163 760 215 826 185 796 z m 183 760 l 253 800 l 253 789 l 203 760 z m 215 760 l 253 782 l 253 772 l 232 760 z m 243 760 l 253 765 l 253 760 z m 260 760 l 260 768 l 425 864 l 443 864 l 263 760 z m 292 760 l 275 760 l 456 864 l 469 864 l 471 864 z m 322 760 l 306 760 l 479 861 b 489 857 482 860 486 858 z m 353 760 l 335 760 l 496 854 b 506 849 499 853 503 850 z m 371 760 l 364 760 l 513 846 b 517 843 514 844 515 844 l 517 838 l 383 761 b 371 760 379 761 375 761 z m 413 760 l 396 760 l 517 831 l 517 821 z m 443 760 l 425 760 l 517 814 l 517 803 z m 472 760 l 456 760 l 517 796 l 517 786 z m 503 760 l 483 760 l 517 779 l 517 768 z m 517 760 l 515 760 l 517 761 z m 546 760 l 586 783 b 592 776 588 781 590 779 l 563 760 z m 574 760 l 594 772 b 600 765 596 769 599 768 l 590 760 z "}," ":{"ha":726,"x_min":0,"x_max":0,"o":""},"&":{"ha":975,"x_min":0,"x_max":0,"o":"m 315 428 b 315 428 315 428 315 428 z m 329 -24 l 329 -24 b 335 -25 332 -24 333 -25 l 303 -25 l 310 -18 b 329 -24 317 -19 324 -21 z m 283 451 l 283 450 b 282 451 283 450 283 451 z m 150 732 l 182 732 b 178 722 181 729 179 726 l 178 722 b 175 713 178 719 176 715 z m 642 361 l 533 442 l 535 443 l 532 443 b 567 469 544 451 556 460 l 642 519 z m 142 550 l 244 472 b 268 453 251 465 260 458 b 244 439 261 447 253 443 l 244 438 b 243 436 244 438 243 436 l 142 369 z m 500 -19 l 496 -25 l 453 -25 b 500 -8 469 -21 485 -15 z m 439 122 l 432 122 b 446 128 436 124 442 126 z m 650 732 l 686 732 l 650 708 z m 629 740 b 513 864 607 794 564 840 l 642 864 l 642 739 l 629 739 b 629 740 629 739 629 740 z m 842 3 l 842 13 l 853 3 z m 707 115 l 833 18 l 833 3 l 650 3 l 650 115 z m 507 3 l 507 10 l 564 43 l 553 32 b 508 3 539 21 524 11 z m 199 57 l 199 57 b 264 3 218 36 239 17 l 142 3 l 142 115 l 161 115 b 199 57 171 94 185 75 z m 292 872 l 292 883 l 353 883 b 317 872 340 879 328 876 z m 142 739 l 142 864 l 283 864 l 283 856 b 185 739 239 828 206 790 z m 500 872 l 497 872 b 461 883 486 876 474 879 l 500 883 z m 824 824 l 696 739 l 650 739 l 650 864 l 833 864 l 833 739 l 708 739 l 826 818 z m 842 201 l 951 118 l 957 124 l 842 211 l 842 311 l 958 429 l 954 433 l 842 321 l 842 515 l 917 592 l 913 596 l 842 525 l 842 732 l 872 732 l 872 739 l 842 739 l 842 864 l 871 864 l 871 872 l 842 872 l 842 1063 l 833 1063 l 833 872 l 650 872 l 650 1060 l 642 1060 l 642 872 l 507 872 l 507 883 l 617 883 l 617 889 l 507 889 l 507 1060 l 500 1060 l 500 889 l 292 889 l 292 1060 l 283 1060 l 283 889 l 242 889 l 242 883 l 283 883 l 283 872 l 142 872 l 142 1060 l 136 1060 l 136 872 l 29 872 l 29 864 l 136 864 l 136 743 l 90 778 l 85 772 l 129 739 l 31 739 l 31 732 l 136 732 l 136 564 l 74 613 l 68 607 l 136 556 l 136 365 l 21 289 l 25 282 l 136 357 l 136 190 l 28 118 l 31 111 l 136 182 l 136 122 l 63 122 l 63 115 l 136 115 l 136 3 l 44 3 l 44 -3 l 136 -3 l 136 -212 l 142 -212 l 142 -3 l 278 -3 b 283 -7 279 -4 282 -6 l 283 -25 l 238 -25 l 238 -31 l 283 -31 l 283 -33 l 225 -93 l 229 -99 l 283 -43 l 283 -212 l 292 -212 l 292 -36 l 296 -31 l 489 -31 l 442 -79 l 446 -83 l 499 -31 l 500 -31 l 500 -212 l 507 -212 l 507 -31 l 613 -31 l 613 -25 l 507 -25 l 507 -24 l 526 -3 l 642 -3 l 642 -212 l 650 -212 l 650 -3 l 833 -3 l 833 -210 l 842 -210 l 842 -3 l 861 -3 l 976 -92 l 982 -87 l 874 -3 l 996 -3 l 996 3 l 864 3 l 842 21 z m 143 164 b 158 122 147 150 153 136 l 142 122 l 142 169 b 143 164 142 168 143 165 z m 829 31 l 822 36 l 833 43 l 833 33 z m 815 40 l 808 46 l 833 60 l 833 50 z m 803 50 l 796 56 l 833 78 l 833 68 z m 790 61 l 782 65 l 833 94 l 833 86 z m 778 71 l 769 76 l 833 113 l 833 103 z m 764 81 l 757 86 l 833 129 l 833 121 z m 751 90 l 744 96 l 833 147 l 833 138 z m 775 121 l 775 122 l 761 122 l 833 164 l 833 156 z m 765 115 l 739 100 l 732 106 l 750 115 z m 736 115 l 726 110 l 719 115 l 719 115 z m 833 172 l 749 122 l 732 122 l 833 182 z m 533 3 l 642 113 l 642 3 z m 511 -3 l 517 -3 l 507 -12 l 507 -6 b 511 -3 508 -4 510 -4 z m 833 190 l 717 122 l 710 122 l 707 125 l 833 199 z m 833 207 l 700 131 l 693 136 l 826 213 z m 699 122 l 653 122 l 672 142 b 699 122 681 135 690 129 z m 500 6 l 500 3 l 494 3 z m 467 -14 l 485 -3 l 494 -3 b 467 -14 486 -7 476 -11 z m 579 60 l 507 18 l 507 26 l 596 78 b 579 60 590 71 585 65 z m 500 14 l 481 3 l 465 3 l 500 24 z m 440 -21 b 419 -24 433 -22 426 -22 l 456 -3 l 471 -3 z m 832 217 l 833 217 l 833 215 z m 821 217 l 688 140 l 681 146 l 814 222 z m 606 93 l 507 36 l 507 44 l 614 107 b 606 93 611 103 608 97 z m 500 32 l 450 3 l 433 3 l 500 42 z m 401 -25 b 394 -25 399 -25 397 -25 b 386 -25 392 -25 389 -25 l 425 -3 l 440 -3 z m 618 100 b 626 114 621 104 624 110 l 628 115 l 635 115 l 621 101 z m 642 124 l 642 122 l 640 122 z m 807 226 l 689 158 l 711 181 l 800 232 z m 615 115 l 507 53 l 507 63 l 599 115 z m 500 49 l 421 3 l 404 3 l 500 58 z m 374 -24 b 361 -22 369 -24 365 -24 l 394 -3 l 411 -3 z m 663 143 l 650 136 l 650 146 l 661 151 l 667 147 z m 642 131 l 631 124 b 635 136 632 128 633 132 l 642 140 z m 610 122 l 626 132 b 622 122 625 128 624 125 z m 668 156 l 688 167 l 672 151 z m 794 236 l 729 199 l 751 221 l 788 242 z m 586 115 l 507 69 l 507 79 l 569 115 z m 500 65 l 392 3 l 375 3 l 500 75 z m 597 122 l 581 122 l 633 153 b 629 140 632 149 631 144 z m 663 160 l 656 165 l 728 207 l 706 185 z m 351 -21 b 339 -18 347 -19 343 -19 l 365 -3 l 382 -3 z m 656 156 l 650 153 l 650 160 z m 642 147 l 639 146 b 642 157 639 147 640 157 z m 782 246 l 769 239 l 779 249 z m 556 115 l 507 88 l 507 97 l 539 115 z m 500 83 l 361 3 l 343 3 l 500 93 z m 568 122 l 550 122 l 635 171 l 638 169 b 635 161 636 167 636 164 z m 650 169 l 650 179 l 768 247 l 746 225 z m 329 -17 b 317 -12 325 -15 321 -14 l 333 -3 l 351 -3 z m 525 115 l 507 106 l 507 115 l 508 115 z m 500 101 l 331 3 l 354 26 l 500 111 z m 536 122 l 519 122 l 622 182 b 629 176 624 179 626 178 z m 650 188 l 650 193 b 650 197 650 194 650 196 l 761 263 l 768 257 z m 775 261 l 768 265 l 808 289 l 786 267 z m 635 179 l 628 185 l 642 193 b 640 182 642 189 640 186 z m 314 3 l 331 13 l 321 3 z m 304 -3 l 314 -3 l 308 -10 b 299 -6 306 -8 301 -7 z m 301 3 l 292 3 l 292 7 l 371 53 l 347 29 z m 496 115 l 371 43 l 393 65 l 479 115 z m 508 122 l 507 122 l 507 132 l 610 190 l 617 185 z m 650 204 b 651 215 650 208 651 211 l 749 271 l 756 265 z m 763 269 l 756 275 l 833 321 l 833 314 l 825 306 z m 624 189 l 615 194 l 642 210 l 642 200 z m 292 -10 b 303 -15 294 -11 299 -14 l 293 -25 l 292 -25 z m 390 72 l 292 15 l 292 24 l 411 93 z m 283 10 l 275 6 b 267 10 272 7 269 8 l 283 19 z m 465 115 l 413 85 l 433 106 l 450 115 z m 603 196 l 507 140 l 507 149 l 597 200 z m 500 136 l 476 122 l 461 122 l 500 144 z m 651 224 l 651 226 b 651 232 651 228 651 229 l 736 281 l 743 276 z m 750 281 l 743 285 l 833 338 l 833 329 z m 610 199 l 603 204 l 642 226 l 642 218 z m 500 128 l 500 122 l 492 122 z m 429 111 l 292 32 l 292 42 l 419 115 l 433 115 z m 283 26 l 261 14 b 253 19 258 15 256 17 l 283 38 z m 590 204 l 507 156 l 507 167 l 583 211 z m 500 153 l 451 125 l 475 147 l 500 163 z m 651 239 b 650 249 651 243 650 246 l 722 290 l 731 285 z m 738 289 l 729 294 l 833 356 l 833 346 z m 597 208 l 590 214 l 642 244 l 642 235 z m 578 215 l 507 175 l 507 181 l 513 186 l 571 219 z m 500 171 l 493 167 l 500 174 z m 650 257 l 650 265 l 710 300 l 717 296 z m 724 300 l 717 304 l 833 372 l 833 364 z m 585 219 l 578 224 l 642 261 b 642 258 642 260 642 260 l 642 253 z m 321 154 l 321 154 b 307 172 315 160 311 165 l 307 172 b 292 226 296 183 292 210 b 307 282 292 247 297 265 b 326 304 313 289 318 299 b 394 331 342 319 368 331 b 442 319 411 331 431 328 l 442 319 b 450 314 444 318 447 317 l 449 314 l 454 311 l 472 296 b 499 226 489 278 499 254 b 467 150 499 197 486 169 l 463 149 b 428 128 457 138 440 132 b 401 122 421 124 410 122 l 403 124 b 394 122 400 124 397 122 b 389 124 393 122 390 124 l 388 122 b 374 125 382 122 378 124 l 375 125 b 365 128 372 125 369 126 l 364 126 b 356 131 361 128 358 129 l 356 131 l 347 135 l 346 135 b 339 139 344 136 342 138 l 340 139 b 333 143 338 140 335 142 l 333 143 b 321 154 329 146 325 150 z m 406 115 l 292 49 l 292 58 l 389 115 z m 283 44 l 247 24 b 239 29 244 25 242 26 l 283 54 z m 565 225 l 532 206 l 556 229 l 557 231 z m 508 192 l 507 192 l 507 269 l 526 254 b 551 235 535 247 543 242 l 549 233 z m 650 274 l 650 283 l 697 311 l 704 306 z m 711 310 l 704 315 l 833 390 l 833 381 z m 572 229 l 565 235 l 639 278 b 640 268 639 275 640 271 z m 500 185 l 496 181 b 500 190 497 185 499 188 z m 375 115 l 292 67 l 292 76 l 358 115 z m 283 61 l 235 33 b 228 39 232 35 229 36 l 283 71 z m 650 292 l 650 301 l 683 321 l 690 315 z m 697 319 l 690 325 l 833 407 l 833 399 z m 638 285 l 575 249 l 597 271 l 635 293 b 638 285 636 290 636 288 z m 344 115 l 292 85 l 292 93 l 329 115 z m 283 81 l 222 44 b 217 50 219 46 218 47 l 283 89 z m 356 122 l 342 122 l 349 126 b 357 122 351 125 354 124 z m 650 308 l 650 318 l 671 331 l 678 325 z m 640 303 l 638 311 l 642 314 l 642 304 z m 685 329 l 678 335 l 833 425 l 833 415 z m 633 299 l 614 289 l 632 306 b 633 299 632 303 633 301 z m 592 275 l 546 249 l 539 254 l 614 297 z m 574 257 l 557 240 l 551 244 z m 314 115 l 292 103 l 292 111 l 300 115 z m 283 97 l 211 56 b 206 61 208 57 207 58 l 283 106 z m 326 122 l 311 122 l 333 135 b 340 131 336 133 338 132 z m 665 335 l 657 331 l 663 336 b 665 335 664 336 664 335 z m 672 339 l 668 342 l 678 351 l 833 442 l 833 433 z m 629 314 l 533 258 l 526 264 l 626 321 b 629 314 626 318 628 317 z m 283 114 l 201 67 b 196 72 199 68 197 71 l 269 115 l 283 115 z m 297 122 l 292 122 l 292 128 l 321 144 b 328 139 322 143 325 142 z m 697 372 l 719 393 l 833 460 l 833 450 z m 653 344 l 650 344 l 650 347 z m 642 339 l 629 332 b 625 339 628 335 626 336 l 642 349 z m 622 328 l 519 268 l 513 274 l 619 336 b 622 328 621 333 622 331 z m 656 338 l 650 332 l 650 335 z m 642 331 l 642 325 l 635 318 b 632 325 633 321 633 322 z m 283 124 l 283 122 l 281 122 z m 254 115 l 192 78 b 186 86 190 81 189 83 l 239 115 z m 315 150 l 292 138 l 292 146 l 310 157 b 315 150 311 154 313 153 z m 283 132 l 267 122 l 250 122 l 283 142 z m 638 354 l 622 346 b 618 353 621 347 619 350 l 631 360 b 638 354 633 358 635 356 z m 617 342 l 507 279 l 507 289 l 613 349 b 617 342 614 347 615 344 z m 500 275 l 500 263 b 492 282 497 269 494 275 l 493 281 l 493 281 z m 739 413 l 760 435 l 833 476 l 833 468 z m 225 115 l 183 92 b 179 99 182 93 181 96 l 208 115 z m 306 163 l 292 154 l 292 164 l 301 168 b 306 163 303 167 304 164 z m 283 149 l 236 122 l 221 122 l 283 158 z m 625 364 l 615 358 b 611 365 614 361 613 363 l 618 369 z m 608 354 l 507 296 l 507 306 l 604 361 b 608 354 606 360 607 357 z m 500 292 l 493 289 l 486 293 l 500 301 z m 500 285 l 500 283 l 499 285 z m 776 451 l 799 474 l 833 493 l 833 485 z m 196 115 l 175 104 b 172 111 174 106 174 108 l 179 115 z m 297 175 l 292 171 l 292 181 l 294 182 b 297 175 294 179 296 176 z m 283 167 l 207 122 l 192 122 l 283 175 z m 613 374 l 607 371 b 603 378 606 372 604 375 l 606 379 z m 601 367 l 507 313 l 507 322 l 596 374 b 601 367 597 372 600 369 z m 475 304 l 500 318 l 500 308 l 481 297 b 475 304 479 300 476 301 z m 818 493 l 833 508 l 833 501 z m 283 183 l 176 122 l 165 122 b 164 125 165 124 165 124 l 283 193 z m 599 383 l 599 383 b 594 388 597 385 596 386 z m 592 379 l 507 331 l 507 340 l 586 386 b 592 379 589 383 590 382 z m 500 326 l 469 308 b 464 314 468 311 465 313 l 500 336 z m 283 201 l 161 131 b 158 138 161 133 160 136 l 283 211 z m 582 392 l 507 347 l 507 357 l 576 397 b 582 392 578 396 581 393 z m 500 343 l 457 319 b 450 324 454 321 453 322 l 500 353 z m 283 218 l 157 146 b 154 153 156 147 154 150 l 283 228 z m 572 403 l 507 365 l 507 375 l 565 408 b 572 403 568 407 569 404 z m 500 361 l 443 328 l 436 333 l 500 371 z m 283 236 l 153 160 b 150 168 151 163 151 165 l 283 244 z m 561 413 l 507 382 l 507 392 l 553 418 b 561 413 556 417 558 415 z m 500 379 l 429 339 l 424 343 l 500 388 z m 283 253 l 149 175 b 147 183 149 178 147 181 l 283 263 z m 547 424 l 507 400 l 507 410 l 539 429 z m 500 397 l 417 349 l 410 353 l 500 406 z m 424 333 b 394 338 414 336 406 338 b 369 335 386 338 378 336 b 392 350 376 339 383 344 l 368 336 l 396 356 l 397 354 l 397 354 l 403 349 l 404 349 b 424 333 410 344 417 339 z m 293 268 b 292 265 293 268 292 267 l 292 268 z m 283 269 l 172 207 b 283 279 210 231 244 257 z m 296 276 l 292 275 l 292 285 l 306 292 b 296 276 301 288 299 282 z m 144 200 l 186 224 l 144 196 b 144 200 144 197 144 199 z m 533 433 l 507 417 l 507 426 l 528 439 b 528 438 528 439 528 438 z m 500 414 l 404 357 l 401 360 b 500 424 435 381 465 404 z m 143 206 b 143 217 143 210 143 213 l 283 297 l 283 289 l 268 278 z m 292 310 l 292 319 l 378 369 l 385 364 z m 143 224 l 143 226 b 143 233 143 229 143 231 l 283 314 l 283 306 z m 392 368 l 385 374 l 453 413 b 479 419 463 415 471 417 l 469 414 z m 292 303 l 388 358 l 292 293 z m 638 579 l 636 579 b 640 590 638 582 639 586 l 640 590 b 642 600 640 593 642 597 l 642 528 l 590 493 b 600 506 593 497 597 501 b 638 579 619 525 625 553 z m 292 328 l 292 336 l 365 379 l 372 374 z m 143 242 b 144 251 143 244 144 249 l 283 332 l 283 322 z m 515 457 l 508 461 l 596 513 b 582 496 592 506 588 500 z m 451 419 b 431 417 444 418 438 417 l 497 456 b 500 454 499 456 499 454 l 500 447 z m 378 378 l 372 382 l 417 408 b 435 410 422 408 429 410 z m 521 453 l 567 479 b 563 475 565 478 564 476 l 525 450 z m 475 425 l 500 440 l 500 435 b 475 425 492 431 483 428 z m 507 444 l 513 447 b 517 444 514 446 515 446 l 507 438 z m 292 344 l 292 354 l 353 389 l 360 383 z m 146 260 b 147 269 146 264 146 267 l 283 349 l 283 340 z m 606 526 l 507 469 l 507 479 l 614 540 b 606 526 611 536 608 531 z m 414 415 b 407 415 411 415 410 415 b 397 415 404 415 401 415 l 479 463 b 489 458 482 461 486 460 z m 365 388 l 358 393 l 388 410 b 401 408 392 408 397 408 z m 292 363 l 292 371 l 340 399 l 346 394 z m 149 281 b 151 289 150 283 150 286 l 283 367 l 283 357 z m 618 551 l 507 486 l 507 496 l 625 564 b 618 551 622 560 621 556 z m 500 482 l 489 476 l 482 482 l 500 492 z m 385 417 b 372 418 381 417 376 417 l 460 468 b 471 465 464 468 467 467 z m 483 472 l 478 469 b 468 474 475 471 471 472 l 475 478 z m 353 397 l 346 403 l 363 413 b 375 411 367 411 371 411 b 353 397 368 406 360 401 z m 500 475 l 500 468 l 494 472 z m 489 468 l 494 464 b 486 467 492 465 489 465 z m 292 379 l 292 389 l 326 408 l 333 403 z m 154 299 b 158 311 156 303 157 307 l 283 383 l 283 374 z m 628 574 l 507 504 l 507 513 l 632 585 b 628 574 631 581 629 578 z m 500 500 l 476 486 l 469 492 l 500 510 z m 363 419 b 350 422 358 421 354 421 l 439 474 b 450 471 443 472 447 472 z m 469 482 l 458 475 b 447 478 454 476 450 478 l 463 488 z m 340 407 l 333 413 l 342 418 b 353 415 346 417 350 415 z m 292 396 l 292 406 l 314 418 l 321 414 z m 161 321 b 167 333 163 325 165 329 l 283 401 l 283 392 z m 635 596 l 507 522 l 507 531 l 636 606 b 635 596 636 601 635 599 z m 500 518 l 463 496 l 456 501 l 500 526 z m 340 425 b 331 428 338 426 333 426 l 415 476 b 428 475 419 476 424 476 z m 457 492 l 436 481 b 424 482 432 481 428 482 l 450 497 z m 328 417 l 321 422 l 324 424 b 333 421 326 422 331 421 z m 292 414 l 292 424 l 301 429 l 308 424 z m 172 344 b 182 360 175 350 178 356 l 283 419 l 283 408 z m 638 615 l 507 539 l 507 549 l 639 625 b 638 615 639 622 639 618 z m 500 535 l 450 506 b 442 511 447 507 444 510 l 500 544 z m 322 432 b 313 436 318 432 315 433 l 385 478 b 394 478 388 478 392 478 b 401 478 397 478 399 478 z m 443 501 l 411 483 b 394 483 406 483 400 483 l 436 507 z m 208 404 b 142 283 190 386 153 331 l 142 361 z m 292 432 l 292 436 l 294 433 z m 190 374 b 204 390 194 379 200 385 l 283 436 l 283 428 z m 640 633 l 507 557 l 507 565 l 640 643 b 640 633 640 640 640 636 z m 500 553 l 436 515 l 429 521 l 500 563 z m 304 439 b 296 443 301 440 299 442 l 347 474 b 368 476 354 475 361 476 z m 431 513 l 381 483 b 361 482 374 483 368 482 l 424 517 z m 281 443 l 222 410 b 275 447 239 425 256 438 b 281 443 278 447 279 444 z m 640 650 l 507 574 l 507 582 l 640 660 b 640 650 640 657 640 653 z m 500 569 l 424 525 l 417 531 l 500 579 z m 292 450 l 292 456 b 322 467 301 460 313 464 z m 417 522 l 342 479 b 317 472 333 476 325 475 l 411 526 z m 639 667 l 507 590 l 507 600 l 639 676 b 639 667 639 674 639 671 z m 500 586 l 411 535 l 407 538 l 444 563 b 471 579 454 567 463 574 l 500 596 z m 404 531 l 357 504 l 401 533 z m 638 683 l 549 632 l 636 690 b 638 683 636 688 638 686 z m 401 542 l 379 558 b 407 556 388 557 397 556 l 422 556 z m 292 483 l 292 493 l 385 547 l 392 542 z m 263 467 l 256 472 l 283 488 l 283 479 z m 292 476 l 369 521 l 292 468 z m 268 463 l 283 471 l 283 464 l 275 457 z m 458 718 l 457 718 b 474 703 464 714 468 708 l 474 703 b 479 696 476 701 478 699 l 479 696 b 493 649 489 686 493 664 b 467 586 493 621 482 600 l 442 569 b 407 561 431 564 419 561 b 342 592 381 561 357 574 b 338 597 340 593 339 594 l 338 597 b 333 604 336 600 335 601 l 333 604 b 331 610 332 606 331 608 l 331 610 b 321 649 325 619 321 635 b 331 689 321 664 324 676 l 339 701 b 385 732 350 715 367 728 l 428 732 b 433 731 429 732 431 731 l 433 731 b 458 718 443 728 451 724 z m 507 626 l 507 635 l 632 707 b 635 699 633 704 633 701 z m 642 703 b 638 718 640 707 638 714 l 638 718 b 635 726 636 721 635 724 l 635 726 l 632 732 l 642 732 z m 496 619 b 499 631 497 622 499 626 l 500 631 l 500 622 z m 507 618 l 557 646 l 507 613 z m 492 608 l 500 614 l 500 608 l 486 599 b 492 608 488 601 490 606 z m 292 501 l 292 510 l 372 557 l 379 551 z m 243 482 l 283 506 l 283 496 l 250 478 b 243 482 247 479 246 481 z m 507 643 l 507 653 l 628 722 b 631 714 629 719 631 717 z m 292 518 l 292 528 l 360 567 l 365 561 z m 239 488 b 232 494 236 489 235 492 l 283 522 l 283 514 z m 507 661 l 507 669 l 615 732 l 625 732 b 626 729 625 731 625 731 z m 292 536 l 292 544 l 346 576 l 353 571 z m 228 499 b 224 506 226 501 225 503 l 283 540 l 283 531 z m 613 739 l 596 739 l 617 751 b 621 743 618 749 619 746 z m 507 676 l 507 688 l 585 732 l 600 732 z m 497 671 b 494 679 497 674 496 676 l 500 683 l 500 674 z m 499 664 l 500 665 l 500 658 b 499 664 500 661 500 663 z m 292 553 l 292 563 l 332 586 l 339 581 z m 219 511 b 214 517 217 513 215 515 l 283 558 l 283 549 z m 168 621 b 217 501 168 588 194 529 l 142 560 l 142 729 l 174 706 b 172 701 174 704 172 703 b 167 649 172 701 167 656 b 168 621 167 639 167 629 z m 583 739 l 565 739 l 610 765 b 614 757 611 763 613 760 z m 507 696 l 507 704 l 554 732 l 571 732 z m 492 686 b 489 693 490 689 490 692 l 500 700 l 500 692 z m 292 571 l 292 581 l 319 596 l 326 590 z m 210 524 b 206 531 208 525 207 528 l 283 575 l 283 565 z m 553 739 l 536 739 l 601 776 b 606 769 603 775 604 772 z m 507 713 l 507 722 l 524 732 l 542 732 z m 485 699 b 479 707 483 701 482 704 b 500 718 486 710 493 714 l 500 708 z m 325 600 l 326 600 b 328 597 326 599 328 599 z m 319 604 l 313 610 l 321 614 b 324 606 321 611 322 608 z m 292 588 l 292 597 l 307 606 l 314 600 z m 203 536 b 199 543 201 539 200 542 l 283 592 l 283 583 z m 522 739 l 507 739 l 507 739 l 593 790 b 599 782 594 788 596 785 z m 507 731 l 507 732 l 510 732 z m 475 711 b 469 717 474 714 472 715 l 494 732 l 500 732 l 500 726 z m 307 614 l 300 619 l 317 628 b 318 621 317 625 317 624 z m 292 606 l 292 614 l 293 615 l 300 610 z m 196 549 b 193 557 194 551 193 554 l 283 610 l 283 600 z m 589 794 l 507 747 l 507 757 l 583 800 b 589 794 586 799 588 797 z m 500 743 l 493 739 l 476 739 l 500 753 z m 481 732 l 464 722 b 457 728 461 724 460 726 l 464 732 z m 294 624 l 292 626 l 292 632 l 314 644 b 315 635 314 642 314 639 z m 190 564 b 186 572 189 567 188 569 l 279 625 l 283 622 l 283 617 z m 579 807 l 507 765 l 507 774 l 574 813 b 579 807 575 810 576 808 z m 500 761 l 463 739 l 447 739 l 500 769 z m 281 633 l 274 639 l 283 644 l 283 635 z m 292 640 l 292 649 l 315 663 b 314 653 314 660 314 656 z m 274 629 l 185 578 b 182 585 183 581 183 583 l 267 635 z m 568 817 l 507 782 l 507 792 l 563 822 b 568 817 564 821 567 819 z m 500 778 l 433 739 l 429 739 b 419 740 426 739 424 740 l 500 788 z m 267 643 l 260 649 l 283 661 l 283 653 z m 292 657 l 292 667 l 321 683 b 317 672 319 679 318 675 z m 261 639 l 181 593 b 179 601 179 596 179 599 l 254 644 z m 556 828 l 507 800 l 507 810 l 549 833 b 556 828 551 832 554 831 z m 500 796 l 408 742 l 407 742 b 388 739 400 742 393 740 l 500 806 z m 254 653 l 247 658 l 283 679 l 283 669 z m 292 674 l 292 683 l 338 710 b 325 693 333 706 329 700 z m 249 649 l 178 608 b 176 617 176 611 176 614 l 242 654 z m 543 838 l 507 817 l 507 826 l 536 843 b 543 838 539 842 540 840 z m 500 813 l 372 739 l 357 739 l 500 822 z m 242 663 l 235 668 l 283 696 l 283 688 z m 292 692 l 292 701 l 344 732 l 360 732 z m 235 660 l 175 625 b 174 633 175 628 175 631 l 228 664 z m 529 847 l 507 835 l 507 843 l 522 851 b 529 847 525 850 526 849 z m 500 831 l 342 739 l 328 739 l 500 839 z m 228 674 l 222 678 l 283 714 l 283 706 z m 292 710 l 292 718 l 315 732 l 329 732 b 292 710 317 725 304 717 z m 221 669 l 174 642 b 174 649 174 644 174 646 l 174 650 l 215 674 z m 515 856 l 507 851 l 507 860 b 515 856 510 858 513 857 z m 500 847 l 314 739 l 296 739 l 500 857 z m 215 682 l 208 688 l 283 732 l 283 722 z m 292 726 l 292 732 l 301 732 z m 210 679 l 174 658 b 174 668 174 661 174 665 l 201 685 z m 499 864 l 292 744 l 292 753 l 482 864 l 496 864 b 499 864 497 864 497 864 z m 271 732 l 203 693 l 196 697 l 256 732 z m 283 739 l 283 739 l 267 739 l 283 749 z m 196 689 b 175 676 189 685 182 681 b 176 686 175 679 175 683 l 189 693 z m 468 864 l 292 761 l 292 771 l 454 864 z m 240 732 l 189 703 l 183 707 l 225 732 z m 283 757 l 253 739 l 238 739 l 283 765 z m 183 699 l 178 696 b 179 701 178 697 179 700 z m 439 864 l 292 779 l 292 788 l 424 864 z m 211 732 l 183 717 b 188 728 185 719 186 724 l 194 732 z m 283 774 l 224 739 l 207 739 l 283 783 z m 454 872 l 438 872 l 449 878 b 460 876 453 878 456 876 z m 468 872 l 471 874 b 476 872 472 874 475 872 z m 408 864 l 292 796 l 292 806 l 393 864 z m 283 792 l 194 739 l 192 739 b 197 751 193 743 196 747 l 283 801 z m 422 872 l 407 872 l 422 882 b 436 881 426 881 432 881 z m 378 864 l 292 814 l 292 824 l 363 864 z m 283 808 l 204 763 b 213 778 207 768 210 772 l 283 818 z m 392 872 l 376 872 l 393 882 b 407 882 397 882 403 882 l 408 882 z m 349 864 l 292 831 l 292 840 l 333 864 z m 283 826 l 222 790 b 238 808 228 797 232 803 l 283 835 z m 363 872 l 347 872 l 353 876 b 376 879 361 878 368 879 z m 292 847 l 292 851 b 318 864 300 856 308 861 z m 283 843 l 258 828 b 283 847 267 835 275 842 z m 292 860 l 292 864 l 300 864 b 292 860 297 863 294 861 z m 833 647 l 829 653 l 650 533 l 650 700 l 699 732 l 833 732 z m 833 647 l 833 518 l 661 346 l 650 356 l 650 525 z m 833 217 l 783 254 l 789 260 l 792 261 l 810 281 b 833 304 818 289 825 296 z "},"'":{"ha":328,"x_min":0,"x_max":0,"o":"m 240 679 l 240 803 l 272 803 l 272 808 l 240 808 l 240 901 l 233 901 l 233 808 l 114 808 l 114 863 l 107 863 l 107 808 l 56 808 l 56 803 l 107 803 l 107 558 l 56 558 l 56 553 l 107 553 l 107 428 l 114 428 l 114 553 l 233 553 l 233 433 l 240 433 l 240 553 l 272 553 l 272 558 l 240 558 l 240 567 z m 233 640 l 114 572 l 114 582 l 233 650 z m 233 633 l 233 624 l 122 558 l 114 558 l 114 564 z m 233 658 l 114 590 l 114 599 l 233 668 z m 233 675 l 114 607 l 114 617 l 233 685 z m 233 693 l 114 625 l 114 633 l 233 703 z m 233 710 l 114 642 l 114 651 l 233 719 z m 233 728 l 114 660 l 114 668 l 233 738 z m 233 744 l 114 676 l 114 686 l 233 754 z m 233 763 l 114 694 l 114 703 l 233 772 z m 233 779 l 114 711 l 114 721 l 233 789 z m 233 797 l 114 729 l 114 738 l 225 803 l 233 803 z m 233 571 l 211 558 l 196 558 l 233 581 z m 233 564 l 233 558 l 225 558 z m 233 589 l 182 558 l 165 558 l 233 599 z m 233 606 l 151 558 l 135 558 l 233 615 z m 114 746 l 114 756 l 196 803 l 211 803 z m 114 764 l 114 772 l 165 803 l 182 803 z m 114 781 l 114 790 l 135 803 l 151 803 z m 114 799 l 114 803 l 122 803 z "},"(":{"ha":897,"x_min":0,"x_max":0,"o":"m 582 25 b 289 433 411 82 289 243 b 582 843 289 624 411 786 z m 626 1011 b 589 1004 614 1010 601 1007 l 589 1011 z m 604 -142 l 589 -142 l 589 -139 b 604 -142 594 -140 599 -140 z m 718 864 b 1146 433 954 864 1146 671 b 718 3 1146 196 954 3 b 589 24 674 3 629 11 l 589 844 b 718 864 629 857 674 864 z m 640 864 b 589 851 622 861 606 857 l 589 864 z m 718 -3 l 942 -3 l 942 3 l 796 3 b 1153 433 1000 40 1153 218 b 796 864 1153 649 1000 826 l 940 864 l 940 872 l 718 872 l 589 872 l 589 997 b 707 1008 628 1006 667 1008 b 1283 432 1025 1008 1283 750 b 757 -142 1283 131 1051 -117 l 657 -142 b 589 -132 633 -140 611 -136 l 589 -3 z m 640 3 l 589 3 l 589 17 b 640 3 606 11 622 6 z m 289 3 l 289 26 b 311 3 296 18 303 10 z m 281 3 l 128 3 l 128 356 b 281 33 144 232 199 119 z m 289 -142 l 289 -3 l 319 -3 b 582 -137 393 -68 482 -115 l 582 -142 z m 281 -142 l 128 -142 l 128 -3 l 281 -3 z m 289 864 l 315 864 b 289 839 306 856 297 847 z m 289 872 l 289 1011 l 582 1011 l 582 1003 b 564 999 576 1001 569 1000 b 540 992 556 997 549 994 b 497 976 526 988 511 982 l 497 978 b 456 960 483 972 469 967 b 443 953 451 958 447 954 b 324 872 400 931 360 904 z m 128 864 l 281 864 l 281 831 b 128 510 199 744 144 633 z m 128 872 l 128 1011 l 281 1011 l 281 872 z m 29 1011 l 122 1011 l 122 872 l 29 872 l 29 864 l 122 864 l 122 3 l 44 3 l 44 -3 l 122 -3 l 122 -142 l 44 -142 l 44 -150 l 122 -150 l 122 -210 l 128 -210 l 128 -150 l 281 -150 l 281 -210 l 289 -210 l 289 -150 l 582 -150 l 582 -210 l 589 -210 l 589 -150 l 657 -150 b 707 -151 674 -151 690 -151 b 758 -150 724 -151 742 -151 l 942 -150 l 942 -142 l 810 -142 b 1290 432 1083 -93 1290 144 b 788 1011 1290 726 1072 972 l 940 1011 l 940 1017 l 589 1017 l 589 1060 l 582 1060 l 582 1017 l 289 1017 l 289 1060 l 281 1060 l 281 1017 l 128 1017 l 128 1060 l 122 1060 l 122 1017 l 29 1017 z m 492 -103 l 582 -50 l 582 -61 l 501 -107 b 492 -103 497 -106 494 -104 z m 485 -100 b 474 -96 482 -99 476 -97 l 582 -33 l 582 -43 z m 510 -110 l 582 -68 l 582 -78 l 521 -114 b 510 -110 517 -112 514 -111 z m 528 -117 l 582 -85 l 582 -96 l 540 -119 b 528 -117 536 -118 532 -118 z m 547 -122 l 582 -103 l 582 -112 l 560 -125 b 547 -122 556 -124 551 -124 z m 568 -128 l 582 -119 l 582 -131 l 581 -131 b 568 -128 576 -129 572 -129 z m 467 -92 b 457 -87 464 -90 460 -89 l 582 -15 l 582 -26 z m 451 -85 b 442 -79 449 -83 444 -81 l 574 -3 l 582 -3 l 582 -8 z m 572 3 l 556 3 l 581 18 l 582 18 l 582 8 z m 435 -76 b 426 -71 432 -75 429 -72 l 543 -3 l 561 -3 z m 333 864 l 351 864 l 289 828 b 313 853 297 836 304 844 z m 346 872 l 540 985 b 572 993 551 988 561 990 l 363 872 z m 511 975 l 335 874 b 406 924 357 892 381 908 l 432 939 b 511 975 457 953 483 965 z m 561 864 l 289 707 l 289 717 l 543 864 z m 168 638 b 174 650 169 642 172 646 l 281 713 l 281 703 z m 572 872 l 556 872 l 582 888 l 582 876 z m 574 864 l 582 864 l 582 860 l 524 826 b 476 799 507 818 492 808 l 289 689 l 289 700 z m 164 628 l 281 696 l 281 686 l 160 615 z m 531 864 l 289 724 l 289 735 l 513 864 z m 178 660 b 183 674 179 664 181 669 l 281 731 l 281 721 z m 543 872 l 525 872 l 582 904 l 582 894 z m 500 864 l 289 742 l 289 751 l 483 864 z m 188 683 b 194 697 190 688 192 693 l 281 747 l 281 738 z m 513 872 l 494 872 l 582 922 l 582 911 z m 471 864 l 289 758 l 289 769 l 453 864 z m 200 708 b 210 724 203 714 207 718 l 281 765 l 281 756 z m 482 872 l 465 872 l 582 939 l 582 929 z m 440 864 l 289 776 l 289 786 l 424 864 z m 215 735 b 226 750 218 740 222 744 l 281 782 l 281 772 z m 453 872 l 435 872 l 582 957 l 582 946 z m 411 864 l 289 793 l 289 804 l 393 864 z m 235 763 b 247 781 239 768 243 775 l 281 800 l 281 790 z m 422 872 l 406 872 l 582 974 l 582 964 z m 381 864 l 289 811 l 289 821 l 364 864 z m 257 793 b 274 813 263 800 268 806 l 281 817 l 281 807 z m 393 872 l 375 872 l 582 992 l 582 981 z m 135 358 b 133 367 135 361 133 364 l 281 453 l 281 443 z m 136 351 l 281 435 l 281 425 l 138 342 b 136 351 138 344 136 349 z m 133 374 b 132 383 133 376 132 381 l 281 469 l 281 460 z m 132 390 l 132 400 l 281 488 l 281 478 z m 131 407 l 131 418 l 281 504 l 281 494 z m 289 526 l 292 528 b 289 526 290 524 289 526 z m 131 425 l 131 432 l 131 435 l 281 522 l 281 513 z m 294 536 l 289 533 l 289 543 l 297 549 b 294 536 296 544 296 540 z m 131 442 l 131 453 l 281 539 l 281 529 z m 299 557 l 289 550 l 289 561 l 303 569 z m 131 460 b 132 469 131 464 132 465 l 281 557 l 281 547 z m 306 578 l 289 568 l 289 578 l 311 592 b 306 578 310 588 307 582 z m 132 478 b 133 489 132 482 133 485 l 281 574 l 281 564 z m 314 600 l 289 585 l 289 596 l 321 614 b 314 600 319 610 315 604 z m 133 496 b 135 507 133 500 135 503 l 281 592 l 281 582 z m 325 624 l 289 603 l 289 613 l 332 639 b 325 624 329 635 328 628 z m 136 515 b 138 526 136 519 138 522 l 281 608 l 281 599 z m 338 649 l 289 619 l 289 631 l 347 664 b 338 649 344 658 340 654 z m 139 533 b 142 546 139 538 140 542 l 281 626 l 281 617 z m 354 675 l 289 638 l 289 647 l 367 693 b 354 675 363 688 358 681 z m 143 553 b 146 565 144 557 144 561 l 281 643 l 281 633 z m 376 706 l 289 654 l 289 665 l 393 725 b 376 706 388 718 382 713 z m 147 574 l 151 586 l 281 661 l 281 651 z m 407 742 l 289 672 l 289 682 l 436 768 b 407 742 426 760 417 751 z m 153 594 l 157 607 l 281 678 l 281 668 z m 571 846 l 582 853 l 582 850 b 571 846 579 849 574 847 z m 543 3 l 525 3 l 563 25 b 574 21 567 24 569 22 z m 419 -68 b 411 -62 417 -67 414 -64 l 513 -3 l 531 -3 z m 513 3 l 494 3 l 544 32 b 556 28 547 31 553 29 z m 404 -58 l 396 -54 l 483 -3 l 500 -3 z m 482 3 l 465 3 l 528 40 b 538 35 531 39 535 36 z m 390 -50 b 382 -44 388 -49 385 -46 l 453 -3 l 471 -3 z m 453 3 l 435 3 l 513 49 b 521 43 515 47 518 44 z m 376 -40 b 369 -35 374 -39 372 -36 l 424 -3 l 440 -3 z m 422 3 l 406 3 l 497 57 b 506 51 500 56 503 53 z m 364 -31 b 356 -25 361 -29 358 -26 l 393 -3 l 411 -3 z m 393 3 l 375 3 l 482 65 b 490 60 485 64 488 61 z m 350 -21 b 343 -15 347 -19 346 -17 l 364 -3 l 381 -3 z m 363 3 l 346 3 l 468 75 b 476 69 471 74 474 71 z m 338 -11 b 331 -4 335 -10 333 -6 l 333 -3 l 351 -3 z m 333 3 l 321 3 b 319 6 319 4 321 4 l 456 85 b 463 79 458 83 460 81 z m 314 10 b 307 17 311 11 310 14 l 443 94 b 450 89 446 93 447 90 z m 303 21 l 296 28 l 431 106 b 438 99 433 104 435 100 z m 292 32 b 289 36 290 33 290 35 l 289 40 l 419 115 b 425 110 422 113 422 111 z m 289 47 l 289 57 l 408 126 b 414 119 411 124 411 122 z m 289 64 l 289 75 l 397 138 b 403 131 399 135 401 133 z m 271 54 b 265 61 269 57 267 58 l 281 71 l 281 61 z m 275 50 l 281 53 l 281 43 b 275 50 279 46 276 47 z m 289 82 l 289 92 l 388 149 b 393 143 389 146 392 146 z m 261 67 b 256 74 260 69 257 71 l 281 88 l 281 78 z m 289 99 l 289 110 l 378 161 b 383 154 379 158 382 157 z m 251 78 b 246 85 250 81 247 82 l 281 106 l 281 96 z m 289 117 l 289 126 l 368 172 b 374 165 369 169 372 168 z m 243 90 b 238 97 242 93 239 94 l 281 122 l 281 113 z m 289 133 l 289 144 l 360 185 b 364 178 361 182 363 181 z m 233 103 b 229 110 232 106 231 107 l 281 140 l 281 131 z m 289 151 l 289 161 l 351 197 b 356 190 353 194 354 193 z m 225 115 b 221 122 224 118 222 119 l 281 157 l 281 147 z m 289 168 l 289 179 l 343 211 l 347 203 z m 218 128 b 213 135 217 131 214 132 l 281 175 l 281 165 z m 289 186 l 289 196 l 336 224 l 340 215 z m 210 140 l 206 149 l 281 192 l 281 182 z m 289 203 l 289 214 l 329 238 b 332 229 331 235 331 232 z m 203 154 b 199 161 201 157 200 158 l 281 210 l 281 200 z m 289 221 l 289 231 l 322 250 b 326 243 324 247 325 246 z m 194 167 b 192 175 193 169 193 172 l 281 226 l 281 217 z m 289 238 l 289 249 l 315 264 l 319 256 z m 189 181 b 185 188 188 183 186 185 l 281 244 l 281 235 z m 289 256 l 289 265 l 310 278 l 314 269 z m 182 194 b 178 201 181 197 179 199 l 281 261 l 281 251 z m 289 272 l 289 283 l 306 293 b 308 285 307 290 307 288 z m 176 208 b 172 215 175 211 174 213 l 281 279 l 281 269 z m 289 290 l 289 300 l 300 307 b 303 299 301 304 301 301 z m 169 222 b 167 231 168 225 168 228 l 281 296 l 281 286 z m 289 307 l 289 318 l 296 322 b 299 314 297 319 297 317 z m 165 236 l 161 244 l 281 314 l 281 304 z m 289 325 l 289 335 l 293 338 b 294 329 293 335 293 332 z m 160 250 b 157 258 158 253 158 256 l 281 331 l 281 321 z m 289 342 l 289 353 b 292 344 289 350 292 347 z m 156 265 b 153 274 154 268 154 271 l 281 349 l 281 339 z m 151 281 b 149 289 150 283 150 286 l 281 365 l 281 356 z m 147 294 b 144 304 146 297 144 301 l 281 383 l 281 374 z m 143 311 b 142 319 143 314 142 317 l 281 400 l 281 390 z m 140 326 b 139 335 140 329 139 332 l 281 418 l 281 408 z "},"*":{"ha":897,"x_min":0,"x_max":0,"o":"m 215 125 l 160 181 l 156 178 l 156 222 l 313 222 z m 211 119 l 156 65 l 156 175 z m 685 435 l 733 386 l 733 333 l 585 333 z m 690 439 l 733 482 l 733 396 z m 686 121 l 733 168 l 733 74 z m 207 440 l 156 390 l 156 490 z m 160 383 l 211 435 l 313 333 l 156 333 l 156 388 z m 731 175 l 681 125 l 585 222 l 733 222 l 733 172 z m 733 814 l 733 492 l 685 444 l 615 514 l 701 600 l 697 606 l 610 519 l 544 583 l 539 579 l 606 514 l 449 358 l 292 515 l 357 581 l 353 586 l 286 519 l 200 606 l 196 600 l 282 515 l 211 444 l 156 500 l 156 814 l 150 814 l 150 507 l 125 531 l 121 525 l 150 497 l 150 333 l 42 333 l 42 328 l 150 328 l 150 228 l 42 228 l 42 222 l 150 222 l 150 58 l 121 31 l 125 25 l 150 49 l 150 -154 l 156 -154 l 156 56 l 215 115 l 286 44 l 196 -44 l 200 -50 l 290 40 l 394 -64 l 399 -58 l 296 44 l 449 197 l 600 46 l 493 -61 l 497 -67 l 606 42 l 697 -50 l 701 -44 l 611 46 l 681 117 l 733 64 l 733 -154 l 739 -154 l 739 57 l 772 25 l 776 31 l 739 67 l 739 222 l 856 222 l 856 228 l 739 228 l 739 328 l 856 328 l 856 333 l 739 333 l 739 379 l 756 364 l 761 368 l 739 389 l 739 489 l 776 525 l 772 531 l 739 499 l 739 814 z m 288 508 l 294 503 l 257 481 l 281 504 z m 299 497 l 306 492 l 217 440 l 239 463 z m 221 435 l 310 486 l 317 481 l 228 429 z m 232 424 l 321 475 l 328 469 l 239 418 z m 243 413 l 332 464 l 339 458 l 250 407 z m 254 403 l 343 454 l 350 447 l 261 396 z m 265 392 l 354 443 l 360 436 l 272 385 z m 276 381 l 365 432 l 371 425 l 282 374 z m 185 328 l 201 328 l 156 300 l 156 311 z m 172 328 l 156 318 l 156 328 z m 288 369 l 376 421 l 382 414 l 293 363 z m 214 328 l 232 328 l 156 283 l 156 293 z m 299 358 l 388 410 l 393 403 l 304 351 z m 244 328 l 263 328 l 156 265 l 156 276 z m 310 347 l 399 399 l 404 392 l 315 340 z m 275 328 l 292 328 l 156 249 l 156 258 z m 613 506 l 619 500 l 574 472 l 597 497 z m 319 336 l 408 388 l 415 381 l 333 333 l 322 333 z m 304 328 l 319 328 l 321 326 l 156 231 l 156 242 z m 624 494 l 631 489 l 532 432 l 556 456 z m 346 333 l 419 376 l 426 371 l 364 333 z m 325 322 l 332 315 l 182 228 l 164 228 z m 335 328 l 351 328 l 338 318 l 331 325 z m 635 483 l 642 478 l 490 390 l 515 414 z m 376 333 l 431 365 l 438 360 l 394 333 z m 336 311 l 342 304 l 211 228 l 194 228 z m 364 328 l 382 328 l 349 308 l 342 314 z m 646 472 l 653 467 l 454 351 l 453 353 l 474 374 z m 407 333 l 442 354 l 444 353 l 426 336 l 424 333 z m 347 300 l 353 293 l 242 228 l 224 228 z m 394 328 l 413 328 l 360 297 l 353 303 z m 358 289 l 364 282 l 272 228 l 254 228 z m 410 318 l 385 294 l 371 286 l 364 292 z m 436 333 l 453 343 l 460 338 l 454 333 z m 460 347 l 657 463 l 664 456 l 465 340 z m 454 328 l 469 328 l 471 326 l 382 275 l 378 278 l 392 290 z m 285 228 l 368 278 l 344 253 l 301 228 z m 469 336 l 668 451 l 675 444 l 483 333 l 472 333 z m 442 328 l 408 308 l 428 328 z m 475 322 l 482 315 l 393 264 l 386 271 z m 485 328 l 501 328 l 488 319 l 481 325 z m 314 228 l 326 236 l 319 228 z m 496 333 l 679 440 l 681 439 l 660 418 l 514 333 z m 350 249 l 381 267 l 386 260 l 332 228 l 329 228 z m 367 267 l 374 272 l 375 271 z m 486 311 l 492 304 l 404 253 l 397 260 z m 514 328 l 532 328 l 499 308 l 492 314 z m 332 222 l 350 222 l 285 183 l 308 208 z m 526 333 l 642 401 l 618 376 l 544 333 z m 344 228 l 390 256 l 397 249 l 361 228 z m 497 300 l 503 293 l 414 242 l 408 249 z m 544 328 l 563 328 l 510 297 l 503 303 z m 363 222 l 379 222 l 243 143 l 268 167 z m 557 333 l 601 360 l 576 336 l 574 333 z m 374 228 l 401 244 l 408 239 l 392 228 z m 508 289 l 514 282 l 425 231 l 419 238 z m 560 318 l 536 294 l 521 286 l 514 292 z m 392 222 l 410 222 l 226 115 l 221 119 l 226 125 z m 404 228 l 413 233 l 418 228 z m 433 228 l 518 278 l 494 253 l 451 228 z m 422 222 l 425 222 l 431 217 l 236 104 l 231 111 z m 604 328 l 622 328 l 532 275 l 528 278 l 542 290 z m 592 328 l 558 308 l 578 328 z m 464 228 l 476 236 l 469 228 z m 435 211 l 442 206 l 247 93 l 242 100 z m 451 222 l 463 222 l 453 213 l 447 208 l 442 215 z m 500 250 l 531 267 l 536 260 l 482 228 l 479 228 z m 536 271 l 635 328 l 651 328 l 543 264 z m 439 222 l 436 219 l 435 222 z m 517 267 l 524 272 l 525 271 z m 482 222 l 500 222 l 458 197 l 453 203 l 458 208 z m 253 89 l 436 194 b 411 171 428 186 419 179 l 258 82 z m 494 228 l 540 256 l 547 249 l 511 228 z m 547 260 l 664 328 l 682 328 l 553 253 z m 263 78 l 394 154 l 371 129 l 269 71 z m 513 222 l 529 222 l 469 188 l 463 193 z m 524 228 l 551 244 l 558 239 l 542 228 z m 558 249 l 694 328 l 711 328 l 564 242 z m 274 67 l 353 113 l 329 89 l 281 60 z m 542 222 l 560 222 l 481 176 l 474 182 z m 554 228 l 563 233 l 568 228 z m 569 238 l 724 328 l 733 328 l 733 322 l 575 231 z m 285 56 l 313 71 l 290 50 z m 572 222 l 575 222 l 581 217 l 492 165 l 485 171 z m 583 228 l 733 315 l 733 304 l 601 228 z m 585 211 l 592 206 l 503 154 l 496 160 z m 614 228 l 733 297 l 733 288 l 632 228 z m 596 200 l 603 194 l 514 143 l 507 149 z m 644 228 l 733 281 l 733 269 l 661 228 z m 607 190 l 614 183 l 525 132 l 518 139 z m 674 228 l 733 263 l 733 253 l 692 228 z m 618 179 l 624 172 l 535 121 l 529 128 z m 704 228 l 733 246 l 733 235 b 721 228 729 232 725 231 z m 629 168 l 635 161 l 546 110 l 540 117 z m 640 157 l 646 150 l 557 99 l 551 106 z m 651 146 l 657 139 l 568 88 l 563 94 z m 661 135 l 668 128 l 579 76 l 574 83 z m 672 124 l 675 121 l 663 108 l 590 65 l 583 72 z m 646 90 l 621 67 l 601 56 l 594 61 z "},"+":{"ha":897,"x_min":0,"x_max":0,"o":"m 728 486 l 719 486 l 719 333 l 506 333 l 506 556 l 656 556 l 656 563 l 506 563 l 506 685 l 497 685 l 497 563 l 400 563 l 400 685 l 392 685 l 392 563 l 239 563 l 239 556 l 392 556 l 392 333 l 169 333 l 169 492 l 163 492 l 163 333 l 42 333 l 42 328 l 163 328 l 163 228 l 42 228 l 42 222 l 163 222 l 163 75 l 169 75 l 169 222 l 392 222 l 392 6 l 233 6 l 233 -3 l 392 -3 l 392 -129 l 400 -129 l 400 -3 l 497 -3 l 497 -129 l 506 -129 l 506 -3 l 650 -3 l 650 6 l 506 6 l 506 222 l 719 222 l 719 69 l 728 69 l 728 222 l 856 222 l 856 228 l 728 228 l 728 328 l 856 328 l 856 333 l 728 333 z m 429 556 l 447 556 l 400 528 l 400 539 z m 417 556 l 400 546 l 400 556 z m 460 556 l 476 556 l 400 511 l 400 521 z m 489 556 l 497 556 l 497 550 l 400 493 l 400 504 z m 497 543 l 497 533 l 400 476 l 400 486 z m 497 526 l 497 515 l 400 458 l 400 469 z m 497 508 l 497 499 l 400 442 l 400 451 z m 185 328 l 201 328 l 169 308 l 169 318 z m 172 328 l 169 325 l 169 328 z m 497 492 l 497 481 l 400 424 l 400 435 z m 214 328 l 232 328 l 169 290 l 169 301 z m 497 474 l 497 464 l 400 407 l 400 417 z m 244 328 l 263 328 l 169 274 l 169 283 z m 497 457 l 497 446 l 400 389 l 400 400 z m 275 328 l 292 328 l 169 256 l 169 267 z m 497 439 l 497 429 l 400 372 l 400 382 z m 304 328 l 322 328 l 169 239 l 169 249 z m 497 422 l 497 411 l 400 354 l 400 365 z m 335 328 l 351 328 l 182 228 l 169 228 l 169 232 z m 497 404 l 497 394 l 400 338 l 400 347 z m 194 228 l 364 328 l 382 328 l 211 228 z m 224 228 l 392 326 l 392 315 l 242 228 z m 497 388 l 497 376 l 424 333 l 407 333 z m 254 228 l 392 308 l 392 299 l 272 228 z m 425 328 l 442 328 l 400 303 l 400 313 z m 497 369 l 497 360 l 454 333 l 436 333 z m 413 328 l 400 319 l 400 328 z m 285 228 l 392 292 l 392 281 l 301 228 z m 454 328 l 472 328 l 400 285 l 400 296 z m 497 353 l 497 342 l 483 333 l 467 333 z m 314 228 l 392 274 l 392 264 l 332 228 z m 485 328 l 497 328 l 497 325 l 400 268 l 400 278 z m 497 335 l 497 333 l 496 333 z m 344 228 l 392 257 l 392 246 l 361 228 z m 514 328 l 532 328 l 506 311 l 506 322 z m 400 261 l 497 318 l 497 307 l 400 250 z m 374 228 l 392 239 l 392 229 l 392 228 z m 544 328 l 561 328 l 506 294 l 506 304 z m 400 243 l 497 300 l 497 290 l 400 233 z m 574 328 l 592 328 l 506 276 l 506 288 z m 404 228 l 497 283 l 497 272 l 421 228 z m 604 328 l 622 328 l 506 260 l 506 269 z m 433 228 l 497 265 l 497 256 l 451 228 z m 422 222 l 439 222 l 400 199 l 400 208 z m 410 222 l 400 215 l 400 222 z m 635 328 l 651 328 l 506 242 l 506 253 z m 464 228 l 497 249 l 497 238 l 482 228 z m 451 222 l 469 222 l 400 181 l 400 192 z m 664 328 l 682 328 l 511 228 l 506 228 l 506 235 z m 494 228 l 497 231 l 497 228 z m 482 222 l 497 222 l 497 221 l 400 164 l 400 174 z m 694 328 l 711 328 l 542 228 l 524 228 z m 400 157 l 497 214 l 497 203 l 400 146 z m 400 139 l 497 196 l 497 186 l 400 129 z m 719 325 l 719 315 l 571 228 l 554 228 z m 400 122 l 497 179 l 497 168 l 400 111 z m 719 307 l 719 297 l 601 228 l 583 228 z m 400 104 l 497 161 l 497 151 l 400 94 z m 719 290 l 719 281 l 632 228 l 614 228 z m 400 88 l 497 144 l 497 133 l 400 76 z m 719 272 l 719 263 l 661 228 l 644 228 z m 400 69 l 497 126 l 497 117 l 400 60 z m 719 256 l 719 246 l 692 228 l 674 228 z m 400 53 l 497 110 l 497 99 l 400 42 z m 719 238 l 719 228 l 704 228 b 719 238 710 231 714 235 z m 400 35 l 497 92 l 497 82 l 400 25 z m 400 18 l 497 75 l 497 64 l 400 7 z m 407 6 l 497 57 l 497 47 l 425 6 z m 438 6 l 497 40 l 497 29 l 456 6 z m 468 6 l 497 22 l 497 13 l 485 6 z "},",":{"ha":432,"x_min":0,"x_max":0,"o":"m 124 -154 l 142 -136 l 142 -172 z m 275 -289 l 275 -4 l 275 -3 l 347 -3 l 347 3 l 282 3 l 333 56 l 329 61 l 275 7 l 275 122 l 325 122 l 325 128 l 275 128 l 275 199 l 268 199 l 268 128 l 149 128 l 149 199 l 142 199 l 142 128 l 90 128 l 90 122 l 142 122 l 142 3 l 56 3 l 56 -3 l 136 -3 l 129 -10 l 128 -11 l 110 -29 l 110 -28 l 83 -54 l 82 -56 l 53 -83 l 21 -51 l 17 -57 l 47 -87 l -78 -207 l -72 -212 l 53 -93 l 114 -154 l -29 -297 l -25 -303 l 119 -160 l 142 -183 l 142 -289 l 149 -289 l 149 -190 l 204 -244 l 208 -239 l 149 -179 l 149 -129 l 268 -11 l 268 -289 z m 160 122 l 176 122 l 149 106 l 149 115 z m 189 122 l 207 122 l 149 89 l 149 99 z m 219 122 l 238 122 l 149 71 l 149 81 z m 249 122 l 267 122 l 149 54 l 149 64 z m 268 115 l 268 104 l 149 36 l 149 46 z m 204 61 l 268 97 l 268 88 l 201 49 l 208 56 z m 149 29 l 203 60 l 176 35 l 149 19 z m 182 31 l 268 81 l 268 69 l 156 4 z m 149 11 l 157 15 l 149 8 z m 165 3 l 268 63 l 268 53 l 183 3 z m 153 -3 l 171 -3 l 149 -15 l 149 -6 z m 142 -10 l 142 -19 l 108 -39 l 136 -14 z m 196 3 l 268 46 l 268 35 l 213 3 z m 183 -3 l 201 -3 l 149 -33 l 149 -24 z m 142 -28 l 142 -37 l 63 -83 l 90 -58 z m 225 3 l 268 28 l 268 18 l 243 3 z m 214 -3 l 231 -3 l 149 -50 l 149 -40 z m 61 -92 l 142 -44 l 142 -54 l 68 -99 z m 256 3 l 268 11 l 268 3 z m 243 -3 l 261 -3 l 149 -68 l 149 -58 z m 72 -103 l 142 -62 l 142 -72 l 79 -110 z m 149 -75 l 253 -15 l 228 -39 l 149 -85 z m 83 -114 l 142 -79 l 142 -89 l 89 -119 z m 149 -93 l 211 -57 l 188 -81 l 149 -103 z m 94 -125 l 142 -97 l 142 -107 l 100 -131 z m 149 -110 l 169 -99 l 149 -118 z m 106 -136 l 142 -114 l 142 -124 l 111 -142 z m 117 -147 l 129 -139 l 119 -149 z "},"-":{"ha":690,"x_min":0,"x_max":0,"o":"m 568 0 l 568 222 l 628 222 l 628 228 l 568 228 l 568 328 l 628 328 l 628 333 l 568 333 l 568 556 l 561 556 l 561 333 l 128 333 l 128 561 l 122 561 l 122 333 l 69 333 l 69 328 l 122 328 l 122 228 l 69 228 l 69 222 l 122 222 l 122 6 l 128 6 l 128 222 l 561 222 l 561 0 z m 554 228 l 561 233 l 561 228 z m 542 228 l 524 228 l 561 250 l 561 240 z m 511 228 l 494 228 l 561 268 l 561 257 z m 482 228 l 464 228 l 561 285 l 561 275 z m 451 228 l 433 228 l 561 303 l 561 292 z m 421 228 l 404 228 l 561 319 l 561 310 z m 392 228 l 374 228 l 544 328 l 561 328 l 561 326 z m 361 228 l 344 228 l 514 328 l 532 328 z m 332 228 l 314 228 l 485 328 l 501 328 z m 301 228 l 285 228 l 454 328 l 472 328 z m 272 228 l 254 228 l 425 328 l 442 328 z m 242 228 l 224 228 l 394 328 l 413 328 z m 211 228 l 194 228 l 364 328 l 382 328 z m 182 228 l 164 228 l 335 328 l 351 328 z m 151 228 l 135 228 l 304 328 l 322 328 z m 292 328 l 128 232 l 128 243 l 275 328 z m 263 328 l 128 250 l 128 260 l 244 328 z m 232 328 l 128 267 l 128 278 l 214 328 z m 201 328 l 128 285 l 128 294 l 185 328 z m 172 328 l 128 301 l 128 313 l 154 328 z m 142 328 l 128 319 l 128 328 z "},".":{"ha":361,"x_min":0,"x_max":0,"o":"m 232 199 l 232 128 l 114 128 l 114 199 l 108 199 l 108 128 l 56 128 l 56 122 l 108 122 l 108 3 l 21 3 l 21 -3 l 108 -3 l 108 -83 l 114 -83 l 114 -3 l 232 -3 l 232 -83 l 240 -83 l 240 -3 l 313 -3 l 313 3 l 240 3 l 240 122 l 290 122 l 290 128 l 240 128 l 240 199 z m 219 3 l 201 3 l 232 22 l 232 11 z m 189 3 l 171 3 l 232 39 l 232 29 z m 158 3 l 142 3 l 232 57 l 232 46 z m 129 3 l 114 3 l 114 6 l 232 74 l 232 64 z m 114 13 l 114 22 l 232 92 l 232 81 z m 114 31 l 114 40 l 232 108 l 232 99 z m 114 47 l 114 57 l 225 122 l 232 122 l 232 115 z m 122 122 l 114 117 l 114 122 z m 135 122 l 153 122 l 114 100 l 114 110 z m 165 122 l 183 122 l 114 82 l 114 92 z m 196 122 l 213 122 l 114 65 l 114 75 z "},"/":{"ha":1015,"x_min":0,"x_max":0,"o":"m 256 864 l 496 864 l 136 3 l 44 3 l 44 -3 l 133 -3 l 47 -208 l 54 -211 l 140 -3 l 293 -3 l 207 -208 l 214 -211 l 300 -3 l 557 -3 l 557 3 l 303 3 l 664 864 l 839 864 l 839 872 l 667 872 l 749 1068 l 742 1071 l 658 872 l 507 872 l 589 1068 l 582 1071 l 499 872 l 256 872 z m 513 864 l 531 864 l 494 844 l 500 857 z m 543 864 l 561 864 l 485 821 l 490 835 z m 574 864 l 590 864 l 476 799 l 482 811 z m 603 864 l 621 864 l 467 775 l 472 789 z m 633 864 l 650 864 l 457 753 l 463 765 z m 653 860 l 647 846 l 447 729 l 453 743 z m 644 836 l 639 822 l 438 707 b 443 719 439 711 442 715 z m 635 814 l 629 800 l 428 683 l 433 697 z m 625 790 l 619 776 l 418 661 l 424 674 z m 615 768 l 610 754 l 408 638 l 414 651 z m 606 744 l 600 731 l 399 615 l 404 628 z m 596 722 b 590 708 594 718 592 713 l 389 592 l 396 606 z m 586 699 l 581 685 l 381 569 l 386 582 z m 576 676 l 571 663 l 371 546 l 376 560 z m 567 653 l 561 639 l 361 524 l 367 536 z m 558 631 l 551 617 l 351 500 l 357 514 z m 549 607 l 543 593 l 342 478 l 347 490 z m 539 585 l 533 571 l 332 454 l 338 468 z m 529 561 l 524 547 l 322 432 l 328 444 z m 519 539 l 514 525 l 313 408 l 318 422 z m 510 515 l 504 501 l 303 386 l 308 399 z m 500 493 l 494 479 l 294 363 l 300 376 z m 490 469 l 485 457 l 285 340 l 290 353 z m 481 447 l 475 433 l 275 317 l 281 331 z m 471 424 l 465 411 l 265 294 l 271 307 z m 463 401 l 457 388 l 256 271 l 261 285 z m 453 378 l 447 365 l 246 249 l 251 261 z m 443 356 l 438 342 l 236 225 l 242 239 z m 433 332 l 428 319 l 226 203 l 232 215 z m 424 310 l 418 296 l 217 179 l 222 193 z m 414 286 l 408 274 l 207 157 l 214 169 z m 404 264 l 399 250 l 199 133 l 204 147 z m 394 240 l 389 228 l 189 111 l 194 124 z m 385 218 l 379 204 l 179 88 l 185 101 z m 376 194 l 371 182 l 169 65 l 175 78 z m 367 172 l 361 158 l 160 42 l 165 56 z m 357 149 l 351 136 l 150 19 l 156 33 z m 347 126 l 342 113 l 153 3 l 143 3 l 146 10 z m 338 103 l 332 90 l 183 3 l 165 3 z m 328 81 l 322 67 l 213 3 l 196 3 z m 318 57 b 313 44 317 53 314 49 l 243 3 l 225 3 z m 308 35 l 303 21 l 272 3 l 256 3 z m 299 11 l 296 3 l 285 3 z "},":":{"ha":361,"x_min":0,"x_max":0,"o":"m 233 428 l 233 128 l 114 128 l 114 428 z m 233 629 l 233 558 l 114 558 l 114 629 l 107 629 l 107 558 l 56 558 l 56 553 l 107 553 l 107 433 l 49 433 l 49 428 l 107 428 l 107 128 l 56 128 l 56 122 l 107 122 l 107 3 l 21 3 l 21 -3 l 107 -3 l 107 -83 l 114 -83 l 114 -3 l 233 -3 l 233 -83 l 239 -83 l 239 -3 l 313 -3 l 313 3 l 239 3 l 239 122 l 269 122 l 269 128 l 239 128 l 239 428 l 292 428 l 292 433 l 239 433 l 239 553 l 290 553 l 290 558 l 239 558 l 239 629 z m 225 3 l 233 8 l 233 3 z m 213 3 l 196 3 l 233 25 l 233 15 z m 183 3 l 165 3 l 233 43 l 233 32 z m 153 3 l 135 3 l 233 60 l 233 50 z m 122 3 l 114 3 l 114 8 l 233 78 l 233 67 z m 114 17 l 114 26 l 233 94 l 233 85 z m 114 33 l 114 43 l 233 113 l 233 101 z m 114 51 l 114 61 l 219 122 l 233 122 l 233 119 z m 114 68 l 114 78 l 189 122 l 207 122 z m 114 86 l 114 96 l 160 122 l 176 122 z m 114 103 l 114 113 l 129 122 l 147 122 z m 114 121 l 114 122 l 117 122 z m 207 433 l 189 433 l 233 460 l 233 449 z m 219 433 l 233 442 l 233 433 z m 176 433 l 160 433 l 233 476 l 233 467 z m 147 433 l 129 433 l 233 494 l 233 483 z m 117 433 l 114 433 l 114 443 l 233 511 l 233 501 z m 114 450 l 114 460 l 233 529 l 233 518 z m 114 468 l 114 478 l 233 546 l 233 536 z m 231 553 l 114 485 l 114 494 l 214 553 z m 201 553 l 114 503 l 114 513 l 183 553 z m 171 553 l 114 519 l 114 529 l 153 553 z m 140 553 l 114 538 l 114 547 b 124 553 117 549 121 551 z "},"A":{"ha":1146,"x_min":0,"x_max":0,"o":"m 507 872 l 579 1046 l 651 872 z m 424 292 l 579 664 l 735 292 z m 303 3 l 361 142 l 797 142 l 856 3 z m 119 283 l 253 283 l 197 150 l 76 150 l 76 142 l 194 142 l 136 3 l 44 3 l 44 -3 l 133 -3 l 47 -208 l 54 -211 l 140 -3 l 293 -3 l 207 -208 l 214 -211 l 300 -3 l 858 -3 l 944 -211 l 951 -208 l 865 -3 l 1018 -3 l 1104 -211 l 1111 -208 l 1025 -3 l 1103 -3 l 1103 3 l 1022 3 l 964 142 l 1086 142 l 1086 150 l 961 150 l 906 283 l 1033 283 l 1033 292 l 903 292 l 663 864 l 664 864 l 886 864 l 886 872 l 667 872 l 749 1068 l 742 1071 l 658 872 l 583 1054 l 589 1068 l 582 1071 l 579 1064 l 576 1071 l 569 1068 l 575 1054 l 500 872 l 417 1071 l 410 1068 l 492 872 l 256 872 l 256 864 l 494 864 l 496 864 l 256 292 l 119 292 z m 1004 3 l 1013 8 l 1015 3 z m 992 3 l 975 3 l 1007 22 l 1010 14 z m 963 3 l 944 3 l 1001 36 l 1004 28 z m 932 3 l 915 3 l 996 50 l 999 42 z m 903 3 l 885 3 l 989 64 l 993 56 z m 872 3 l 863 3 l 861 7 l 983 78 l 988 69 z m 981 83 l 858 13 l 856 21 l 978 92 z m 975 97 l 853 26 l 850 35 l 972 106 z m 969 111 l 847 40 l 843 49 l 967 119 z m 964 126 l 842 54 l 838 63 l 960 133 z m 958 140 l 835 69 l 832 76 l 944 142 l 957 142 z m 932 142 l 829 83 l 826 90 l 915 142 z m 944 150 l 926 150 l 949 163 l 951 154 z m 903 142 l 824 97 l 821 106 l 885 142 z m 914 150 l 897 150 l 943 176 l 946 168 z m 872 142 l 818 111 l 814 119 l 854 142 z m 885 150 l 867 150 l 938 190 l 940 182 z m 843 142 l 813 125 l 808 133 l 825 142 z m 854 150 l 838 150 l 931 204 l 935 196 z m 813 142 l 806 139 l 804 142 z m 825 150 l 807 150 l 925 218 l 929 210 z m 922 224 l 800 153 l 797 161 l 919 232 z m 776 150 l 790 157 l 794 150 z m 764 150 l 747 150 l 785 171 l 789 163 z m 917 238 l 794 167 l 790 175 l 914 246 z m 735 150 l 717 150 l 779 185 b 782 178 781 182 781 181 z m 911 251 l 789 181 l 785 189 l 907 260 z m 704 150 l 688 150 l 774 199 l 776 192 z m 906 265 l 783 194 l 779 203 l 901 274 z m 675 150 l 657 150 l 767 214 l 771 206 z m 900 279 l 776 208 l 774 217 l 890 283 l 897 283 z m 644 150 l 626 150 l 761 228 l 765 219 z m 889 292 l 872 292 l 890 301 l 893 293 z m 878 283 l 771 222 l 768 231 l 860 283 z m 614 150 l 597 150 l 756 242 l 760 233 z m 860 292 l 842 292 l 885 315 l 888 307 z m 847 283 l 765 236 l 761 244 l 829 283 z m 585 150 l 567 150 l 750 256 l 753 247 z m 829 292 l 811 292 l 878 329 l 882 321 z m 817 283 l 760 250 l 756 258 l 800 283 z m 554 150 l 538 150 l 744 269 l 747 261 z m 799 292 l 782 292 l 872 343 l 876 336 z m 788 283 l 753 264 l 750 272 l 769 283 z m 525 150 l 507 150 l 738 283 l 742 275 z m 769 292 l 751 292 l 867 357 l 871 350 z m 757 283 l 747 278 l 746 283 z m 303 21 l 272 3 l 256 3 l 308 35 z m 299 11 l 296 3 l 285 3 z m 494 150 l 478 150 l 710 283 l 728 283 z m 742 293 l 739 300 l 861 372 l 864 364 z m 313 44 l 243 3 l 225 3 l 318 57 b 313 44 317 53 314 49 z m 736 307 l 732 314 l 856 386 l 858 378 z m 465 150 l 447 150 l 679 283 l 697 283 z m 322 67 l 213 3 l 196 3 l 328 81 z m 731 321 l 726 329 l 849 400 l 853 392 z m 435 150 l 417 150 l 650 283 l 667 283 z m 332 90 l 183 3 l 165 3 l 338 103 z m 724 335 l 721 343 l 843 414 l 847 406 z m 404 150 l 388 150 l 619 283 l 638 283 z m 342 113 l 153 3 l 143 3 l 146 10 l 347 126 z m 718 349 l 715 357 l 838 428 l 840 419 z m 375 150 l 364 150 l 367 154 l 590 283 l 607 283 z m 351 136 l 150 19 l 156 33 l 346 142 l 354 142 z m 713 363 l 710 371 l 832 442 l 835 433 z m 333 142 l 160 42 l 165 56 l 315 142 z m 361 158 l 344 150 l 328 150 l 367 172 z m 578 283 l 371 164 l 376 178 l 560 283 z m 707 376 l 703 385 l 826 456 l 829 447 z m 303 142 l 169 65 l 175 78 l 285 142 z m 371 182 l 315 150 l 297 150 l 376 194 z m 547 283 l 381 188 l 386 200 l 531 283 z m 701 390 l 697 399 l 819 469 l 824 461 z m 272 142 l 179 88 l 185 101 l 256 142 z m 379 204 l 285 150 l 267 150 l 385 218 z m 518 283 l 390 210 l 396 224 l 500 283 z m 694 404 l 692 413 l 814 483 l 818 475 z m 243 142 l 189 111 l 194 124 l 225 142 z m 389 228 l 254 150 l 238 150 l 394 240 z m 488 283 l 399 233 l 404 246 l 469 283 z m 689 418 l 686 426 l 808 497 l 811 489 z m 213 142 l 199 133 l 201 142 z m 399 250 l 225 150 l 207 150 l 404 264 z m 457 283 l 408 256 l 414 269 l 440 283 z m 683 432 l 681 440 l 803 511 l 806 503 z m 408 274 l 207 157 l 214 169 l 410 283 l 413 283 z m 428 283 l 418 279 l 421 283 z m 678 446 l 674 454 l 797 525 l 800 517 z m 397 283 l 217 179 l 222 193 l 381 283 z m 418 296 l 410 292 l 392 292 l 424 310 z m 672 460 l 668 468 l 790 539 l 794 531 z m 368 283 l 226 203 l 232 215 l 350 283 z m 428 319 l 379 292 l 363 292 l 433 332 z m 665 474 l 663 482 l 785 553 l 789 544 z m 338 283 l 236 225 l 242 239 l 319 283 z m 438 342 l 350 292 l 332 292 l 443 356 z m 660 488 l 657 496 l 779 567 l 782 560 z m 307 283 l 246 249 l 251 261 l 290 283 z m 447 365 l 319 292 l 301 292 l 453 378 z m 654 503 l 651 510 l 774 581 l 776 574 z m 278 283 l 256 271 l 261 283 z m 457 388 l 289 292 l 272 292 l 463 401 z m 649 517 l 644 524 l 768 596 l 771 588 z m 465 411 l 265 294 l 271 307 l 471 424 z m 643 531 l 639 539 l 761 610 l 765 601 z m 475 433 l 275 317 l 281 331 l 481 447 z m 636 544 l 633 553 l 756 624 l 760 615 z m 485 457 l 285 340 l 290 353 l 490 469 z m 631 558 l 628 567 l 750 638 l 753 629 z m 494 479 l 294 363 l 300 376 l 500 493 z m 625 572 l 621 581 l 744 651 l 747 643 z m 504 501 l 303 386 l 308 399 l 510 515 z m 619 586 l 615 594 l 738 665 l 742 657 z m 514 525 l 313 408 l 318 422 l 519 539 z m 614 600 l 610 608 l 732 679 l 736 671 z m 524 547 l 322 432 l 328 444 l 529 561 z m 607 614 l 604 622 l 726 693 l 731 685 z m 533 571 l 332 454 l 338 468 l 539 585 z m 601 628 l 599 636 l 721 707 l 724 699 z m 543 593 l 342 478 l 347 490 l 549 607 z m 596 642 l 592 650 l 715 721 l 718 713 z m 551 617 l 351 500 l 357 514 l 558 631 z m 590 656 l 586 664 l 708 735 l 713 726 z m 561 639 l 361 524 l 367 536 l 567 653 z m 571 663 l 371 546 l 376 560 l 575 675 l 575 672 z m 583 669 l 583 672 l 586 682 l 703 749 l 707 740 z m 572 681 l 381 569 l 386 582 l 568 689 z m 578 683 l 575 692 l 586 699 l 581 685 z m 701 754 l 590 692 l 596 704 l 697 763 z m 567 694 l 389 592 l 396 606 l 563 703 z m 572 697 l 569 706 l 596 722 l 590 708 z m 694 768 l 600 714 l 606 728 l 692 776 z m 561 708 l 399 615 l 404 628 l 557 717 z m 567 711 l 563 719 l 606 744 l 600 731 z m 689 783 l 610 738 l 615 750 l 686 790 z m 554 722 l 408 638 l 414 651 l 551 731 z m 561 726 l 557 733 l 615 768 b 610 754 614 764 611 758 z m 683 797 l 619 760 l 625 774 l 679 804 z m 549 736 l 418 661 l 424 674 l 546 744 z m 554 740 l 551 747 l 625 790 l 619 776 z m 678 811 l 629 783 l 635 796 l 674 819 z m 543 750 l 428 683 l 433 697 l 539 758 z m 549 754 l 546 763 l 635 814 l 629 800 z m 671 825 l 639 806 l 644 819 l 668 833 z m 538 764 l 438 707 b 443 719 439 711 442 715 l 533 772 z m 543 768 l 540 776 l 644 836 l 639 822 z m 665 839 l 649 829 l 654 842 l 663 847 z m 531 778 l 447 729 l 453 743 l 528 786 z m 538 782 l 533 790 l 653 860 l 647 846 z m 660 853 l 658 851 l 658 854 z m 525 792 l 457 753 l 463 765 l 522 800 z m 532 796 l 528 804 l 633 864 l 650 864 z m 519 806 l 467 775 l 472 789 l 517 814 z m 525 810 l 522 818 l 603 864 l 621 864 z m 514 819 l 476 799 l 482 811 l 510 828 z m 519 824 l 517 832 l 574 864 l 590 864 z m 508 835 l 485 821 l 490 835 l 504 842 z m 514 838 l 511 846 l 543 864 l 561 864 z m 501 849 l 494 844 l 500 854 z m 508 851 l 504 860 l 513 864 l 531 864 z "},"B":{"ha":932,"x_min":0,"x_max":0,"o":"m 789 725 l 650 725 l 650 864 l 789 864 z m 789 719 l 789 511 l 650 511 l 650 614 l 650 719 z m 497 161 b 438 254 463 178 438 213 b 497 347 438 296 463 331 z m 503 158 l 503 350 b 540 357 514 354 528 357 b 642 267 593 357 636 318 l 642 242 b 540 151 636 190 593 151 b 503 158 528 151 514 154 z m 351 719 b 289 654 322 708 300 683 l 289 719 z m 381 719 l 403 719 b 410 718 406 719 407 718 b 497 615 458 710 497 667 b 490 578 497 603 494 589 l 488 572 b 478 557 485 567 481 561 b 467 543 475 553 471 547 b 392 511 447 524 421 511 b 289 615 335 511 289 558 b 381 719 289 668 329 714 z m 771 364 b 650 486 746 417 703 461 l 650 503 l 789 503 l 789 364 z m 774 358 l 789 358 l 789 315 b 774 358 785 329 779 344 z m 599 3 b 642 18 614 7 628 13 l 642 3 z m 774 150 b 789 192 779 164 785 178 l 789 150 z m 771 142 l 789 142 l 789 3 l 650 3 l 650 21 b 771 142 703 46 746 89 z m 304 150 l 297 150 l 289 150 l 289 197 b 304 150 293 181 297 165 z m 304 358 b 289 310 297 343 293 326 l 289 358 z m 451 864 l 497 864 l 497 850 b 451 864 483 857 467 860 z m 624 725 b 503 846 599 778 556 821 l 503 864 l 642 864 l 642 725 z m 628 719 l 642 719 l 642 674 b 628 719 638 689 635 706 z m 628 511 b 642 556 635 525 638 540 l 642 511 z m 624 503 l 642 503 l 642 489 l 621 497 z m 157 719 l 157 718 b 142 710 151 715 147 713 l 142 719 z m 806 511 l 794 511 l 794 719 l 871 719 l 871 725 l 794 725 l 794 864 l 871 864 l 871 872 l 794 872 l 794 1061 l 789 1061 l 789 872 l 650 872 l 650 1061 l 642 1061 l 642 872 l 503 872 l 503 1061 l 497 1061 l 497 872 l 392 872 l 289 872 l 289 1061 l 281 1061 l 281 872 l 142 872 l 142 1061 l 136 1061 l 136 872 l 29 872 l 29 864 l 136 864 l 136 725 l 29 725 l 29 719 l 136 719 l 136 614 l 136 511 l 29 511 l 29 503 l 136 503 l 136 364 l 44 364 l 44 358 l 136 358 l 136 150 l 17 150 l 17 142 l 136 142 l 136 3 l 17 3 l 17 -3 l 136 -3 l 136 -210 l 142 -210 l 142 -3 l 281 -3 l 281 -210 l 289 -210 l 289 -3 l 497 -3 l 497 -210 l 503 -210 l 503 -3 l 539 -3 l 642 -3 l 642 -210 l 650 -210 l 650 -3 l 789 -3 l 789 -210 l 794 -210 l 794 -3 l 900 -3 l 900 3 l 794 3 l 794 142 l 900 142 l 900 150 l 794 150 l 794 235 b 796 253 794 242 796 246 b 794 272 796 260 794 265 l 794 358 l 856 358 l 856 364 l 794 364 l 794 503 l 806 503 z m 476 357 l 478 358 l 494 358 l 494 357 l 497 357 l 497 354 b 431 254 458 338 431 299 b 497 154 431 210 458 171 l 497 150 l 494 150 l 467 150 l 465 150 l 436 150 l 435 150 l 406 150 l 404 150 l 376 150 l 375 150 l 346 150 l 344 150 l 328 150 l 315 150 l 311 150 b 289 253 297 182 289 215 b 311 358 289 290 297 326 l 344 358 l 357 358 l 375 358 l 375 357 l 388 357 l 388 358 l 392 358 l 393 358 l 404 358 l 404 357 l 417 357 l 417 358 l 435 358 l 435 357 l 447 357 l 447 358 l 465 358 l 464 357 z m 650 31 l 650 40 l 721 82 b 689 53 711 71 700 61 z m 638 24 b 597 10 625 18 611 13 l 642 36 l 642 26 z m 650 47 l 650 58 l 747 114 b 733 97 743 108 738 103 z m 578 7 b 556 4 571 6 563 4 l 642 54 l 642 44 z m 650 65 l 650 75 l 763 140 b 754 126 760 135 757 131 z m 543 4 b 539 3 542 4 540 3 b 525 4 535 3 529 4 l 642 71 l 642 61 z m 764 150 l 747 150 l 772 164 b 767 151 771 160 768 156 z m 753 142 l 650 83 l 650 93 l 735 142 z m 642 79 l 515 4 b 503 6 511 4 507 6 l 503 8 l 642 89 z m 735 150 l 717 150 l 779 186 b 776 174 778 182 778 178 z m 722 142 l 650 100 l 650 110 l 706 142 z m 490 8 b 478 11 486 10 482 10 l 497 22 l 497 11 z m 642 96 l 503 15 l 503 25 l 642 106 z m 465 3 l 469 6 b 479 3 472 4 476 4 z m 704 150 l 688 150 l 785 206 b 782 194 783 201 783 199 z m 693 142 l 650 117 l 650 128 l 675 142 z m 469 14 b 458 17 465 15 463 15 l 497 39 l 497 29 z m 642 114 l 503 33 l 503 43 l 642 124 z m 453 3 l 435 3 l 450 13 b 461 8 454 11 457 10 z m 675 150 l 657 150 l 788 225 b 786 214 788 221 786 218 z m 663 142 l 650 135 l 650 142 z m 450 19 b 440 24 447 21 443 22 l 497 57 l 497 46 z m 642 131 l 503 50 l 503 60 l 642 140 z m 422 3 l 406 3 l 433 19 b 443 15 436 18 440 17 z m 650 151 l 650 163 l 789 243 l 789 235 b 788 232 789 233 788 233 z m 433 26 b 424 32 431 28 426 31 l 497 74 l 497 64 z m 632 142 l 503 68 l 503 78 l 615 142 z m 393 3 l 375 3 l 417 28 b 426 22 419 26 424 24 z m 626 150 l 642 158 l 642 150 z m 650 169 l 650 179 l 789 260 l 789 250 z m 417 35 b 408 40 414 36 411 39 l 497 92 l 497 81 z m 603 142 l 503 85 l 503 94 l 585 142 z m 363 3 l 346 3 l 401 36 b 410 31 404 35 407 32 z m 614 150 l 597 150 l 642 175 l 642 165 z m 650 186 l 650 197 l 788 278 b 789 272 788 276 789 274 l 789 267 z m 403 44 b 394 50 400 46 397 49 l 497 108 l 497 99 z m 572 142 l 503 103 l 503 113 l 556 142 z m 333 3 l 315 3 l 388 46 b 396 40 390 44 393 42 z m 585 150 l 572 150 b 622 182 592 156 610 167 l 642 193 l 642 183 z m 650 204 l 650 214 l 786 293 b 788 283 786 290 788 286 z m 642 200 l 632 194 b 640 210 635 199 638 204 l 642 210 z m 389 53 b 382 60 386 54 385 58 l 497 126 l 497 115 z m 543 142 l 503 119 l 503 129 l 525 142 z m 303 3 l 289 3 l 289 6 l 375 56 b 382 50 378 54 379 51 z m 376 64 b 369 69 374 65 372 67 l 494 142 l 497 142 l 497 133 z m 513 142 l 503 138 l 503 142 z m 289 13 l 289 22 l 364 67 b 369 60 367 64 367 61 z m 272 3 l 256 3 l 281 18 l 281 8 z m 650 221 l 650 232 l 783 308 b 785 300 783 306 785 303 z m 365 74 l 358 81 l 465 142 l 482 142 z m 289 29 l 289 40 l 353 76 b 358 71 354 74 356 74 z m 243 3 l 225 3 l 281 36 l 281 26 z m 650 239 l 650 242 l 650 250 l 779 324 b 781 315 781 321 779 318 z m 354 85 b 349 92 353 88 350 89 l 435 142 l 453 142 z m 289 47 l 289 57 l 342 89 b 347 82 343 86 346 85 z m 213 3 l 196 3 l 281 53 l 281 43 z m 650 257 l 650 267 l 774 339 b 776 331 775 336 775 333 z m 344 97 b 339 104 343 100 340 101 l 406 142 l 422 142 z m 289 64 l 289 75 l 332 100 b 338 93 333 97 336 96 z m 183 3 l 165 3 l 281 71 l 281 61 z m 650 274 l 650 283 l 768 353 l 772 344 z m 335 108 l 331 117 l 375 142 l 393 142 z m 289 82 l 289 92 l 324 113 b 329 106 325 110 328 108 z m 153 3 l 142 3 l 142 7 l 281 88 l 281 78 z m 764 358 l 650 290 l 650 301 l 747 358 z m 326 121 l 322 129 l 346 142 l 363 142 z m 289 99 l 289 110 l 317 125 b 321 118 318 122 319 121 z m 142 15 l 142 25 l 281 106 l 281 96 z m 763 367 l 763 364 l 758 364 z m 735 358 l 650 308 l 650 318 l 717 358 z m 760 372 l 746 364 l 729 364 l 754 379 b 760 372 756 376 758 375 z m 639 303 b 635 310 638 306 636 307 l 642 314 l 642 304 z m 319 135 b 315 142 318 138 317 139 l 333 142 z m 289 117 l 289 126 l 308 139 l 313 131 z m 142 32 l 142 42 l 281 122 l 281 113 z m 704 358 l 650 325 l 650 336 l 688 358 z m 751 385 l 717 364 l 699 364 l 747 392 b 751 385 749 389 750 388 z m 632 315 b 626 322 631 318 628 319 l 642 332 l 642 322 z m 303 142 l 289 133 l 289 142 z m 142 50 l 142 60 l 281 140 l 281 131 z m 675 358 l 650 343 l 650 353 b 657 358 653 354 654 357 z m 743 397 b 686 364 724 386 706 375 l 669 364 l 738 404 b 743 397 739 401 742 400 z m 622 328 b 615 333 621 331 618 332 l 642 349 l 642 339 z m 142 67 l 142 76 l 256 142 l 272 142 z m 735 410 l 657 364 l 650 364 l 650 371 l 728 417 b 735 410 729 414 733 413 z m 611 338 b 603 344 608 339 606 343 l 626 358 l 642 358 l 642 357 z m 142 85 l 142 94 l 225 142 l 243 142 z m 254 150 l 238 150 l 281 175 l 281 165 z m 267 150 l 281 157 l 281 150 z m 639 364 l 642 367 l 642 364 z m 626 364 l 608 364 l 642 383 l 642 374 z m 724 421 l 650 378 l 650 388 l 718 428 b 724 421 721 425 722 424 z m 597 347 b 589 353 594 349 592 351 l 597 358 l 614 358 z m 142 101 l 142 111 l 196 142 l 213 142 z m 225 150 l 207 150 l 281 192 l 281 182 z m 597 364 l 579 364 l 642 401 l 642 392 z m 714 432 l 650 394 l 650 406 l 707 439 b 714 432 710 438 711 435 z m 582 356 b 576 358 581 356 578 358 l 585 358 z m 142 119 l 142 129 l 165 142 l 183 142 z m 194 150 l 178 150 l 281 210 l 281 200 z m 567 364 l 549 364 l 642 418 l 642 408 z m 701 443 l 650 413 l 650 422 l 694 449 b 701 443 697 447 699 444 z m 142 136 l 142 142 l 153 142 z m 165 150 l 147 150 l 281 226 l 281 217 z m 536 364 l 519 364 l 642 436 l 642 426 z m 689 453 l 650 431 l 650 440 l 682 458 b 689 453 685 457 686 454 z m 281 235 l 142 154 l 142 164 l 281 244 z m 507 364 l 503 364 l 503 372 l 642 453 l 642 443 z m 676 463 l 650 447 l 650 457 l 668 468 b 676 463 671 467 674 464 z m 281 251 l 142 171 l 142 181 l 281 261 z m 489 364 l 497 369 l 497 364 z m 476 364 l 460 364 l 465 368 b 497 379 476 371 488 375 l 497 376 z m 503 381 l 503 383 b 569 429 528 394 550 411 l 642 471 l 642 461 z m 661 471 l 650 464 l 650 475 l 653 476 b 661 471 656 475 658 472 z m 281 269 l 142 189 l 142 199 l 281 279 z m 508 393 l 526 403 b 508 393 521 399 514 396 z m 465 375 b 436 368 456 372 446 369 l 497 404 l 497 393 z m 503 397 l 503 407 l 585 454 b 563 432 578 446 569 439 z m 585 444 b 600 464 590 450 596 457 l 636 485 b 642 481 639 483 639 482 l 642 478 z m 281 286 l 142 206 l 142 215 l 281 296 z m 419 367 b 400 365 413 367 407 365 l 497 421 l 497 411 z m 503 415 l 503 425 l 606 485 b 594 468 601 479 599 474 z m 608 475 b 618 490 611 481 615 485 b 628 488 622 489 624 489 z m 281 304 l 142 224 l 142 233 l 281 314 z m 497 428 l 388 365 l 371 365 l 497 439 z m 503 432 l 503 442 l 597 497 l 610 493 z m 281 321 l 142 240 l 142 250 l 281 331 z m 608 503 l 617 503 b 614 499 615 501 615 500 b 606 501 611 500 608 500 z m 608 511 l 592 511 l 628 532 l 624 519 z m 497 446 l 360 367 b 346 369 356 367 350 368 l 497 456 z m 503 450 l 503 460 l 575 501 b 588 499 579 501 583 500 z m 281 339 l 142 258 l 142 268 l 281 349 z m 579 511 l 561 511 l 635 553 b 632 542 633 549 633 546 z m 497 463 l 338 371 b 325 374 333 372 329 372 l 497 474 z m 329 365 l 326 364 l 315 364 b 317 369 317 365 315 368 z m 503 467 l 503 476 l 549 503 l 564 503 z m 549 511 l 539 511 l 531 511 l 639 572 b 636 561 639 568 638 565 z m 497 481 l 324 379 b 333 396 326 385 329 390 l 497 490 z m 536 503 l 503 485 l 503 494 l 518 503 z m 308 372 l 297 364 l 289 364 l 289 369 l 299 375 b 308 372 303 374 304 374 z m 281 356 l 142 275 l 142 285 l 267 358 l 281 358 z m 279 364 l 281 365 l 281 364 z m 319 389 b 314 378 317 385 315 382 b 306 381 311 379 308 379 z m 518 511 l 503 511 l 642 592 b 640 581 642 588 640 585 z m 497 497 l 343 408 b 361 429 349 415 354 422 l 475 496 b 497 500 482 497 490 499 z m 267 364 l 250 364 l 281 383 l 281 374 z m 290 379 l 289 376 l 289 379 z m 328 400 l 299 383 b 289 388 296 385 292 386 l 342 418 b 328 400 336 413 332 407 z m 254 358 l 142 293 l 142 303 l 238 358 z m 503 519 l 503 529 l 642 610 l 642 599 z m 446 486 l 385 450 b 446 486 403 464 424 478 z m 238 364 l 219 364 l 265 392 b 275 386 268 390 272 388 z m 356 433 l 289 394 l 289 404 l 394 467 b 356 433 381 457 368 446 z m 460 503 b 426 485 460 503 442 492 z m 489 511 l 471 511 l 497 525 l 497 515 z m 225 358 l 142 310 l 142 319 l 207 358 z m 272 396 l 281 400 l 281 390 b 272 396 278 392 275 394 z m 503 536 l 503 546 l 642 626 l 642 617 z m 267 399 b 257 404 264 400 260 403 l 281 418 l 281 408 z m 207 364 l 189 364 l 251 400 b 260 394 254 399 257 396 z m 447 503 l 289 411 l 289 422 l 429 503 z m 458 511 l 442 511 l 497 543 l 497 532 z m 194 358 l 142 328 l 142 338 l 178 358 z m 503 554 l 503 564 l 640 643 b 642 633 640 640 642 636 z m 251 408 b 244 414 249 410 247 413 l 281 435 l 281 425 z m 176 364 l 160 364 l 238 410 b 244 404 240 408 242 406 z m 417 503 l 289 429 l 289 439 l 399 503 z m 497 550 l 465 532 b 485 553 472 538 479 544 l 497 560 z m 165 358 l 142 344 l 142 354 l 147 358 z m 239 418 b 231 424 236 419 233 422 l 281 453 l 281 443 z m 147 364 l 142 364 l 142 372 l 225 419 b 232 414 228 418 229 415 z m 386 503 l 289 446 l 289 457 l 369 503 z m 503 571 l 503 581 l 639 660 b 640 650 639 657 640 653 z m 497 567 l 490 564 b 497 576 493 568 496 572 z m 226 428 b 219 435 224 429 222 432 l 281 469 l 281 460 z m 142 379 l 142 389 l 214 431 b 219 424 217 428 217 425 z m 357 503 l 289 464 l 289 474 l 339 503 z m 503 589 l 503 599 l 635 675 b 638 665 636 672 638 668 z m 215 439 b 208 446 213 442 210 443 l 281 488 l 281 478 z m 142 397 l 142 407 l 203 442 b 208 435 204 439 206 438 z m 326 503 l 289 481 l 289 492 l 310 503 z m 339 511 l 310 511 l 308 511 l 292 511 l 289 511 l 289 576 b 356 511 300 546 325 522 l 351 511 l 344 511 z m 503 606 l 503 615 l 631 690 b 633 681 632 688 632 683 z m 204 450 b 199 457 203 453 200 454 l 279 503 l 281 503 l 281 494 z m 142 414 l 142 424 l 193 453 b 199 446 194 450 197 449 z m 297 503 l 289 499 l 289 503 z m 503 624 l 503 633 l 626 704 b 629 696 628 701 628 699 z m 279 511 l 261 511 l 281 522 l 281 513 z m 194 461 b 189 468 193 464 190 465 l 249 503 l 267 503 z m 142 432 l 142 442 l 183 465 b 189 458 185 463 188 461 z m 503 640 l 503 650 l 619 718 l 624 710 z m 249 511 l 232 511 l 281 539 l 281 529 z m 186 474 b 181 481 185 476 182 478 l 219 503 l 238 503 z m 142 449 l 142 458 l 175 478 b 179 471 176 475 178 474 z m 608 719 l 503 658 l 503 668 l 592 719 z m 219 511 l 201 511 l 281 557 l 281 547 z m 178 486 l 174 494 l 189 503 l 207 503 z m 142 467 l 142 476 l 167 490 b 172 483 168 488 171 486 z m 614 732 b 617 725 615 731 615 726 l 603 725 z m 493 663 l 497 664 l 497 654 z m 579 719 l 503 675 l 503 685 l 561 719 z m 610 738 l 590 725 l 574 725 l 606 744 b 610 738 607 742 608 740 z m 490 668 b 486 675 489 671 488 672 l 497 682 l 497 671 z m 189 511 l 171 511 l 281 574 l 281 564 z m 171 500 b 168 503 171 501 168 501 l 176 503 z m 142 483 l 142 493 l 160 503 l 161 503 b 164 496 163 500 163 499 z m 549 719 l 503 693 l 503 703 b 531 719 513 708 521 714 z m 603 750 l 561 725 l 543 725 l 597 757 b 603 750 599 754 601 753 z m 482 681 b 476 688 481 683 478 685 l 497 699 l 497 689 z m 164 514 b 160 521 163 517 161 518 l 281 592 l 281 582 z m 147 503 l 142 501 l 142 503 z m 518 719 b 503 710 513 717 508 713 l 503 719 z m 594 763 l 531 725 l 513 725 l 589 769 b 594 763 590 767 593 765 z m 472 692 b 467 699 469 694 469 697 l 497 717 l 497 706 z m 158 528 b 156 536 157 531 157 533 l 281 608 l 281 599 z m 151 524 l 142 518 l 142 528 l 149 532 b 151 524 150 529 150 526 z m 154 518 b 157 511 156 515 156 514 l 142 511 z m 585 775 l 503 728 l 503 738 l 579 781 b 585 775 581 778 583 778 z m 461 703 b 453 708 458 704 456 707 l 471 719 l 489 719 b 461 703 479 714 471 708 z m 153 542 b 150 550 151 544 151 547 l 281 626 l 281 617 z m 147 539 l 142 536 l 142 546 l 144 547 b 147 539 146 544 146 542 z m 483 725 l 497 733 l 497 725 z m 575 786 l 503 744 l 503 754 b 568 792 525 767 546 779 b 575 786 571 789 574 789 z m 471 725 l 453 725 b 497 751 467 733 483 743 l 497 740 z m 447 713 b 438 717 444 714 440 715 b 442 719 439 717 440 719 l 458 719 z m 149 557 b 147 565 147 560 147 563 l 281 643 l 281 633 z m 143 553 l 142 553 l 142 556 b 143 553 142 554 143 554 z m 564 797 l 503 763 l 503 772 l 557 803 b 564 797 560 801 561 800 z m 440 725 l 424 725 l 497 768 l 497 758 z m 146 572 b 144 582 146 575 144 579 l 281 661 l 281 651 z m 551 807 l 503 779 l 503 789 l 544 813 b 551 807 547 811 549 808 z m 411 725 l 404 725 b 394 726 401 725 399 726 l 497 786 l 497 775 z m 143 589 l 143 599 l 281 678 l 281 668 z m 539 817 l 503 797 l 503 807 l 531 822 b 539 817 533 821 536 818 z m 381 726 l 381 725 l 364 725 l 497 803 l 497 793 z m 143 606 b 142 614 143 608 142 611 l 142 615 l 281 696 l 281 686 z m 525 826 l 503 814 l 503 824 l 517 832 b 525 826 519 831 522 828 z m 351 725 l 333 725 l 497 821 l 497 810 z m 143 622 l 143 633 l 281 713 l 281 703 z m 510 835 l 503 832 l 503 839 b 510 835 506 838 507 836 z m 321 725 l 303 725 l 497 838 l 497 828 z m 143 640 b 144 651 143 644 144 647 l 261 719 l 279 719 z m 290 725 l 289 725 l 289 735 l 483 847 b 493 843 486 846 490 844 z m 274 725 l 281 731 l 281 725 z m 146 660 b 149 671 147 664 147 667 l 232 719 l 249 719 z m 261 725 l 243 725 l 281 747 l 281 738 z m 289 742 l 289 751 l 465 854 b 476 850 469 853 472 851 z m 151 679 b 154 692 153 683 153 688 l 201 719 l 219 719 z m 231 725 l 214 725 l 281 765 l 281 756 z m 289 758 l 289 769 l 444 860 b 457 857 449 858 453 858 z m 142 675 l 142 685 l 146 686 b 143 675 144 682 144 679 z m 157 700 b 163 714 158 704 161 710 l 171 719 l 189 719 z m 201 725 l 183 725 l 281 782 l 281 772 z m 289 776 l 289 786 l 421 863 b 435 861 425 863 431 863 z m 142 692 l 142 701 l 153 708 l 149 696 z m 171 725 l 168 725 b 175 739 171 729 172 735 l 281 800 l 281 790 z m 289 793 l 289 804 l 393 864 l 410 864 z m 164 732 b 161 725 163 731 163 726 l 153 725 z m 281 807 l 182 750 l 194 767 l 281 817 z m 381 864 l 289 811 l 289 821 l 360 863 b 381 864 367 864 374 864 z m 169 742 l 142 726 l 142 736 l 179 758 b 169 742 175 753 172 747 z m 281 825 l 206 781 b 231 806 214 789 221 797 l 281 835 z m 342 860 l 289 828 l 289 839 l 308 850 b 342 860 319 854 331 857 z m 188 771 l 142 744 l 142 754 l 206 790 b 188 771 200 783 193 778 z m 224 808 l 142 761 l 142 771 l 281 851 l 281 846 b 224 808 260 836 240 824 z m 321 864 l 308 857 b 289 850 301 854 296 853 l 289 856 l 303 864 z m 281 860 l 142 779 l 142 789 l 274 864 l 281 864 z m 290 864 l 289 863 l 289 864 z m 261 864 l 142 796 l 142 806 l 243 864 z m 231 864 l 142 814 l 142 824 b 214 864 165 838 190 850 z m 201 864 l 142 831 l 142 840 l 183 864 z m 171 864 l 142 849 l 142 858 l 153 864 z "},"C":{"ha":1026,"x_min":0,"x_max":0,"o":"m 889 886 l 889 886 l 865 886 l 865 1065 l 857 1065 l 857 886 l 572 886 l 289 886 l 289 1065 l 281 1065 l 281 886 l 271 886 l 271 886 l 271 878 l 271 878 l 281 878 l 281 872 l 140 872 l 128 883 l 128 1065 l 128 1065 l 128 1065 l 121 1065 l 121 892 l 64 949 l 64 949 l 58 943 l 58 943 l 121 881 l 121 872 l 29 872 l 29 872 l 29 864 l 29 864 l 121 864 l 121 725 l 29 725 l 29 725 l 29 719 l 29 719 l 121 719 l 121 150 l 44 150 l 44 150 l 44 150 l 44 142 l 44 142 l 44 142 l 121 142 l 121 3 l 44 3 l 44 -3 l 121 -3 l 121 -12 l 54 -79 l 54 -79 l 60 -85 l 60 -85 l 121 -24 l 121 -210 l 122 -210 l 122 -210 l 128 -210 l 128 -17 l 142 -3 l 281 -3 l 281 -11 l 271 -11 l 271 -11 l 271 -17 l 271 -17 l 281 -17 l 281 -210 l 281 -210 l 281 -210 l 289 -210 l 289 -210 l 289 -210 l 289 -17 l 572 -17 l 857 -17 l 857 -210 l 865 -210 l 865 -17 l 889 -17 l 889 -17 l 889 -11 l 889 -11 l 865 -11 l 865 -3 l 942 -3 l 942 3 l 865 3 l 865 90 b 889 113 874 97 882 104 l 1015 -14 l 1015 -14 l 1017 -12 l 1017 -210 l 1025 -210 l 1025 433 l 1025 881 l 1088 943 l 1088 943 l 1082 949 l 1082 949 l 1025 892 l 1025 1065 l 1017 1065 l 1017 883 l 889 756 b 865 778 882 764 874 771 l 865 864 l 940 864 l 940 864 l 940 872 l 940 872 l 865 872 l 865 878 l 889 878 l 889 878 z m 894 750 l 1017 872 l 1017 519 b 979 632 1008 558 996 596 b 924 719 964 663 944 692 l 940 719 l 940 719 l 940 725 l 940 725 l 917 725 b 894 750 910 735 903 743 z m 924 150 b 935 164 928 154 932 160 b 1017 347 975 218 1003 279 l 1017 -4 l 894 118 b 917 142 903 125 910 133 l 942 142 l 942 142 l 942 142 l 942 150 l 942 150 l 942 150 z m 128 864 l 138 864 l 251 750 b 229 725 243 743 236 735 l 128 725 z m 128 874 l 129 872 l 128 872 z m 281 157 l 269 150 l 254 150 l 281 165 z m 281 174 l 240 150 l 231 150 b 228 154 231 151 229 153 l 281 183 z m 289 725 l 289 726 l 528 864 l 543 864 l 304 725 z m 289 743 l 497 864 l 513 864 l 289 733 z m 289 761 l 468 864 l 482 864 l 289 751 z m 289 776 b 300 785 292 779 296 782 l 404 844 b 444 860 417 850 431 856 l 289 769 z m 303 796 b 289 785 299 793 293 789 l 289 864 l 433 864 b 417 858 428 863 422 860 b 404 853 413 857 408 856 b 303 796 368 839 335 819 z m 289 3 l 289 83 b 438 3 332 49 382 21 z m 257 113 b 281 90 264 104 272 97 l 281 3 l 147 3 z m 229 142 b 232 138 231 140 231 139 l 232 138 b 251 118 239 131 244 125 l 138 3 l 128 3 l 128 142 z m 482 -7 b 488 -10 483 -8 486 -8 l 488 -10 b 493 -11 490 -10 492 -10 l 289 -11 l 289 -3 l 461 -3 b 471 -6 464 -4 468 -4 b 482 -7 475 -6 478 -7 z m 128 -6 l 128 -3 l 131 -3 z m 222 150 l 128 150 l 128 354 b 222 150 142 278 175 208 z m 568 142 l 572 142 l 586 142 l 390 29 b 381 33 388 31 383 32 z m 375 142 l 289 92 b 289 92 289 92 289 92 l 289 101 l 360 142 z m 346 142 l 289 108 l 289 118 l 329 142 z m 315 142 l 289 126 l 289 136 l 299 142 z m 239 142 l 254 142 l 243 136 b 239 142 242 138 240 139 z m 261 128 l 254 124 b 249 129 253 126 251 128 l 269 142 l 275 142 z m 289 171 l 325 192 l 303 169 l 289 161 z m 289 189 l 363 231 b 364 231 363 231 363 231 l 344 211 l 289 179 z m 289 206 l 353 242 b 357 236 354 240 356 238 l 289 196 z m 289 222 l 342 254 b 347 247 344 251 346 250 l 289 214 z m 289 240 l 333 265 b 338 260 335 264 336 261 l 289 232 z m 289 257 l 325 278 b 329 271 326 276 328 274 l 289 247 z m 289 275 l 317 292 b 321 285 318 289 319 288 l 289 265 z m 289 292 l 310 304 b 314 297 311 303 313 300 l 289 283 z m 289 310 l 304 318 b 307 311 306 315 306 314 l 289 300 z m 289 326 l 299 332 b 301 325 300 329 300 328 l 289 318 z m 289 344 l 293 347 b 296 339 294 344 296 342 l 289 335 z m 289 361 l 289 361 b 292 354 290 360 290 357 l 289 353 z m 776 643 b 775 644 776 643 776 643 l 779 646 z m 496 151 b 503 150 499 151 500 150 l 493 150 z m 486 154 l 479 150 l 464 150 l 478 157 b 486 154 481 157 483 156 z m 468 161 l 450 150 l 433 150 l 458 165 b 468 161 461 164 465 163 z m 450 168 l 419 150 l 403 150 l 442 172 b 450 168 444 171 447 169 z m 435 176 l 390 150 l 374 150 l 426 181 b 435 176 429 179 432 178 z m 419 185 l 360 150 l 343 150 l 411 190 b 419 185 414 188 417 186 z m 406 194 l 329 150 l 313 150 l 397 200 b 406 194 400 197 403 196 z m 310 165 l 385 210 b 392 204 388 207 390 206 l 299 150 l 294 150 z m 351 207 l 374 219 b 381 214 376 218 378 215 l 329 185 z m 281 122 l 265 113 b 261 117 264 114 263 115 l 269 125 l 281 132 z m 869 725 l 886 742 l 889 744 b 907 725 896 739 901 732 z m 865 756 l 865 765 l 868 765 b 874 760 869 764 872 763 z m 882 749 l 865 739 l 865 747 l 879 756 b 883 750 881 754 882 753 z m 913 719 b 1017 433 978 642 1017 542 b 950 199 1017 347 992 267 b 915 150 939 182 928 165 l 865 150 l 865 719 z m 632 872 l 635 874 b 643 872 638 874 640 872 z m 600 872 l 607 876 b 621 875 613 876 617 875 l 617 872 z m 572 872 l 581 878 b 594 878 585 878 590 878 l 586 872 z m 542 872 l 551 878 b 567 878 557 878 561 878 l 557 872 z m 511 872 l 515 874 b 533 876 521 875 528 875 l 526 872 z m 890 122 l 871 142 l 907 142 b 890 122 901 135 896 129 z m 281 739 l 281 732 l 276 736 z m 281 765 l 268 758 b 281 768 272 761 276 765 z m 281 746 l 271 742 l 265 747 l 281 756 z m 258 743 l 264 738 l 244 725 l 238 725 b 258 743 244 733 250 738 z m 857 785 b 771 840 831 807 801 825 b 711 864 751 849 732 857 l 857 864 z m 857 83 l 857 3 l 708 3 b 857 83 764 21 814 49 z m 358 654 b 353 660 357 656 356 657 l 456 719 l 472 719 z m 349 664 l 342 671 l 425 719 l 442 719 z m 338 675 l 332 681 l 396 719 l 411 719 z m 326 686 l 321 692 l 367 719 l 382 719 z m 315 697 l 310 703 b 336 719 318 708 326 714 l 351 719 z m 304 708 l 299 714 l 307 719 l 322 719 z m 467 706 b 454 700 463 704 458 703 l 486 719 l 501 719 b 489 713 497 717 493 715 b 467 706 482 711 474 708 z m 379 651 b 369 643 375 649 372 646 l 364 649 l 401 669 b 379 651 393 664 386 658 z m 865 100 l 865 106 l 883 115 b 865 100 878 110 871 104 z m 865 113 l 865 124 l 874 128 l 881 121 z m 865 131 l 865 136 l 869 132 z m 756 206 b 776 225 763 213 769 218 l 781 221 b 756 206 772 217 764 211 z m 824 150 l 842 160 l 847 154 l 839 150 z m 793 150 l 831 171 l 836 165 l 810 150 z m 763 150 l 819 182 l 825 176 l 779 150 z m 732 150 l 808 193 l 814 188 l 749 150 z m 703 150 l 797 204 l 803 199 l 719 150 z m 674 150 l 786 215 l 792 210 l 688 150 z m 643 150 b 644 151 644 150 644 150 b 679 163 657 154 668 157 l 658 150 z m 290 510 l 289 508 l 289 518 l 294 521 b 290 510 293 517 292 514 z m 297 531 l 289 525 l 289 535 l 301 542 b 297 531 300 539 299 535 z m 306 553 l 289 543 l 289 553 l 313 567 b 306 553 310 563 308 557 z m 319 579 l 289 561 l 289 571 l 329 593 b 319 579 325 589 322 583 z m 338 607 l 289 578 l 289 588 l 351 624 b 338 607 346 618 342 613 z m 363 639 l 289 596 l 289 604 l 357 644 z m 351 650 l 289 613 l 289 622 l 346 656 z m 342 660 l 289 631 l 289 639 l 335 667 z m 331 671 l 289 647 l 289 657 l 325 676 z m 319 682 l 289 665 l 289 674 l 314 688 z m 308 693 l 289 682 l 289 692 l 303 699 z m 297 704 l 289 700 l 289 708 l 292 710 z m 792 242 b 857 368 822 276 846 319 l 857 156 l 843 169 l 832 181 l 821 192 l 810 203 l 804 208 l 799 214 l 793 219 l 788 225 l 782 231 b 792 242 785 233 789 238 z m 782 638 l 857 713 l 857 500 b 782 638 844 553 818 600 z m 653 -11 b 685 -3 664 -8 674 -6 l 857 -3 l 857 -11 z m 281 864 l 281 778 b 257 756 272 771 264 764 l 149 864 z m 289 872 l 289 878 l 486 878 b 461 872 478 876 469 874 z m 683 872 b 658 878 675 874 667 876 l 857 878 l 857 872 z m 578 433 l 776 632 b 817 582 792 617 806 600 b 857 454 839 544 854 500 l 857 414 b 788 247 853 350 826 292 b 776 236 783 243 781 239 z m 572 439 l 375 638 b 386 649 378 642 382 644 b 572 719 436 692 501 719 l 574 719 b 721 676 628 718 678 703 b 771 638 739 665 756 653 z m 572 428 l 771 231 b 572 150 719 181 649 150 b 375 231 496 150 425 181 z m 567 433 l 369 236 b 289 433 319 286 289 357 b 369 632 289 510 319 581 z m 128 719 l 222 719 b 128 514 175 661 142 590 z m 258 725 l 269 732 l 275 726 l 275 725 z m 246 719 l 263 719 l 207 686 b 219 703 211 692 215 697 z m 233 719 l 231 717 b 232 719 231 718 232 718 z m 276 719 l 281 719 l 281 713 l 190 660 b 199 674 193 665 196 669 z m 319 725 l 557 864 l 571 864 l 333 725 z m 182 646 l 281 703 l 281 694 l 176 633 b 182 646 178 638 181 642 z m 347 725 l 586 864 l 603 864 l 364 725 z m 171 624 l 281 686 l 281 678 l 165 610 b 171 624 167 615 168 619 z m 379 725 l 618 864 l 633 864 l 394 725 z m 160 600 l 281 669 l 281 660 l 156 588 b 160 600 157 592 158 596 z m 408 725 l 647 864 l 661 864 l 424 725 z m 153 578 l 281 651 l 281 643 l 149 565 b 153 578 150 569 151 574 z m 438 725 l 675 864 l 683 864 b 689 863 685 864 688 863 l 454 725 z m 146 556 l 281 635 l 281 625 l 143 544 b 146 556 143 549 144 553 z m 468 725 l 699 860 b 710 856 703 858 706 857 l 483 725 z m 140 535 l 281 617 l 281 608 l 138 526 b 140 535 139 529 139 532 z m 497 725 l 718 853 b 728 850 721 853 725 851 l 514 725 z m 136 515 l 281 600 l 281 590 l 135 506 b 136 515 135 510 135 513 z m 133 497 l 281 583 l 281 574 l 132 486 b 133 497 132 490 132 494 z m 526 725 l 736 847 b 746 843 739 846 743 844 l 543 725 z m 131 478 l 281 565 l 281 556 l 129 468 b 131 478 131 471 131 475 z m 558 725 l 754 839 b 763 835 757 838 760 836 l 574 725 z m 129 460 l 281 547 l 281 538 l 129 450 b 129 460 129 453 129 457 z m 588 725 l 769 832 b 778 828 772 831 775 829 l 604 725 z m 129 443 l 281 531 l 281 521 l 128 433 l 128 433 b 129 443 128 438 129 440 z m 618 725 l 786 824 b 793 819 789 822 790 821 l 635 725 z m 129 425 l 281 513 l 281 504 l 129 417 b 129 425 129 419 129 422 z m 647 725 l 800 815 b 810 810 803 813 807 811 l 664 725 z m 129 408 l 281 496 l 281 486 l 129 400 b 129 408 129 403 129 406 z m 653 719 l 647 717 b 636 719 644 717 640 718 z m 667 719 l 682 719 l 668 710 b 657 714 664 711 661 713 z m 678 725 l 815 806 b 824 800 818 804 821 801 l 694 725 z m 131 392 l 281 478 l 281 468 l 132 383 b 131 392 131 386 131 389 z m 696 719 l 713 719 b 686 703 704 714 694 708 b 675 707 682 704 679 706 b 696 719 682 711 689 715 z m 708 725 l 829 796 b 836 790 832 794 835 793 l 725 725 z m 132 375 l 281 461 l 281 451 l 133 365 b 132 375 133 369 133 372 z m 726 719 l 742 719 l 701 696 b 693 700 699 697 696 699 b 726 719 704 706 715 713 z m 738 725 l 843 786 b 850 781 846 785 847 782 l 754 725 z m 135 360 l 281 444 l 281 433 l 136 350 b 135 360 136 354 135 357 z m 757 719 l 772 719 l 718 688 b 710 692 715 689 713 690 z m 768 725 l 856 776 b 857 775 856 776 857 775 l 857 768 l 783 725 z m 138 343 l 281 426 l 281 417 l 139 336 b 138 343 139 338 139 340 z m 786 719 l 801 719 l 732 679 b 725 683 729 681 726 682 z m 799 725 l 857 760 l 857 750 l 814 725 z m 142 329 l 281 410 l 281 399 l 143 319 b 142 329 143 322 142 326 z m 815 719 l 831 719 l 746 669 b 738 675 743 671 740 672 z m 828 725 l 857 743 l 857 733 l 843 725 z m 144 314 l 281 392 l 281 382 l 147 304 b 144 314 147 308 146 311 z m 846 719 l 853 719 l 838 704 l 758 660 b 751 665 756 661 753 663 z m 150 299 l 281 375 l 281 365 l 151 292 b 150 299 151 293 150 296 z m 764 654 l 821 688 l 799 665 l 771 649 b 764 654 768 650 767 653 z m 154 283 l 281 357 l 281 347 l 157 276 b 154 283 157 279 156 281 z m 160 269 l 281 340 l 281 331 l 163 263 b 160 269 163 264 161 267 z m 167 256 l 281 322 l 281 313 l 169 249 b 167 256 168 250 167 253 z m 172 242 l 281 304 l 281 296 l 176 235 b 172 242 175 238 174 239 z m 179 229 l 281 288 l 281 278 l 182 222 b 179 229 181 224 181 226 z m 186 214 l 281 271 l 281 261 l 190 207 b 186 214 189 210 188 213 z m 193 203 l 281 253 l 281 243 l 199 196 b 193 203 197 197 194 200 z m 201 189 l 281 235 l 281 226 l 207 183 b 201 189 204 185 203 188 z m 210 178 l 281 218 l 281 208 l 215 171 b 210 178 214 172 213 175 z m 219 165 l 281 200 l 281 192 l 224 158 b 219 165 222 161 221 163 z m 271 108 l 281 113 l 281 104 l 278 103 b 271 108 275 104 274 106 z m 296 88 l 389 142 l 406 142 l 303 82 b 296 88 300 83 297 85 z m 308 78 l 419 142 l 436 142 l 315 72 b 308 78 313 74 310 75 z m 321 68 l 450 142 l 465 142 l 329 63 b 321 68 326 64 324 67 z m 335 58 l 479 142 l 496 142 l 343 54 b 335 58 340 56 338 57 z m 350 50 l 508 142 l 525 142 l 358 44 b 350 50 356 46 353 49 z m 365 42 l 539 142 l 554 142 l 374 36 b 365 42 371 38 368 40 z m 399 25 l 599 142 l 614 142 l 408 21 b 399 25 404 22 401 24 z m 415 18 l 629 142 l 644 142 l 426 14 b 415 18 422 15 419 17 z m 435 11 l 658 142 l 674 142 l 444 8 b 435 11 440 10 438 11 z m 454 6 l 689 142 l 704 142 l 468 3 l 463 3 b 454 6 460 4 457 6 z m 479 3 l 718 142 l 735 142 l 496 3 z m 499 -3 l 514 -3 l 510 -6 b 499 -3 506 -6 501 -4 z m 510 3 l 749 142 l 765 142 l 525 3 z m 526 -3 l 546 -3 l 536 -8 b 519 -7 531 -8 525 -8 z m 539 3 l 778 142 l 796 142 l 557 3 z m 557 -3 l 574 -3 l 563 -10 b 546 -10 557 -10 551 -10 z m 568 3 l 808 142 l 824 142 l 586 3 z m 588 -3 l 603 -3 l 592 -10 b 575 -11 586 -10 581 -11 z m 599 3 l 839 142 l 854 142 l 615 3 z m 617 -3 l 633 -3 l 626 -7 b 607 -10 621 -8 614 -8 z m 629 3 l 857 135 l 857 126 l 644 3 z m 647 -3 l 651 -3 b 646 -4 650 -4 647 -4 z m 660 3 l 857 118 l 857 108 l 676 3 z m 732 18 b 696 7 719 14 708 10 l 857 100 l 857 92 b 853 89 856 92 854 90 z "},"D":{"ha":996,"x_min":0,"x_max":0,"o":"m 711 864 l 711 767 b 506 864 653 817 583 850 z m 711 3 l 506 3 b 711 101 583 17 653 51 z m 858 725 l 753 725 b 719 760 742 738 732 749 l 719 864 l 858 864 z m 858 719 l 858 513 b 760 719 844 590 810 661 z m 858 150 l 760 150 b 858 356 810 208 844 278 z m 858 142 l 858 3 l 719 3 l 719 108 b 753 142 732 119 742 129 z m 135 142 l 135 118 l 111 142 z m 289 719 l 361 719 b 289 690 335 714 311 703 z m 135 725 l 111 725 b 135 750 119 733 126 742 z m 135 719 l 135 150 l 104 150 b -3 433 38 226 -3 324 b 104 719 -3 543 38 643 z m 871 872 l 864 872 l 864 1063 l 858 1063 l 858 872 l 719 872 l 719 1063 l 711 1063 l 711 872 l 428 872 l 289 872 l 289 1063 l 281 1063 l 281 872 l 142 872 l 142 1063 l 135 1063 l 135 872 l 29 872 l 29 864 l 135 864 l 135 760 b 101 725 122 749 113 738 l 29 725 l 29 719 l 94 719 b -11 433 29 643 -11 542 b 94 150 -11 325 29 226 l 44 150 l 44 142 l 101 142 b 135 108 113 129 122 119 l 135 3 l 44 3 l 44 -3 l 135 -3 l 135 -210 l 142 -210 l 142 -3 l 281 -3 l 281 -210 l 289 -210 l 289 -3 l 428 -3 l 711 -3 l 711 -210 l 719 -210 l 719 -3 l 858 -3 l 858 -210 l 864 -210 l 864 -3 l 872 -3 l 872 3 l 864 3 l 864 142 l 872 142 l 872 150 l 864 150 l 864 433 l 864 719 l 871 719 l 871 725 l 864 725 l 864 864 l 871 864 z m 635 57 b 563 25 613 44 588 33 l 711 111 b 650 67 692 94 672 81 z m 538 18 b 508 11 528 15 518 13 l 711 129 l 711 119 z m 719 122 l 719 133 l 735 142 l 743 142 b 733 131 739 138 738 135 z m 747 150 l 753 153 l 750 150 z m 490 8 b 468 6 483 7 475 7 l 706 142 l 711 142 l 711 136 z m 719 140 l 719 142 l 722 142 z m 735 150 l 719 150 l 778 185 b 764 167 774 179 768 172 z m 454 4 l 435 4 l 675 142 l 693 142 z m 711 154 l 704 150 l 688 150 l 711 164 z m 786 197 l 719 157 l 719 168 l 796 213 b 786 197 793 207 790 203 z m 422 4 l 406 4 l 644 142 l 663 142 z m 711 171 l 675 150 l 657 150 l 711 181 z m 803 224 l 719 175 l 719 185 l 811 239 b 803 224 808 233 806 228 z m 394 4 b 379 6 389 4 385 6 l 615 142 l 632 142 z m 711 189 l 644 150 l 626 150 l 711 199 z m 815 249 l 719 192 l 719 203 l 822 263 b 815 249 821 258 818 253 z m 369 7 b 356 10 365 7 360 8 l 585 142 l 603 142 z m 711 206 l 614 150 l 597 150 l 711 215 z m 826 272 l 719 210 l 719 219 l 831 285 z m 346 3 l 346 4 b 349 3 347 4 347 3 z m 333 3 l 315 3 l 324 8 b 338 6 328 7 333 7 z m 346 11 b 333 14 342 13 338 13 l 556 142 l 572 142 z m 711 224 l 585 150 l 567 150 l 711 233 z m 835 294 l 719 226 l 719 238 l 839 307 z m 303 3 l 289 3 l 289 6 l 304 14 b 315 11 308 13 311 13 z m 324 15 b 313 19 319 17 317 18 l 525 142 l 543 142 z m 711 240 l 554 150 l 538 150 l 711 250 z m 842 315 l 719 244 l 719 254 l 844 328 b 842 315 843 324 843 319 z m 296 17 l 289 13 l 289 19 b 296 17 292 18 293 18 z m 281 8 l 272 3 l 256 3 l 281 18 z m 304 21 b 293 25 300 22 297 24 l 494 142 l 513 142 z m 711 258 l 525 150 l 507 150 l 522 158 b 619 214 558 171 592 189 l 711 268 z m 846 336 l 719 261 l 719 272 l 849 347 b 846 336 847 343 847 340 z m 711 275 l 639 232 l 656 253 l 711 285 z m 850 356 l 719 279 l 719 289 l 853 367 b 850 356 853 363 850 360 z m 276 24 l 243 3 l 225 3 l 267 28 b 276 24 271 26 272 25 z m 289 29 l 289 40 l 465 142 l 482 142 z m 258 31 l 213 3 l 196 3 l 249 35 b 258 31 251 33 256 32 z m 289 47 l 289 57 l 435 142 l 453 142 z m 267 35 b 256 39 264 36 258 38 l 281 53 l 281 43 z m 274 32 l 281 36 l 281 29 b 274 32 278 31 276 31 z m 711 293 l 665 265 b 676 282 669 271 674 276 l 711 303 z m 854 375 l 719 296 l 719 307 l 856 386 b 854 375 856 382 854 379 z m 242 38 l 183 3 l 165 3 l 232 42 b 242 38 235 40 239 39 z m 289 64 l 289 75 l 406 142 l 422 142 z m 249 42 b 239 46 246 43 242 44 l 281 71 l 281 61 z m 711 310 l 682 293 b 690 307 685 297 688 301 l 711 319 z m 856 393 l 719 314 l 719 324 l 857 404 b 856 393 857 400 856 397 z m 225 46 l 153 3 l 142 3 l 142 7 l 217 50 z m 289 82 l 289 92 l 375 142 l 393 142 z m 233 50 b 224 54 231 51 226 53 l 281 88 l 281 78 z m 711 328 l 694 317 b 700 331 696 321 699 326 l 711 338 z m 857 411 l 719 331 l 719 342 l 857 422 z m 210 54 l 142 15 l 142 25 l 201 60 b 210 54 204 58 207 56 z m 289 99 l 289 110 l 346 142 l 363 142 z m 217 58 l 208 63 l 281 106 l 281 96 z m 711 344 l 703 339 l 707 351 l 711 354 z m 857 429 l 719 349 l 719 358 l 857 439 b 858 433 857 438 858 435 b 857 429 858 432 857 431 z m 196 63 l 142 32 l 142 42 l 188 68 b 196 63 190 67 193 64 z m 289 117 l 289 126 l 315 142 l 333 142 z m 203 67 b 194 72 200 68 197 71 l 281 122 l 281 113 z m 711 363 l 710 361 b 711 371 711 364 710 368 z m 857 446 l 719 365 l 719 376 l 857 456 z m 182 72 l 142 50 l 142 60 l 174 78 b 182 72 176 76 179 74 z m 289 133 l 289 142 l 303 142 z m 188 76 b 181 82 185 78 183 81 l 281 140 l 281 131 z m 857 463 l 719 383 l 719 393 l 856 472 b 857 463 856 469 857 465 z m 289 150 l 289 151 l 289 161 l 289 163 l 289 178 b 364 150 313 165 338 156 z m 168 82 l 142 67 l 142 76 l 160 88 b 168 82 163 86 165 83 z m 272 142 l 175 86 b 167 92 172 88 169 90 l 256 142 z m 856 479 l 719 400 l 719 411 l 854 489 b 856 479 854 486 856 482 z m 853 496 l 719 418 l 719 428 l 851 506 b 853 496 851 503 853 499 z m 156 92 l 142 85 l 142 94 l 147 97 b 156 92 150 96 153 93 z m 281 165 l 254 150 l 238 150 l 281 175 z m 243 142 l 161 96 b 154 101 158 97 157 100 l 225 142 z m 281 157 l 281 150 l 267 150 z m 850 511 l 719 435 l 719 446 l 849 521 b 850 511 849 518 850 514 z m 289 186 l 289 197 l 289 214 l 289 221 l 289 231 l 289 232 l 289 249 l 289 256 l 289 265 l 289 267 l 289 283 l 289 290 l 289 300 l 289 301 l 289 318 l 289 325 l 289 335 l 289 353 l 289 360 l 289 369 l 289 388 l 289 394 l 289 404 l 289 422 l 289 429 l 289 439 l 289 457 l 289 464 l 289 474 l 289 492 l 289 499 l 289 508 l 289 515 l 289 526 l 289 533 l 289 543 l 289 550 l 289 561 l 289 568 l 289 578 l 289 585 l 289 683 b 408 719 325 704 365 717 l 449 719 b 711 435 596 710 711 585 b 428 150 711 278 585 150 b 289 186 378 150 331 163 z m 281 182 l 225 150 l 207 150 l 272 188 b 281 182 275 186 278 183 z m 213 142 l 149 106 b 142 111 146 107 144 110 l 196 142 z m 847 528 l 719 453 l 719 463 l 846 536 b 847 528 847 533 847 531 z m 267 192 l 194 150 l 178 150 l 258 196 z m 183 142 l 142 119 l 142 129 l 165 142 z m 274 194 b 265 200 271 196 268 199 l 281 210 l 281 200 z m 279 192 l 281 192 l 281 190 z m 844 543 l 719 469 l 719 481 l 842 551 b 844 543 843 549 843 546 z m 253 200 l 165 150 l 147 150 l 246 207 b 253 200 249 206 250 201 z m 153 142 l 142 136 l 142 142 z m 260 204 b 253 210 257 206 256 208 l 281 226 l 281 217 z m 840 557 l 719 488 l 719 497 l 838 567 b 840 557 839 564 839 560 z m 240 211 l 142 154 l 142 164 l 233 217 b 240 211 236 215 238 213 z m 247 214 b 240 221 244 215 243 219 l 281 244 l 281 235 z m 710 510 l 711 511 l 711 501 b 710 510 711 504 711 507 z m 835 572 l 719 504 l 719 515 l 832 581 b 835 572 833 578 833 575 z m 229 221 l 142 171 l 142 181 l 222 228 b 229 221 225 225 226 222 z m 235 225 b 228 231 232 226 231 228 l 281 261 l 281 251 z m 707 515 b 704 524 706 518 706 521 l 711 528 l 711 518 z m 829 586 l 719 522 l 719 532 l 826 594 b 829 586 828 592 828 589 z m 218 232 l 142 189 l 142 199 l 211 239 b 218 232 213 236 217 235 z m 224 236 b 218 242 221 239 219 239 l 281 279 l 281 269 z m 703 531 b 700 539 701 533 701 536 l 711 546 l 711 536 z m 824 600 l 719 539 l 719 550 l 821 608 b 824 600 822 606 822 603 z m 207 243 l 142 206 l 142 215 l 201 250 b 207 243 203 247 206 246 z m 214 247 b 208 254 213 250 210 251 l 281 296 l 281 286 z m 697 544 b 694 553 696 547 696 550 l 711 563 l 711 553 z m 818 614 l 719 557 l 719 567 l 814 622 z m 197 256 l 142 224 l 142 233 l 192 263 b 197 256 193 260 196 258 z m 204 258 b 199 265 203 261 200 263 l 281 314 l 281 304 z m 692 558 l 688 567 l 711 581 l 711 571 z m 811 628 l 719 574 l 719 585 l 807 636 z m 189 267 l 142 240 l 142 250 l 183 275 b 189 267 185 272 188 269 z m 194 271 b 190 278 193 274 192 275 l 281 331 l 281 321 z m 685 572 b 681 579 683 575 682 576 l 711 597 l 711 588 z m 804 642 l 719 592 l 719 601 l 800 649 b 804 642 801 646 803 644 z m 181 279 l 142 258 l 142 268 l 176 288 z m 186 283 b 182 290 185 286 183 288 l 281 349 l 281 339 z m 678 585 b 672 593 676 588 674 590 l 711 615 l 711 606 z m 797 654 l 719 608 l 719 619 l 793 661 b 797 654 794 658 796 657 z m 172 293 l 142 275 l 142 285 l 168 300 b 172 293 169 297 171 296 z m 179 296 l 175 304 l 281 365 l 281 356 z m 669 597 b 664 606 668 600 665 603 l 711 632 l 711 622 z m 789 667 l 719 626 l 719 636 l 785 675 z m 165 306 l 142 293 l 142 303 l 163 314 b 165 306 164 311 164 308 z m 172 310 l 168 318 l 281 383 l 281 374 z m 661 610 b 656 617 660 613 657 614 l 711 650 l 711 640 z m 781 679 l 719 643 l 719 654 l 775 686 b 781 679 776 683 779 682 z m 160 319 l 142 310 l 142 319 l 156 328 z m 165 324 b 163 332 164 326 164 329 l 281 400 l 281 390 z m 651 622 b 646 629 650 625 647 626 l 711 667 l 711 657 z m 772 692 l 719 661 l 719 671 l 767 699 b 772 692 768 696 771 694 z m 154 333 l 142 328 l 142 338 l 151 342 b 154 333 153 339 153 336 z m 160 338 b 157 346 158 340 158 343 l 281 418 l 281 408 z m 642 633 b 635 640 640 636 638 638 l 711 685 l 711 675 z m 763 704 l 719 678 l 719 689 l 757 711 b 763 704 758 708 761 707 z m 149 349 l 142 344 l 142 354 l 146 357 b 149 349 147 354 147 351 z m 156 351 b 153 361 154 354 154 358 l 281 435 l 281 425 z m 631 644 b 624 651 628 647 626 650 l 711 701 l 711 692 z m 753 715 l 719 696 l 719 706 l 740 719 l 750 719 b 753 715 751 718 751 717 z m 144 364 l 142 363 l 142 372 l 143 372 b 144 364 143 369 143 367 z m 151 367 b 149 376 150 369 149 374 l 281 453 l 281 443 z m 618 656 b 611 661 615 657 614 660 l 711 719 l 711 710 z m 728 719 l 719 713 l 719 719 z m 740 725 l 724 725 l 736 733 b 743 726 739 731 742 729 z m 147 382 b 146 392 147 385 146 389 l 281 469 l 281 460 z m 711 725 l 693 725 l 711 736 l 711 726 z m 699 719 l 606 665 b 599 671 603 667 601 669 l 681 719 z m 732 738 l 719 731 l 719 740 l 725 744 z m 146 399 b 144 408 146 401 144 406 l 281 488 l 281 478 z m 681 725 l 663 725 l 711 754 l 711 744 z m 668 719 l 593 675 b 585 681 590 676 588 679 l 651 719 z m 721 749 l 719 747 l 719 750 z m 143 415 l 143 425 l 281 504 l 281 494 z m 650 725 l 633 725 l 701 765 b 708 760 704 764 706 761 z m 639 719 l 579 685 l 571 689 l 621 719 z m 143 432 l 143 435 l 143 442 l 281 522 l 281 513 z m 621 725 l 603 725 l 689 775 b 697 769 692 774 694 771 z m 608 719 l 564 693 b 554 697 561 694 557 696 b 592 719 567 704 579 713 z m 143 450 b 144 460 143 454 144 456 l 281 539 l 281 529 z m 590 725 l 574 725 l 676 785 b 683 779 679 783 681 781 z m 579 719 l 547 701 b 538 706 544 703 540 704 b 561 719 546 710 553 715 z m 144 468 b 146 479 144 472 146 475 l 281 557 l 281 547 z m 561 725 l 543 725 l 663 794 b 671 789 665 793 668 790 z m 549 719 b 531 708 543 715 536 713 b 519 713 526 710 524 711 l 531 719 z m 147 486 b 150 499 149 490 149 494 l 281 574 l 281 564 z m 531 725 l 513 725 l 647 804 b 657 799 650 803 654 800 z m 518 719 l 511 714 l 499 718 l 501 719 z m 142 501 l 142 511 l 147 514 b 144 501 146 510 146 506 z m 153 507 b 156 519 154 511 154 515 l 281 592 l 281 582 z m 500 725 l 483 725 l 633 813 b 642 807 636 811 639 808 z m 142 518 l 142 528 l 154 535 l 150 522 z m 158 528 b 164 540 160 532 163 536 l 281 608 l 281 599 z m 471 725 l 453 725 l 617 821 b 626 815 619 819 624 817 z m 142 536 l 142 546 l 164 558 b 157 544 161 554 158 549 z m 168 550 b 175 564 171 554 172 560 l 281 626 l 281 617 z m 442 726 l 428 726 l 425 726 l 600 828 b 610 824 603 826 607 825 z m 142 553 l 142 563 l 176 583 b 168 568 174 578 171 574 z m 181 575 b 189 590 183 581 186 585 l 281 643 l 281 633 z m 411 726 b 408 725 410 726 410 725 l 393 725 l 583 836 b 593 832 586 835 590 833 z m 142 571 l 142 581 l 196 611 l 183 594 z m 197 603 b 213 621 201 610 207 615 l 281 661 l 281 651 z m 381 725 l 364 725 l 564 842 b 575 839 568 840 571 840 z m 142 588 l 142 597 l 229 649 b 207 625 221 642 214 633 z m 228 638 b 272 672 242 651 257 661 l 281 678 l 281 668 z m 351 725 l 333 725 l 544 849 l 557 844 z m 142 606 l 142 615 l 281 696 l 281 686 l 260 674 z m 321 725 l 303 725 l 524 854 l 536 850 z m 142 622 l 142 632 l 281 713 l 281 703 z m 142 640 l 142 650 l 261 719 l 279 719 z m 290 725 l 289 725 l 289 735 l 501 858 b 515 856 506 857 511 857 z m 274 725 l 281 731 l 281 725 z m 142 657 l 142 667 l 232 719 l 249 719 z m 261 725 l 243 725 l 281 747 l 281 738 z m 492 860 l 289 742 l 289 751 l 478 861 b 492 860 482 861 488 861 z m 142 675 l 142 685 l 201 719 l 219 719 z m 231 725 l 214 725 l 281 765 l 281 756 z m 468 863 l 289 758 l 289 769 l 451 864 b 468 863 457 864 463 863 z m 142 692 l 142 701 l 171 719 l 189 719 z m 201 725 l 183 725 l 281 782 l 281 772 z m 440 864 l 289 776 l 289 786 l 424 864 l 428 864 z m 142 710 l 142 719 l 158 719 z m 171 725 l 153 725 l 281 800 l 281 790 z m 410 864 l 289 793 l 289 804 l 390 863 b 410 864 397 863 403 864 z m 281 807 l 142 726 l 142 736 l 281 817 z m 375 861 l 289 811 l 289 821 l 351 858 b 375 861 360 860 367 860 z m 281 825 l 142 744 l 142 754 l 281 835 z m 333 854 l 289 828 l 289 839 l 300 846 z m 324 860 l 333 864 l 349 864 z m 269 835 l 160 771 b 269 835 193 797 229 819 z m 301 853 l 289 849 l 289 856 l 303 864 l 321 864 z m 142 771 l 167 785 b 142 767 158 779 150 774 z m 253 836 l 281 851 l 281 847 b 253 836 271 844 263 840 z m 142 779 l 142 789 l 274 864 l 281 864 l 281 860 z m 289 863 l 289 864 l 290 864 z m 142 796 l 142 806 l 243 864 l 261 864 z m 142 814 l 142 824 l 214 864 l 231 864 z m 142 831 l 142 840 l 183 864 l 201 864 z m 142 849 l 142 858 l 153 864 l 171 864 z "},"E":{"ha":931,"x_min":0,"x_max":0,"o":"m 524 3 l 642 71 l 642 63 l 540 3 z m 764 142 l 779 142 l 649 65 l 649 75 z m 493 3 l 642 89 l 642 79 l 510 3 z m 733 142 l 750 142 l 649 83 l 649 93 z m 464 3 l 642 106 l 642 97 l 479 3 z m 704 142 l 719 142 l 649 101 l 649 110 z m 433 3 l 642 124 l 642 114 l 450 3 z m 674 142 l 690 142 l 649 118 l 649 128 z m 660 142 l 649 136 l 649 142 z m 404 3 l 642 140 l 642 132 l 419 3 z m 374 3 l 614 142 l 631 142 l 390 3 z m 343 3 l 583 142 l 600 142 l 360 3 z m 314 3 l 554 142 l 569 142 l 329 3 z m 524 142 l 540 142 l 300 3 l 288 3 l 288 6 z m 494 142 l 510 142 l 288 14 l 288 22 z m 281 18 l 281 10 l 269 3 l 254 3 z m 464 142 l 481 142 l 288 31 l 288 40 z m 281 36 l 281 26 l 240 3 l 224 3 z m 433 142 l 450 142 l 288 47 l 288 57 z m 281 54 l 281 44 l 210 3 l 193 3 z m 404 142 l 419 142 l 288 65 l 288 75 z m 281 71 l 281 61 l 181 3 l 164 3 z m 374 142 l 390 142 l 288 82 l 288 92 z m 281 88 l 281 78 l 150 3 l 143 3 l 143 7 z m 344 142 l 360 142 l 288 100 l 288 108 z m 281 104 l 281 96 l 143 15 l 143 25 z m 314 142 l 331 142 l 288 117 l 288 126 z m 281 122 l 281 113 l 143 33 l 143 42 z m 300 142 l 288 135 l 288 142 z m 281 139 l 281 131 l 143 50 l 143 60 z m 269 150 l 281 157 l 281 150 z m 256 142 l 272 142 l 143 68 l 143 76 z m 240 150 l 281 174 l 281 165 l 256 150 z m 226 142 l 242 142 l 143 85 l 143 94 z m 210 150 l 281 192 l 281 182 l 226 150 z m 196 142 l 211 142 l 143 103 l 143 111 z m 179 150 l 281 208 l 281 200 l 196 150 z m 165 142 l 182 142 l 143 119 l 143 129 z m 150 142 l 143 138 l 143 142 z m 150 150 l 281 226 l 281 217 l 165 150 z m 143 164 l 281 243 l 281 235 l 143 154 z m 143 181 l 281 261 l 281 251 l 143 172 z m 143 199 l 281 278 l 281 269 l 143 189 z m 143 215 l 281 296 l 281 286 l 143 207 z m 143 233 l 281 313 l 281 304 l 143 224 z m 143 250 l 281 331 l 281 321 l 143 242 z m 143 268 l 281 347 l 281 339 l 143 258 z m 638 364 l 642 367 l 642 364 z m 607 364 l 642 383 l 642 374 l 624 364 z m 578 364 l 642 401 l 642 392 l 593 364 z m 547 364 l 642 418 l 642 408 l 564 364 z m 518 364 l 642 436 l 642 426 l 533 364 z m 488 364 l 642 453 l 642 443 l 504 364 z m 457 364 l 642 471 l 642 461 l 474 364 z m 428 364 l 642 488 l 642 478 l 443 364 z m 397 364 l 638 503 l 642 503 l 642 496 l 414 364 z m 368 364 l 608 503 l 624 503 l 383 364 z m 324 364 l 308 364 l 547 503 l 564 503 z m 338 364 l 578 503 l 594 503 l 354 364 z m 288 358 l 642 358 l 642 150 l 288 150 z m 279 364 l 281 365 l 281 364 z m 288 368 l 518 503 l 533 503 l 294 364 l 288 364 z m 269 358 l 281 358 l 281 356 l 143 276 l 143 285 z m 249 364 l 281 383 l 281 374 l 265 364 z m 288 386 l 488 503 l 504 503 l 288 376 z m 239 358 l 256 358 l 143 293 l 143 303 z m 219 364 l 281 400 l 281 390 l 235 364 z m 288 404 l 458 503 l 474 503 l 288 394 z m 210 358 l 225 358 l 143 311 l 143 319 z m 189 364 l 281 418 l 281 408 l 206 364 z m 288 421 l 428 503 l 444 503 l 288 411 z m 179 358 l 196 358 l 143 328 l 143 338 z m 160 364 l 281 435 l 281 425 l 175 364 z m 288 439 l 399 503 l 414 503 l 288 429 z m 150 358 l 165 358 l 143 346 l 143 354 z m 143 372 l 281 453 l 281 443 l 146 364 l 143 364 z m 288 456 l 368 503 l 385 503 l 288 446 z m 143 389 l 281 469 l 281 460 l 143 381 z m 288 474 l 338 503 l 354 503 l 288 464 z m 143 407 l 281 488 l 281 478 l 143 397 z m 288 490 l 308 503 l 324 503 l 288 482 z m 288 499 l 288 503 l 294 503 z m 143 424 l 278 503 l 281 503 l 281 494 l 143 415 z m 265 511 l 281 521 l 281 513 l 279 511 z m 143 442 l 250 503 l 265 503 l 143 432 z m 233 511 l 281 539 l 281 529 l 250 511 z m 143 458 l 219 503 l 236 503 l 143 450 z m 204 511 l 281 556 l 281 547 l 219 511 z m 143 476 l 189 503 l 206 503 l 143 467 z m 175 511 l 281 574 l 281 564 l 189 511 z m 143 493 l 160 503 l 175 503 l 143 485 z m 143 501 l 143 503 l 146 503 z m 143 511 l 281 590 l 281 582 l 160 511 z m 143 528 l 281 608 l 281 599 l 143 519 z m 143 546 l 281 625 l 281 617 l 143 536 z m 143 563 l 281 643 l 281 633 l 143 554 z m 143 581 l 281 660 l 281 651 l 143 571 z m 143 597 l 281 678 l 281 668 l 143 589 z m 143 615 l 281 694 l 281 686 l 143 606 z m 143 632 l 281 713 l 281 703 l 143 624 z m 789 729 l 789 725 l 782 725 z m 789 747 l 789 738 l 768 725 l 751 725 z m 789 764 l 789 756 l 738 725 l 721 725 z m 789 782 l 789 772 l 707 725 l 692 725 z m 789 799 l 789 790 l 678 725 l 661 725 z m 632 725 l 642 731 l 642 725 z m 789 817 l 789 807 l 649 726 l 649 735 z m 601 725 l 642 749 l 642 739 l 618 725 z m 789 833 l 789 825 l 649 743 l 649 753 z m 571 725 l 642 765 l 642 757 l 588 725 z m 789 851 l 789 842 l 649 760 l 649 769 z m 542 725 l 642 783 l 642 774 l 557 725 z m 782 864 l 789 864 l 789 860 l 649 778 l 649 786 z m 511 725 l 642 800 l 642 792 l 528 725 z m 751 864 l 768 864 l 649 794 l 649 804 z m 482 725 l 642 818 l 642 808 l 497 725 z m 722 864 l 738 864 l 649 813 l 649 822 z m 451 725 l 642 835 l 642 825 l 468 725 z m 692 864 l 708 864 l 649 829 l 649 839 z m 422 725 l 642 853 l 642 843 l 438 725 z m 661 864 l 678 864 l 649 847 l 649 857 z m 392 725 l 632 864 l 642 864 l 642 860 l 408 725 z m 361 725 l 601 864 l 618 864 l 378 725 z m 318 725 l 301 725 l 542 864 l 558 864 z m 288 719 l 642 719 l 642 511 l 288 511 z m 332 725 l 572 864 l 588 864 l 347 725 z m 143 650 l 263 719 l 279 719 l 143 640 z m 272 725 l 281 729 l 281 725 z m 513 864 l 528 864 l 289 725 l 288 725 l 288 733 z m 143 667 l 233 719 l 249 719 l 143 658 z m 243 725 l 281 747 l 281 738 l 258 725 z m 482 864 l 499 864 l 288 742 l 288 751 z m 143 685 l 203 719 l 219 719 l 143 675 z m 213 725 l 281 765 l 281 756 l 229 725 z m 451 864 l 468 864 l 288 758 l 288 768 z m 143 701 l 174 719 l 189 719 l 143 693 z m 183 725 l 281 782 l 281 772 l 199 725 z m 422 864 l 438 864 l 288 776 l 288 786 z m 143 719 l 143 719 l 160 719 l 143 710 z m 153 725 l 281 800 l 281 790 l 169 725 z m 392 864 l 408 864 l 288 793 l 288 803 z m 281 817 l 281 807 l 143 728 l 143 736 z m 363 864 l 378 864 l 288 811 l 288 821 z m 281 835 l 281 825 l 143 744 l 143 754 z m 332 864 l 349 864 l 288 829 l 288 839 z m 281 851 l 281 842 l 143 763 l 143 771 z m 301 864 l 318 864 l 288 846 l 288 856 z m 272 864 l 281 864 l 281 860 l 143 779 l 143 789 z m 242 864 l 258 864 l 143 797 l 143 806 z m 213 864 l 228 864 l 143 814 l 143 824 z m 182 864 l 199 864 l 143 832 l 143 840 z m 153 864 l 168 864 l 143 849 l 143 858 z m 764 3 l 789 18 l 789 8 l 779 3 z m 733 3 l 789 35 l 789 26 l 750 3 z m 703 3 l 789 53 l 789 43 l 719 3 z m 674 3 l 789 69 l 789 61 l 689 3 z m 649 6 l 789 88 l 789 78 l 660 3 l 649 3 z m 614 3 l 642 19 l 642 10 l 629 3 z m 649 22 l 789 104 l 789 96 l 649 14 z m 569 3 l 554 3 l 642 53 l 642 44 z m 649 49 l 649 57 l 789 139 l 789 131 z m 583 3 l 642 36 l 642 26 l 600 3 z m 649 40 l 789 122 l 789 113 l 649 31 z m 136 725 l 29 725 l 29 719 l 136 719 l 136 511 l 29 511 l 29 503 l 136 503 l 136 364 l 44 364 l 44 358 l 136 358 l 136 150 l 31 150 l 31 142 l 136 142 l 136 3 l 31 3 l 31 -3 l 136 -3 l 136 -210 l 143 -210 l 143 -3 l 281 -3 l 281 -210 l 288 -210 l 288 -3 l 642 -3 l 642 -210 l 649 -210 l 649 -3 l 789 -3 l 789 -210 l 794 -210 l 794 -3 l 900 -3 l 900 3 l 794 3 l 794 142 l 900 142 l 900 150 l 794 150 l 794 719 l 871 719 l 871 725 l 794 725 l 794 864 l 871 864 l 871 872 l 794 872 l 794 1061 l 789 1061 l 789 872 l 649 872 l 649 1061 l 642 1061 l 642 872 l 288 872 l 288 1061 l 281 1061 l 281 872 l 143 872 l 143 1061 l 136 1061 l 136 872 l 29 872 l 29 864 l 136 864 z m 649 503 l 736 503 l 736 511 l 649 511 l 649 719 l 789 719 l 789 150 l 649 150 l 649 358 l 738 358 l 738 364 l 649 364 z "},"F":{"ha":917,"x_min":0,"x_max":0,"o":"m 289 358 l 608 358 l 608 3 l 289 3 z m 289 719 l 608 719 l 608 511 l 289 511 z m 836 872 l 761 872 l 761 1063 l 753 1063 l 753 872 l 614 872 l 614 1063 l 608 1063 l 608 872 l 289 872 l 289 1063 l 281 1063 l 281 872 l 142 872 l 142 1063 l 136 1063 l 136 872 l 29 872 l 29 864 l 136 864 l 136 725 l 29 725 l 29 719 l 136 719 l 136 511 l 29 511 l 29 503 l 136 503 l 136 364 l 44 364 l 44 358 l 136 358 l 136 3 l 44 3 l 44 -3 l 136 -3 l 136 -210 l 142 -210 l 142 -3 l 281 -3 l 281 -210 l 289 -210 l 289 -3 l 608 -3 l 608 -210 l 614 -210 l 614 -3 l 753 -3 l 753 -210 l 761 -210 l 761 -3 l 839 -3 l 839 3 l 761 3 l 761 719 l 836 719 l 836 725 l 761 725 l 761 864 l 836 864 z m 667 511 l 614 511 l 614 719 l 753 719 l 753 3 l 614 3 l 614 358 l 668 358 l 668 364 l 614 364 l 614 503 l 667 503 z m 272 3 l 256 3 l 281 18 l 281 8 z m 243 3 l 225 3 l 281 36 l 281 26 z m 213 3 l 196 3 l 281 53 l 281 43 z m 183 3 l 165 3 l 281 71 l 281 61 z m 153 3 l 142 3 l 142 7 l 281 88 l 281 78 z m 142 15 l 142 25 l 281 106 l 281 96 z m 142 32 l 142 42 l 281 122 l 281 113 z m 142 50 l 142 60 l 281 140 l 281 131 z m 142 67 l 142 76 l 281 157 l 281 147 z m 142 85 l 142 94 l 281 175 l 281 165 z m 597 364 l 579 364 l 608 381 l 608 371 z m 142 101 l 142 111 l 281 192 l 281 182 z m 567 364 l 549 364 l 608 399 l 608 389 z m 142 119 l 142 129 l 281 210 l 281 200 z m 536 364 l 519 364 l 608 415 l 608 406 z m 142 136 l 142 146 l 281 226 l 281 217 z m 507 364 l 489 364 l 608 433 l 608 424 z m 142 154 l 142 164 l 281 244 l 281 235 z m 476 364 l 460 364 l 608 450 l 608 440 z m 142 171 l 142 181 l 281 261 l 281 251 z m 447 364 l 429 364 l 608 468 l 608 458 z m 142 189 l 142 199 l 281 279 l 281 269 z m 417 364 l 399 364 l 608 485 l 608 475 z m 142 206 l 142 215 l 281 296 l 281 286 z m 386 364 l 369 364 l 608 503 l 608 493 z m 142 224 l 142 233 l 281 314 l 281 304 z m 357 364 l 339 364 l 579 503 l 597 503 z m 142 240 l 142 250 l 281 331 l 281 321 z m 326 364 l 310 364 l 549 503 l 567 503 z m 142 258 l 142 268 l 281 349 l 281 339 z m 297 364 l 289 364 l 289 369 l 519 503 l 536 503 z m 142 275 l 142 285 l 267 358 l 281 358 l 281 356 z m 279 364 l 281 365 l 281 364 z m 267 364 l 249 364 l 281 383 l 281 374 z m 289 376 l 289 388 l 489 503 l 507 503 z m 254 358 l 142 293 l 142 303 l 238 358 z m 238 364 l 219 364 l 281 400 l 281 390 z m 289 394 l 289 404 l 460 503 l 476 503 z m 225 358 l 142 310 l 142 319 l 207 358 z m 207 364 l 189 364 l 281 418 l 281 408 z m 289 411 l 289 422 l 429 503 l 447 503 z m 194 358 l 142 328 l 142 338 l 178 358 z m 176 364 l 160 364 l 281 435 l 281 425 z m 289 429 l 289 439 l 399 503 l 417 503 z m 165 358 l 142 344 l 142 354 l 147 358 z m 147 364 l 142 364 l 142 372 l 281 453 l 281 443 z m 289 446 l 289 457 l 369 503 l 386 503 z m 753 733 l 740 725 l 724 725 l 753 743 z m 142 379 l 142 389 l 281 469 l 281 460 z m 289 464 l 289 474 l 339 503 l 357 503 z m 753 750 l 711 725 l 693 725 l 753 761 z m 142 397 l 142 407 l 281 488 l 281 478 z m 289 481 l 289 492 l 310 503 l 326 503 z m 753 768 l 681 725 l 663 725 l 753 778 z m 142 414 l 142 424 l 279 503 l 281 503 l 281 494 z m 289 499 l 289 503 l 297 503 z m 753 785 l 650 725 l 633 725 l 753 796 z m 279 511 l 261 511 l 281 522 l 281 513 z m 142 432 l 142 442 l 249 503 l 267 503 z m 753 803 l 621 725 l 614 725 l 614 732 l 753 813 z m 249 511 l 232 511 l 281 539 l 281 529 z m 142 449 l 142 458 l 219 503 l 238 503 z m 603 725 l 608 728 l 608 725 z m 590 725 l 574 725 l 608 746 l 608 736 z m 753 819 l 614 740 l 614 750 l 753 831 z m 219 511 l 201 511 l 281 557 l 281 547 z m 142 467 l 142 476 l 189 503 l 207 503 z m 561 725 l 543 725 l 608 763 l 608 753 z m 753 838 l 614 757 l 614 767 l 753 847 z m 189 511 l 171 511 l 281 574 l 281 564 z m 142 483 l 142 493 l 160 503 l 176 503 z m 531 725 l 513 725 l 608 781 l 608 771 z m 753 854 l 614 775 l 614 785 l 753 864 z m 158 511 l 142 511 l 281 592 l 281 582 z m 142 501 l 142 503 l 147 503 z m 500 725 l 483 725 l 608 797 l 608 788 z m 740 864 l 614 792 l 614 801 l 724 864 z m 142 518 l 142 528 l 281 608 l 281 599 z m 471 725 l 453 725 l 608 815 l 608 806 z m 711 864 l 614 810 l 614 819 l 693 864 z m 142 536 l 142 546 l 281 626 l 281 617 z m 440 725 l 424 725 l 608 832 l 608 822 z m 681 864 l 614 826 l 614 836 b 663 864 631 846 646 854 z m 142 553 l 142 563 l 281 643 l 281 633 z m 411 725 l 393 725 l 608 850 l 608 840 z m 650 864 l 614 844 l 614 854 l 633 864 z m 142 571 l 142 581 l 281 661 l 281 651 z m 381 725 l 364 725 l 603 864 l 608 864 l 608 857 z m 621 864 l 614 861 l 614 864 z m 142 588 l 142 597 l 281 678 l 281 668 z m 351 725 l 333 725 l 574 864 l 590 864 z m 142 606 l 142 615 l 281 696 l 281 686 z m 321 725 l 303 725 l 543 864 l 561 864 z m 142 622 l 142 632 l 281 713 l 281 703 z m 142 640 l 142 650 l 261 719 l 279 719 z m 290 725 l 289 725 l 289 735 l 513 864 l 531 864 z m 274 725 l 281 731 l 281 725 z m 142 657 l 142 667 l 232 719 l 249 719 z m 261 725 l 243 725 l 281 747 l 281 738 z m 500 864 l 289 742 l 289 751 l 483 864 z m 142 675 l 142 685 l 201 719 l 219 719 z m 231 725 l 214 725 l 281 765 l 281 756 z m 471 864 l 289 758 l 289 769 l 453 864 z m 142 692 l 142 701 b 171 719 151 707 161 714 l 189 719 z m 201 725 l 183 725 l 281 782 l 281 772 z m 440 864 l 289 776 l 289 786 l 424 864 z m 142 710 l 142 719 l 158 719 b 142 710 153 717 147 713 z m 171 725 l 153 725 l 281 800 l 281 790 z m 411 864 l 289 793 l 289 804 l 393 864 z m 281 807 l 142 726 l 142 736 l 281 817 z m 381 864 l 289 811 l 289 821 l 364 864 z m 281 825 l 142 744 l 142 754 l 281 835 z m 351 864 l 289 828 l 289 839 l 333 864 z m 281 842 l 142 761 l 142 771 l 281 851 z m 321 864 l 289 846 l 289 856 l 303 864 z m 281 860 l 142 779 l 142 789 l 274 864 l 281 864 z m 290 864 l 289 863 l 289 864 z m 261 864 l 142 796 l 142 806 l 243 864 z m 231 864 l 142 814 l 142 824 l 214 864 z m 201 864 l 142 831 l 142 840 l 183 864 z m 171 864 l 142 849 l 142 858 l 153 864 z "},"G":{"ha":1193,"x_min":0,"x_max":0,"o":"m 706 -11 l 706 -3 l 858 -3 l 858 -11 z m 493 -11 l 289 -11 l 289 -3 l 461 -3 b 493 -11 472 -6 482 -10 z m 653 -11 b 685 -3 664 -10 674 -6 l 697 -3 l 697 -11 z m 1001 290 b 1017 354 1008 311 1013 332 l 1017 290 z m 999 283 l 1017 283 l 1017 150 l 924 150 b 999 283 956 190 981 235 z m 858 83 l 858 3 l 708 3 b 858 83 764 19 815 47 z m 864 90 b 917 142 883 107 900 122 l 1017 142 l 1017 3 l 864 3 z m 289 83 b 438 3 332 47 382 19 l 289 3 z m 251 118 l 138 3 l 128 3 l 128 142 l 229 142 b 251 118 236 133 243 126 z m 256 113 b 281 90 264 104 272 97 l 281 3 l 147 3 z m 924 719 l 1017 719 l 1017 514 b 924 719 1003 590 971 661 z m 706 283 l 814 283 b 706 182 788 240 750 206 z m 1015 872 l 1017 874 l 1017 872 z m 1008 864 l 1017 864 l 1017 725 l 917 725 b 894 750 910 733 903 742 z m 869 725 l 889 746 b 908 725 896 739 903 732 z m 428 283 l 697 283 l 697 178 b 572 150 660 160 617 150 b 374 231 494 150 425 181 z m 574 429 l 697 429 l 697 424 l 694 421 l 694 414 l 697 417 l 697 406 l 694 404 l 694 397 l 697 399 l 697 389 l 694 386 l 694 379 l 697 382 l 697 371 l 694 369 l 694 363 l 697 364 l 697 354 l 694 351 l 694 344 l 697 347 l 697 336 l 694 335 l 694 328 l 697 329 l 697 319 l 694 317 l 694 310 l 697 313 l 697 301 l 694 300 l 694 293 l 697 294 l 697 290 l 435 290 z m 999 864 l 889 756 b 708 864 839 806 778 842 z m 128 -6 l 128 -3 l 131 -3 z m 417 283 l 369 235 b 332 283 356 250 343 265 z m 569 436 l 289 436 b 572 719 290 592 415 719 b 772 638 650 719 721 688 z m 563 429 l 424 290 l 328 290 b 289 429 304 331 290 379 z m 128 283 l 147 283 b 222 150 165 235 190 190 l 128 150 z m 128 290 l 128 354 b 144 290 132 332 138 311 z m 289 872 l 289 882 l 493 882 b 461 872 482 881 472 875 z m 289 864 l 438 864 b 289 785 382 847 332 821 z m 128 725 l 128 864 l 281 864 l 281 778 b 229 725 261 761 246 744 z m 128 719 l 222 719 b 128 514 175 661 142 590 z m 697 539 l 697 436 l 581 436 l 776 633 b 858 436 826 582 858 513 l 706 436 l 706 539 z m 858 539 l 858 497 b 782 638 846 551 819 600 l 863 719 l 914 719 b 1017 436 978 643 1017 543 l 864 436 l 864 539 z m 1128 872 l 1025 872 l 1025 881 l 1088 943 l 1082 949 l 1025 890 l 1025 1058 l 1017 1058 l 1017 883 l 1006 872 l 685 872 b 646 882 674 875 657 881 l 889 882 l 889 890 l 289 890 l 289 1058 l 281 1058 l 281 890 l 271 890 l 271 882 l 281 882 l 281 872 l 128 872 l 128 1058 l 122 1058 l 122 872 l 29 872 l 29 864 l 122 864 l 122 725 l 29 725 l 29 719 l 122 719 l 122 433 l 122 290 l 33 290 l 33 283 l 122 283 l 122 150 l 44 150 l 44 142 l 122 142 l 122 3 l 44 3 l 44 -3 l 122 -3 l 122 -12 l 54 -79 l 60 -85 l 122 -22 l 122 -210 l 128 -210 l 128 -15 l 140 -3 l 281 -3 l 281 -11 l 271 -11 l 271 -17 l 281 -17 l 281 -210 l 289 -210 l 289 -17 l 572 -17 l 697 -17 l 697 -210 l 706 -210 l 706 -17 l 858 -17 l 858 -210 l 864 -210 l 864 -17 l 889 -17 l 889 -11 l 864 -11 l 864 -3 l 1017 -3 l 1017 -210 l 1025 -210 l 1025 -3 l 1158 -3 l 1158 3 l 1025 3 l 1025 142 l 1131 142 l 1131 150 l 1025 150 l 1025 283 l 1064 283 l 1064 290 l 1025 290 l 1025 429 l 1119 429 l 1119 436 l 1025 436 l 1025 719 l 1128 719 l 1128 725 l 1025 725 l 1025 864 l 1128 864 z m 731 18 l 854 90 b 731 18 818 60 775 35 z m 858 99 l 706 11 l 706 21 l 858 110 z m 878 111 l 864 103 l 864 114 l 901 135 b 878 111 894 126 886 118 z m 697 17 l 697 7 b 683 3 693 6 688 4 l 675 3 z m 858 117 l 706 28 l 706 38 l 858 126 z m 697 24 l 663 3 l 644 3 l 697 35 z m 903 142 l 864 121 l 864 131 l 885 142 z m 650 -4 b 626 -7 642 -6 635 -6 l 633 -3 l 650 -3 z m 897 150 l 929 168 b 914 150 925 161 919 156 z m 885 150 l 867 150 l 949 197 b 938 181 944 192 942 186 z m 858 133 l 706 46 l 706 56 l 854 142 l 858 142 z m 697 42 l 632 3 l 615 3 l 697 51 z m 872 142 l 864 138 l 864 142 z m 611 -8 b 592 -10 604 -8 599 -10 l 603 -3 l 621 -3 z m 854 150 l 838 150 l 858 161 l 858 151 z m 864 156 l 864 165 l 964 224 b 956 208 961 218 958 214 z m 843 142 l 706 63 l 706 72 l 825 142 z m 697 58 l 603 3 l 585 3 l 697 69 z m 579 -10 b 572 -11 578 -10 574 -11 b 561 -10 568 -11 565 -10 l 574 -3 l 590 -3 z m 825 150 l 807 150 l 858 179 l 858 168 z m 864 172 l 864 183 l 976 247 b 969 233 974 243 972 238 z m 813 142 l 706 81 l 706 90 l 794 142 z m 697 76 l 572 3 l 556 3 l 697 86 z m 561 -3 l 550 -10 b 533 -8 544 -10 539 -8 l 543 -3 z m 794 150 l 776 150 l 858 196 l 858 186 z m 864 190 l 864 200 l 986 271 b 981 257 985 267 982 261 z m 782 142 l 706 97 l 706 107 l 765 142 z m 697 93 l 543 3 l 525 3 l 697 104 z m 531 -3 l 524 -8 b 508 -6 519 -8 513 -6 l 513 -3 z m 764 150 l 747 150 l 858 214 l 858 203 z m 864 207 l 864 218 l 978 283 l 992 283 b 990 279 992 282 990 281 z m 753 142 l 706 115 l 706 125 l 735 142 z m 697 111 l 513 3 l 494 3 l 697 121 z m 500 -3 l 499 -4 b 494 -3 497 -4 496 -3 z m 990 290 l 994 293 b 993 290 994 292 993 292 z m 735 150 l 717 150 l 858 231 l 858 221 z m 978 290 l 960 290 l 1001 314 l 997 301 z m 864 225 l 864 235 l 949 283 l 965 283 z m 722 142 l 706 132 l 706 142 z m 697 128 l 482 3 l 465 3 l 697 139 z m 706 150 l 706 160 l 858 249 l 858 238 z m 947 290 l 931 290 l 1006 335 b 1003 322 1004 331 1004 326 z m 864 242 l 864 253 l 918 283 l 936 283 z m 693 142 l 456 6 b 444 8 451 7 449 7 l 675 142 z m 688 150 l 697 156 l 697 150 z m 706 167 l 706 174 b 754 206 724 182 739 193 l 858 265 l 858 256 z m 918 290 l 900 290 l 1010 354 b 1008 343 1008 350 1010 347 z m 864 260 l 864 269 l 889 283 l 906 283 z m 663 142 l 436 11 b 425 15 432 13 429 14 l 644 142 z m 675 150 l 657 150 l 681 163 l 697 171 l 697 163 z m 778 226 b 797 249 785 233 792 242 l 858 283 l 858 272 z m 888 290 l 871 290 l 1013 374 b 1011 363 1013 369 1011 367 z m 864 276 l 864 283 l 876 283 z m 632 142 l 417 18 b 407 22 413 19 410 21 l 615 142 z m 650 153 l 644 150 l 636 150 b 650 153 640 151 646 151 z m 846 283 l 808 261 b 819 278 813 267 815 272 l 828 283 z m 864 294 l 864 304 l 1015 392 b 1014 381 1015 388 1014 385 z m 603 142 l 400 25 b 389 29 397 26 392 28 l 585 142 z m 858 307 l 828 290 l 826 290 b 833 304 829 294 831 300 l 858 318 z m 864 311 l 864 322 l 1017 410 l 1017 399 z m 858 300 l 858 290 l 840 290 z m 572 142 l 382 32 b 374 38 379 33 376 36 l 556 142 z m 858 325 l 839 314 b 844 328 840 318 843 324 l 858 335 z m 864 329 l 864 339 l 1017 428 l 1017 417 z m 799 290 l 781 290 l 835 322 b 828 308 833 318 831 313 z m 811 290 l 822 297 b 818 290 821 294 819 293 z m 543 142 l 367 40 b 357 46 364 42 360 44 l 525 142 z m 858 342 l 847 336 l 851 349 l 858 353 z m 864 346 l 864 357 l 990 429 l 1008 429 z m 768 290 l 750 290 l 843 344 b 839 331 842 340 840 335 z m 513 142 l 351 49 b 343 54 349 50 346 53 l 494 142 z m 858 360 l 854 358 b 857 369 856 363 856 365 l 858 369 z m 864 364 l 864 374 l 960 429 l 978 429 z m 738 290 l 721 290 l 849 365 b 846 353 847 361 847 357 z m 482 142 l 336 58 l 328 63 l 465 142 z m 494 150 l 478 150 l 488 156 b 499 151 492 154 494 153 z m 864 381 l 864 392 l 931 429 l 947 429 z m 708 290 l 706 290 l 706 299 l 853 385 b 851 374 853 381 853 378 z m 453 142 l 322 67 b 314 72 319 68 317 71 l 435 142 z m 465 150 l 447 150 l 468 161 b 479 158 472 160 475 160 z m 864 399 l 864 408 l 900 429 l 918 429 z m 706 306 l 706 315 l 856 403 b 854 393 856 399 854 397 z m 422 142 l 308 76 b 301 82 306 78 304 81 l 406 142 z m 435 150 l 417 150 l 451 169 b 461 165 454 168 458 167 z m 864 415 l 864 426 l 871 429 l 888 429 z m 706 324 l 706 333 l 857 422 l 857 411 z m 393 142 l 296 86 b 289 92 293 88 292 90 l 375 142 z m 404 150 l 388 150 l 435 176 b 444 172 438 175 442 174 z m 706 340 l 706 350 l 840 429 l 857 429 z m 363 142 l 289 99 l 289 110 l 346 142 z m 375 150 l 357 150 l 419 186 b 429 181 422 185 426 182 z m 706 358 l 706 368 l 811 429 l 828 429 z m 276 103 l 281 106 l 281 99 z m 272 107 b 265 114 269 108 268 111 l 281 122 l 281 113 z m 333 142 l 289 117 l 289 126 l 315 142 z m 344 150 l 328 150 l 406 194 b 414 189 408 193 411 190 z m 706 375 l 706 385 l 781 429 l 799 429 z m 264 119 l 281 138 l 281 131 z m 303 142 l 289 133 l 289 142 z m 315 150 l 297 150 l 393 204 b 400 199 396 203 397 200 z m 706 393 l 706 403 l 750 429 l 768 429 z m 264 131 l 256 122 b 254 125 256 124 254 124 z m 272 142 l 250 129 b 243 136 249 132 244 133 l 256 142 z m 304 161 l 329 185 l 381 215 b 388 208 383 214 385 210 z m 706 410 l 706 419 b 721 429 711 422 715 426 l 738 429 z m 289 161 l 306 171 l 289 154 z m 267 150 l 281 157 l 281 150 z m 289 168 l 289 179 l 347 213 l 322 189 z m 254 150 l 238 150 l 281 175 l 281 165 z m 243 142 l 239 140 l 238 142 z m 346 201 l 369 225 b 375 219 372 224 372 221 z m 706 428 l 706 429 l 708 429 z m 289 186 l 289 196 l 358 236 b 364 231 360 233 363 233 l 364 229 z m 229 151 b 224 158 228 154 225 156 l 281 192 l 281 182 z m 289 203 l 289 214 l 349 249 b 354 242 350 246 353 244 z m 219 164 b 215 171 218 167 217 168 l 281 210 l 281 200 z m 289 221 l 289 231 l 339 260 b 344 253 340 257 343 256 z m 211 176 b 206 183 210 179 207 181 l 281 226 l 281 217 z m 289 238 l 289 249 l 331 272 b 335 265 332 269 333 268 z m 203 189 b 197 196 201 192 199 193 l 281 244 l 281 235 z m 289 256 l 289 265 l 319 283 l 324 283 b 326 278 325 282 325 279 z m 194 201 b 190 208 193 204 192 206 l 281 261 l 281 251 z m 318 290 l 301 290 l 315 299 l 319 290 z m 289 272 l 289 283 l 307 283 z m 186 214 l 182 222 l 281 279 l 281 269 z m 289 290 l 289 300 l 308 313 l 313 304 z m 276 283 l 179 228 b 175 235 178 231 176 232 l 258 283 z m 271 290 l 281 296 l 281 290 z m 258 290 l 240 290 l 281 314 l 281 304 z m 306 318 l 289 307 l 289 318 l 301 326 z m 246 283 l 172 240 b 169 249 171 243 171 246 l 229 283 z m 228 290 l 211 290 l 281 331 l 281 321 z m 300 332 l 289 325 l 289 335 l 297 340 b 300 332 299 338 299 335 z m 217 283 l 167 254 l 163 263 l 199 283 z m 199 290 l 181 290 l 281 349 l 281 339 z m 294 346 l 289 342 l 289 353 l 292 354 b 294 346 293 351 293 349 z m 186 283 l 161 268 l 157 276 l 169 283 z m 168 290 l 153 290 l 151 290 l 281 365 l 281 356 z m 290 361 l 289 360 l 289 369 b 290 361 289 367 289 364 z m 157 283 l 156 282 l 154 283 z m 765 653 b 758 660 763 654 761 658 l 842 707 l 818 683 z m 769 649 l 800 667 l 776 643 b 769 649 774 646 772 647 z m 150 297 b 147 306 149 300 149 303 l 281 383 l 281 374 z m 849 719 l 753 664 b 746 669 750 665 749 668 l 831 719 z m 146 311 b 143 321 144 314 144 318 l 281 400 l 281 390 z m 831 725 l 813 725 l 874 761 b 881 754 876 760 878 757 z m 818 719 l 740 674 b 732 679 738 675 735 678 l 801 719 z m 843 725 l 883 749 l 860 725 z m 142 326 b 139 336 140 329 139 333 l 281 418 l 281 408 z m 800 725 l 783 725 l 863 771 b 869 765 865 769 867 767 z m 789 719 l 726 682 b 717 688 724 683 719 686 l 771 719 z m 138 342 b 136 351 138 344 136 349 l 271 429 l 281 429 l 281 425 z m 771 725 l 753 725 l 850 782 b 857 776 853 781 854 778 z m 758 719 l 711 692 b 701 696 708 693 704 694 l 740 719 z m 135 358 b 133 367 135 361 133 364 l 240 429 l 258 429 z m 271 436 l 253 436 l 281 453 l 281 443 z m 740 725 l 724 725 l 836 792 b 844 786 839 790 842 788 z m 728 719 l 694 699 b 685 704 692 700 688 703 l 711 719 z m 132 374 l 132 383 l 211 429 l 228 429 z m 240 436 l 222 436 l 281 469 l 281 460 z m 711 725 l 693 725 l 824 801 b 831 796 826 800 828 797 z m 699 719 l 678 707 b 667 710 674 708 671 708 l 681 719 z m 131 390 b 129 400 131 393 129 397 l 281 488 l 281 478 l 211 436 l 208 436 l 208 435 z m 681 725 l 663 725 l 810 810 l 818 806 z m 668 719 l 658 713 b 647 717 654 714 651 715 l 651 719 z m 129 407 l 129 417 l 281 504 l 281 494 z m 289 499 l 289 508 l 292 511 b 289 499 290 507 290 503 z m 650 725 l 633 725 l 794 819 b 803 814 797 818 800 815 z m 639 719 l 638 718 l 636 719 z m 129 424 b 128 433 129 426 128 431 l 281 522 l 281 513 z m 289 515 l 289 526 l 299 532 l 294 519 z m 621 725 l 603 725 l 779 828 b 789 822 782 826 786 824 z m 129 440 l 129 451 l 281 539 l 281 529 z m 289 533 l 289 543 l 307 554 b 301 540 306 550 303 544 z m 590 725 l 574 725 l 763 836 b 772 831 765 835 769 832 z m 129 458 l 129 469 l 281 557 l 281 547 z m 289 550 l 289 561 l 319 579 b 313 564 317 575 315 569 z m 561 725 l 543 725 l 746 843 b 756 839 749 842 753 840 z m 131 476 b 132 488 131 481 132 483 l 281 574 l 281 564 z m 289 568 l 289 578 l 338 607 b 326 590 333 601 331 596 z m 531 725 l 513 725 l 729 850 b 739 846 733 849 736 847 z m 133 496 b 135 507 133 500 135 503 l 281 592 l 281 582 z m 289 585 l 289 596 l 368 642 b 349 621 361 635 356 628 z m 494 715 l 501 719 l 510 719 b 494 715 504 718 499 717 z m 136 514 b 138 526 138 518 136 522 l 281 608 l 281 599 z m 289 603 l 289 613 l 471 719 l 489 719 b 465 706 481 715 474 710 b 392 663 439 694 414 679 z m 500 725 l 483 725 l 710 857 b 721 853 714 856 717 854 z m 140 535 b 143 546 142 539 142 542 l 281 626 l 281 617 z m 289 619 l 289 631 l 442 719 l 458 719 z m 471 725 l 453 725 l 690 863 b 701 860 694 861 697 861 z m 144 554 l 149 567 l 281 643 l 281 633 z m 289 638 l 289 647 l 411 719 l 429 719 z m 440 725 l 424 725 l 663 864 l 681 864 z m 151 575 b 156 589 153 579 154 585 l 281 661 l 281 651 z m 289 654 l 289 665 l 381 719 l 399 719 z m 411 725 l 393 725 l 633 864 l 650 864 z m 160 597 b 165 611 161 601 164 607 l 281 678 l 281 668 z m 289 672 l 289 682 l 351 719 l 368 719 z m 381 725 l 364 725 l 603 864 l 621 864 z m 640 878 l 632 872 l 615 872 l 629 881 b 640 878 633 881 636 878 z m 649 875 l 657 872 l 644 872 z m 169 621 b 176 635 172 625 174 631 l 281 696 l 281 686 z m 289 689 l 289 700 l 321 719 l 339 719 z m 351 725 l 333 725 l 574 864 l 590 864 z m 619 882 l 603 872 l 585 872 l 603 882 z m 182 646 b 190 660 185 651 188 654 l 281 713 l 281 703 z m 289 707 l 289 717 l 292 719 l 308 719 b 289 707 301 715 296 711 z m 321 725 l 303 725 l 543 864 l 561 864 z m 592 882 l 572 872 l 556 872 l 574 882 l 579 882 z m 279 719 l 197 672 b 208 688 201 678 204 682 l 261 719 z m 290 725 l 289 725 l 289 735 l 513 864 l 531 864 z m 561 882 l 543 872 l 525 872 l 542 881 b 561 882 549 881 554 882 z m 249 719 l 217 700 b 232 719 221 706 226 714 z m 281 738 l 261 725 l 243 725 l 281 747 z m 500 864 l 289 742 l 289 751 l 483 864 z m 526 879 l 513 872 b 526 879 513 872 518 878 z m 281 731 l 281 725 l 274 725 z m 281 756 l 244 733 b 268 757 251 742 260 750 l 281 765 z m 471 864 l 289 758 l 289 769 l 444 860 b 463 864 450 861 457 863 z m 414 849 l 293 779 b 414 849 329 808 369 832 z "}}}
